<svg width="109px" height="152px" viewBox="0 0 109 152" version="1.1" xmlns="http://www.w3.org/2000/svg" xmlns:xlink="http://www.w3.org/1999/xlink">
  <g id="lightbulb" fill-rule="nonzero" fill="#5DF35C">
      <path d="M45.6314286,144.431429 L64.5828571,144.431429 C66.5628571,144.431429 68.1742857,146.042857 68.1742857,148.022857 C68.1742857,150.002857 66.5714286,151.614286 64.5828571,151.614286 L45.6314286,151.614286 C43.6514286,151.614286 42.04,150.002857 42.04,148.022857 C42.04,146.042857 43.6428571,144.431429 45.6314286,144.431429 Z M42.1,130.04 L67.9,130.04 C69.88,130.04 71.4914286,131.651429 71.4914286,133.631429 C71.4914286,135.611429 69.8885714,137.222857 67.9,137.222857 L42.1,137.222857 C40.12,137.222857 38.5085714,135.611429 38.5085714,133.631429 C38.5085714,131.651429 40.1114286,130.04 42.1,130.04 Z" id="fitting"></path>
      <path d="M84.1342857,112.108571 L84.1342857,100.168571 C99.5542857,90.26 109.042857,73.0314286 109.042857,54.7057143 C109.042857,24.9028571 84.8028571,0.662857143 55,0.662857143 C25.1971429,0.662857143 0.957142857,24.9028571 0.957142857,54.7057143 C0.957142857,73.3314286 10.6685714,90.6971429 26.4314286,100.537143 L26.4314286,112.1 C26.4314286,118.014286 31.24,122.822857 37.1542857,122.822857 L73.4028571,122.822857 C79.3257143,122.84 84.1342857,118.022857 84.1342857,112.108571 Z M76.9514286,98.1714286 L76.9514286,112.117143 C76.9514286,114.071429 75.3657143,115.657143 73.4114286,115.657143 L37.1628571,115.657143 C35.2085714,115.657143 33.6228571,114.071429 33.6228571,112.117143 L33.6228571,98.5142857 C33.6228571,97.2285714 32.9285714,96.0371429 31.8142857,95.3942857 C17.2085714,87.0542857 8.14,71.4628571 8.14,54.7142857 C8.14,28.88 29.1571429,7.85428571 55,7.85428571 C80.8342857,7.85428571 101.86,28.8714286 101.86,54.7142857 C101.86,71.1971429 92.9971429,86.66 78.7171429,95.0771429 C77.62,95.72 76.9514286,96.8942857 76.9514286,98.1714286 Z" id="bulb"></path>
  </g>
</svg>
