<?xml version="1.0" encoding="UTF-8" standalone="no"?>
<svg width="632px" height="936px" viewBox="0 0 632 936" version="1.1" xmlns="http://www.w3.org/2000/svg" xmlns:xlink="http://www.w3.org/1999/xlink">
    <!-- Generator: Sketch 43.2 (39069) - http://www.bohemiancoding.com/sketch -->
    <title>Artboard</title>
    <desc>Created with Sketch.</desc>
    <defs></defs>
    <g id="Symbols" stroke="none" stroke-width="1" fill="none" fill-rule="evenodd">
        <g id="Artboard" fill="#FFB540">
            <path d="M198.183575,698 C195.499738,634.989876 176.399424,602.407348 142.802721,580.350752 C56.7940846,523.885159 0,426.575064 0,316 C0,141.478019 141.478019,0 316,0 C490.521981,0 632,141.478019 632,316 C632,423.200908 578.619133,517.934046 496.988451,575.068361 C449.933828,608.002468 436.541711,640.667452 434.659931,698 L198.183575,698 Z" id="Combined-Shape"></path>
            <rect id="Rectangle-9" x="194" y="728" width="244" height="65" rx="20"></rect>
            <rect id="Rectangle-9" x="194" y="823" width="244" height="65" rx="20"></rect>
            <path d="M270.945799,867.100868 C272.134002,866.401279 273.518729,866 274.996819,866 L358.003181,866 C359.481696,866 360.866496,866.401803 362.054628,867.101871 C364.594444,873.058764 366,879.615239 366,886.5 C366,913.838095 343.838095,936 316.5,936 C289.161905,936 267,913.838095 267,886.5 C267,879.614853 268.405714,873.058028 270.945799,867.100868 L270.945799,867.100868 Z" id="Combined-Shape"></path>
        </g>
    </g>
</svg>
