<?xml version="1.0" encoding="UTF-8"?>
<svg width="146px" height="148px" viewBox="0 0 146 148" version="1.1" xmlns="http://www.w3.org/2000/svg" xmlns:xlink="http://www.w3.org/1999/xlink">
    <!-- Generator: Sketch 43.2 (39069) - http://www.bohemiancoding.com/sketch -->
    <title>Community Group</title>
    <desc>Created with Sketch.</desc>
    <defs></defs>
    <g id="Page-1" stroke="none" stroke-width="1" fill="none" fill-rule="evenodd">
        <g id="Community-Group" fill-rule="nonzero" fill="#4A4A4A">
            <path d="M9.72285059,12.5522307 L9.72285059,9.29550695 L18.0829295,9.29550695 L18.0829295,16.9956149 C17.270504,17.7867258 16.0933781,18.4833325 14.5515168,19.0854558 C13.0096554,19.6875791 11.4481621,19.9886362 9.86698988,19.9886362 C7.85776535,19.9886362 6.10627205,19.5645193 4.61245737,18.7162725 C3.11864269,17.8680258 1.99611457,16.6550072 1.24483934,15.0771804 C0.493564137,13.4993536 0.117932144,11.7831082 0.117932144,9.92839254 C0.117932144,7.91545473 0.537242265,6.12669184 1.37587508,4.56205023 C2.21450788,2.9974086 3.44186353,1.79757502 5.05797882,0.962513487 C6.28972077,0.320834621 7.82282336,0 9.65733273,0 C12.0421946,0 13.9050672,0.503226906 15.2460061,1.50969581 C16.586945,2.51616472 17.4495882,3.90718056 17.8339616,5.68278511 L13.9815114,6.4079665 C13.710703,5.45863338 13.2018526,4.70928677 12.4549454,4.15990418 C11.7080379,3.61052158 10.7755096,3.33583441 9.65733273,3.33583441 C7.96259549,3.33583441 6.61512497,3.87641877 5.61488064,4.95760372 C4.6146363,6.03878865 4.11452163,7.64296174 4.11452163,9.77017115 C4.11452163,12.0643929 4.62118803,13.7850333 5.634536,14.9321442 C6.64788397,16.079255 7.97569934,16.6528018 9.61802202,16.6528018 C10.4304475,16.6528018 11.2450448,16.4923845 12.061838,16.1715451 C12.8786315,15.8507056 13.5796656,15.4617486 14.1649614,15.0046623 L14.1649614,12.5522307 L9.72285059,12.5522307 Z M25.1588583,19.6590083 L21.4767547,19.6590083 L21.4767547,5.65641487 L24.8967869,5.65641487 L24.8967869,7.64736742 C25.4820827,6.70682443 26.0084044,6.08713016 26.4757674,5.78826603 C26.9431304,5.48940191 27.4738198,5.33997207 28.0678514,5.33997207 C28.9064841,5.33997207 29.7145297,5.5729068 30.4920122,6.03878324 L29.3520015,9.26913673 C28.7317627,8.86479114 28.1552111,8.66262138 27.62233,8.66262138 C27.1069202,8.66262138 26.6701387,8.80545872 26.3119726,9.09113767 C25.9538066,9.37681662 25.6720827,9.8932285 25.4667924,10.6403888 C25.2615021,11.3875491 25.1588583,12.9521673 25.1588583,15.3342902 L25.1588583,19.6590083 Z M40.1362413,15.202439 L43.8052414,15.8221395 C43.3335104,17.1758182 42.5887983,18.2064445 41.5710825,18.9140493 C40.5533665,19.6216541 39.280149,19.9754511 37.7513911,19.9754511 C35.331586,19.9754511 33.5407825,19.1799571 32.3789265,17.5889451 C31.461672,16.3143775 31.0030515,14.7058094 31.0030515,12.7631925 C31.0030515,10.4426005 31.6058098,8.62527011 32.8113446,7.31114695 C34.0168792,5.99702381 35.5412462,5.33997207 37.3844911,5.33997207 C39.4548659,5.33997207 41.0884283,6.02778876 42.285227,7.40344277 C43.482026,8.77909678 44.0542096,10.8864968 44.0017951,13.725706 L34.7768803,13.725706 C34.8030877,14.8244712 35.1000989,15.6792977 35.6679232,16.2902111 C36.2357475,16.9011246 36.9433333,17.2065767 37.7907018,17.2065767 C38.3672619,17.2065767 38.8520891,17.0483569 39.2451984,16.7319125 C39.6383075,16.4154682 39.9353187,15.9056488 40.1362413,15.202439 Z M40.3458985,11.457866 C40.3196911,10.3854712 40.0445189,9.57019968 39.5203734,9.01202697 C38.9962278,8.45385425 38.3585272,8.17477207 37.6072518,8.17477207 C36.8035621,8.17477207 36.1396543,8.46923674 35.6155089,9.05817488 C35.0913635,9.64711299 34.8336623,10.4470021 34.8423982,11.457866 L40.3458985,11.457866 Z M55.0612098,15.202439 L58.73021,15.8221395 C58.2584791,17.1758182 57.5137668,18.2064445 56.496051,18.9140493 C55.4783352,19.6216541 54.2051174,19.9754511 52.6763597,19.9754511 C50.2565547,19.9754511 48.4657511,19.1799571 47.3038952,17.5889451 C46.3866407,16.3143775 45.9280202,14.7058094 45.9280202,12.7631925 C45.9280202,10.4426005 46.5307784,8.62527011 47.736313,7.31114695 C48.9418476,5.99702381 50.4662146,5.33997207 52.3094597,5.33997207 C54.3798346,5.33997207 56.0133968,6.02778876 57.2101957,7.40344277 C58.4069947,8.77909678 58.9791781,10.8864968 58.9267636,13.725706 L49.701849,13.725706 C49.7280561,14.8244712 50.0250676,15.6792977 50.5928919,16.2902111 C51.1607162,16.9011246 51.8683019,17.2065767 52.7156705,17.2065767 C53.2922306,17.2065767 53.7770578,17.0483569 54.1701669,16.7319125 C54.5632762,16.4154682 54.8602874,15.9056488 55.0612098,15.202439 Z M55.2708671,11.457866 C55.2446598,10.3854712 54.9694876,9.57019968 54.4453419,9.01202697 C53.9211965,8.45385425 53.2834956,8.17477207 52.5322205,8.17477207 C51.7285308,8.17477207 51.064623,8.46923674 50.5404776,9.05817488 C50.0163319,9.64711299 49.758631,10.4470021 49.7673669,11.457866 L55.2708671,11.457866 Z M74.5855323,19.6590083 L70.9034285,19.6590083 L70.9034285,12.5126753 C70.9034285,11.0007744 70.8248079,10.0228881 70.6675642,9.57898696 C70.5103207,9.13508583 70.2548035,8.79007874 69.9010053,8.54395532 C69.547207,8.29783193 69.1213453,8.17477207 68.623407,8.17477207 C67.9856967,8.17477207 67.4135131,8.35057187 66.9068391,8.70217672 C66.400165,9.0537816 66.0529239,9.51965103 65.8651051,10.0997991 C65.6772863,10.6799471 65.5833782,11.7523258 65.5833782,13.3169674 L65.5833782,19.6590083 L61.9012746,19.6590083 L61.9012746,5.65641487 L65.3213068,5.65641487 L65.3213068,7.71329302 C66.5355772,6.13107115 68.0643121,5.33997207 69.907557,5.33997207 C70.7199825,5.33997207 71.4625109,5.48720442 72.1351642,5.78167348 C72.8078177,6.07614254 73.3166679,6.4519146 73.6617304,6.90900091 C74.0067929,7.36608724 74.2470227,7.88469662 74.3824268,8.46484465 C74.5178311,9.04499266 74.5855323,9.87564668 74.5855323,10.9568316 L74.5855323,19.6590083 Z M16.2484295,47.9601278 C17.200627,48.6457573 18.2357988,49.1907366 19.3539759,49.5950822 L17.9256866,52.3507717 C17.3403908,52.1749691 16.7682072,51.9332444 16.2091187,51.6255902 C16.086818,51.5640593 15.2263588,50.99271 13.6277149,49.911525 C12.3697658,50.4653028 10.9764333,50.7421873 9.44767537,50.7421873 C6.49498913,50.7421873 4.18223179,49.8675833 2.50933407,48.1183492 C0.83643632,46.3691151 0,43.912313 0,40.7478693 C0,37.5922156 0.838620241,35.1376112 2.51588585,33.3839818 C4.19315146,31.6303527 6.46878238,30.7535512 9.3428468,30.7535512 C12.1907042,30.7535512 14.4488638,31.6303527 16.1173937,33.3839818 C17.7859234,35.1376112 18.6201759,37.5922156 18.6201759,40.7478693 C18.6201759,42.4179923 18.3886817,43.8859205 17.9256866,45.1516982 C17.5762562,46.1186115 17.0171761,47.0547455 16.2484295,47.9601278 Z M13.1297792,45.7582134 C13.6277175,45.1692753 14.0011655,44.4572863 14.2501347,43.6222246 C14.4991038,42.7871632 14.6235864,41.8290543 14.6235864,40.7478693 C14.6235864,38.5151785 14.1343912,36.8472778 13.1559863,35.7441177 C12.1775815,34.6409573 10.8978121,34.0893857 9.31663965,34.0893857 C7.73546749,34.0893857 6.45351416,34.6431548 5.47074135,35.7507102 C4.48796854,36.8582654 3.99658948,38.5239686 3.99658948,40.7478693 C3.99658948,43.0069304 4.48796854,44.696806 5.47074135,45.8175465 C6.45351416,46.938287 7.69615716,47.4986487 9.19870751,47.4986487 C9.75779617,47.4986487 10.2863016,47.4063539 10.7842399,47.2217615 C9.99802151,46.7031441 9.19871159,46.2988046 8.38628614,46.0087307 L9.47388251,43.780446 C10.7493033,44.2199521 11.9679235,44.8792014 13.1297792,45.7582134 Z M30.7933943,50.4125594 L30.7933943,48.3161259 C30.2867204,49.0632863 29.6206289,49.6522157 28.7950996,50.0829315 C27.9695705,50.5136475 27.0981917,50.7290022 26.1809369,50.7290022 C25.2462109,50.7290022 24.4075907,50.5224376 23.6650512,50.1093019 C22.9225117,49.696166 22.3852706,49.1160269 22.0533119,48.3688665 C21.7213529,47.6217062 21.5553762,46.5888824 21.5553762,45.2703641 L21.5553762,36.409966 L25.2374798,36.409966 L25.2374798,42.8443027 C25.2374798,44.81329 25.305181,46.0197161 25.4405852,46.4636172 C25.5759895,46.9075183 25.8227708,47.2591179 26.1809369,47.5184264 C26.539103,47.7777351 26.9933558,47.9073874 27.5437086,47.9073874 C28.172683,47.9073874 28.736131,47.7337852 29.2340693,47.3865754 C29.7320076,47.0393654 30.072697,46.6086561 30.2561479,46.0944338 C30.4395988,45.5802117 30.5313229,44.3210459 30.5313229,42.3168981 L30.5313229,36.409966 L34.2134267,36.409966 L34.2134267,50.4125594 L30.7933943,50.4125594 Z M40.7783163,40.6819438 L37.4369053,40.0754284 C37.8125431,38.7217496 38.4589794,37.7196908 39.3762342,37.0692218 C40.2934887,36.4187528 41.6562466,36.0935232 43.4645485,36.0935232 C45.1068713,36.0935232 46.3298591,36.2891005 47.1335487,36.680261 C47.9372386,37.0714213 48.5028704,37.5680557 48.8304614,38.1701791 C49.1580524,38.7723024 49.3218452,39.8776435 49.3218452,41.4862359 L49.2825345,45.810954 C49.2825345,47.041571 49.3415,47.9491374 49.4594328,48.5336805 C49.5773656,49.1182235 49.7979402,49.7445103 50.1211633,50.4125594 L46.4783702,50.4125594 C46.3822768,50.166436 46.264346,49.8016516 46.1245737,49.3181949 C46.0634234,49.0984418 46.0197452,48.953407 45.993538,48.883086 C45.3645634,49.4983945 44.6919202,49.9598691 43.975588,50.2675233 C43.2592556,50.5751776 42.4948883,50.7290022 41.6824628,50.7290022 C40.2497984,50.7290022 39.1207185,50.3378477 38.2951894,49.5555269 C37.4696603,48.7732061 37.0569018,47.7843324 37.0569018,46.5888759 C37.0569018,45.7977648 37.2447178,45.0923683 37.6203553,44.4726645 C37.9959931,43.852961 38.5223146,43.3783016 39.1993358,43.048672 C39.8763571,42.7190426 40.8525636,42.4311703 42.1279842,42.1850469 C43.8489286,41.8598126 45.0413418,41.5565579 45.7052594,41.2752738 L45.7052594,40.9060907 C45.7052594,40.1940908 45.5305468,39.6864688 45.1811166,39.3832098 C44.8316861,39.0799506 44.1721463,38.9283233 43.2024771,38.9283233 C42.5472953,38.9283233 42.0362611,39.0579757 41.6693592,39.3172841 C41.3024575,39.5765928 41.005446,40.0314748 40.7783163,40.6819438 Z M45.7052594,43.6881501 C45.2335285,43.8463724 44.4866322,44.0353573 43.4645485,44.2551102 C42.4424647,44.4748631 41.7741893,44.690218 41.459702,44.9011809 C40.9792352,45.2439956 40.7390056,45.6791002 40.7390056,46.2065074 C40.7390056,46.7251245 40.9311893,47.1734139 41.3155628,47.5513894 C41.6999362,47.9293646 42.1891313,48.1183492 42.7831628,48.1183492 C43.4470804,48.1183492 44.0804136,47.8985995 44.6831809,47.4590935 C45.1287044,47.1250688 45.4213479,46.7163344 45.5611202,46.2328776 C45.6572135,45.9164333 45.7052594,45.314319 45.7052594,44.4265167 L45.7052594,43.6881501 Z M56.4763957,50.4125594 L52.7942919,50.4125594 L52.7942919,36.409966 L56.2143243,36.409966 L56.2143243,38.4009185 C56.7996201,37.4603756 57.3259415,36.8406814 57.7933046,36.5418172 C58.2606678,36.2429531 58.7913572,36.0935232 59.3853886,36.0935232 C60.2240215,36.0935232 61.032067,36.326458 61.8095496,36.7923343 L60.6695386,40.022688 C60.0492998,39.6183424 59.4727485,39.4161726 58.9398672,39.4161726 C58.4244574,39.4161726 57.9876761,39.5590099 57.62951,39.8446887 C57.2713439,40.1303678 56.9896198,40.6467796 56.7843295,41.3939399 C56.5790393,42.1411003 56.4763957,43.7057183 56.4763957,46.0878413 L56.4763957,50.4125594 Z M69.7765213,36.409966 L69.7765213,39.363432 L67.2606356,39.363432 L67.2606356,45.0066619 C67.2606356,46.1493776 67.2846585,46.8152194 67.3327051,47.0042069 C67.3807519,47.1931946 67.4899471,47.3492168 67.6602944,47.4722786 C67.8306417,47.5953403 68.0381129,47.6568701 68.2827141,47.6568701 C68.6234087,47.6568701 69.1169716,47.5382053 69.7634177,47.3008721 L70.0779035,50.1752274 C69.2217991,50.5444125 68.2521444,50.7290022 67.1689106,50.7290022 C66.5049929,50.7290022 65.9066023,50.6169299 65.373721,50.3927818 C64.8408397,50.1686338 64.4499204,49.878564 64.2009515,49.5225642 C63.9519823,49.1665641 63.7794537,48.6853124 63.6833603,48.0787939 C63.6047384,47.6480779 63.5654282,46.777869 63.5654282,45.468141 L63.5654282,39.363432 L61.8750674,39.363432 L61.8750674,36.409966 L63.5654282,36.409966 L63.5654282,33.6279066 L67.2606356,31.4655474 L67.2606356,36.409966 L69.7765213,36.409966 Z M80.3904147,45.9559903 L84.059415,46.5756906 C83.5876838,47.9293693 82.8429717,48.9599956 81.8252559,49.6676005 C80.8075399,50.3752053 79.5343224,50.7290022 78.0055645,50.7290022 C75.5857594,50.7290022 73.7949559,49.9335082 72.6331001,48.3424963 C71.7158454,47.0679286 71.2572249,45.4593604 71.2572249,43.5167436 C71.2572249,41.1961516 71.8599832,39.3788213 73.065518,38.064698 C74.2710526,36.750575 75.7954196,36.0935232 77.6386645,36.0935232 C79.7090393,36.0935232 81.3426017,36.78134 82.5394005,38.156994 C83.7361994,39.5326479 84.3083831,41.6400479 84.2559685,44.4792571 L75.0310537,44.4792571 C75.0572611,45.5780224 75.3542723,46.4328487 75.9220966,47.0437622 C76.4899209,47.6546757 77.1975067,47.9601278 78.0448752,47.9601278 C78.6214353,47.9601278 79.1062628,47.801908 79.4993718,47.4854637 C79.8924809,47.1690193 80.1894924,46.6591999 80.3904147,45.9559903 Z M80.6000719,42.2114171 C80.5738645,41.1390224 80.2986923,40.3237508 79.7745469,39.7655781 C79.2504014,39.2074055 78.6127006,38.9283233 77.8614252,38.9283233 C77.0577355,38.9283233 76.3938277,39.2227879 75.8696823,39.811726 C75.3455369,40.4006643 75.0878357,41.2005533 75.0965716,42.2114171 L80.6000719,42.2114171 Z M90.7815474,50.4125594 L87.0994436,50.4125594 L87.0994436,36.409966 L90.519476,36.409966 L90.519476,38.4009185 C91.1047718,37.4603756 91.6310932,36.8406814 92.0984562,36.5418172 C92.5658195,36.2429531 93.0965089,36.0935232 93.6905403,36.0935232 C94.5291732,36.0935232 95.3372187,36.326458 96.1147013,36.7923343 L94.9746903,40.022688 C94.3544515,39.6183424 93.7779002,39.4161726 93.2450189,39.4161726 C92.7296091,39.4161726 92.2928278,39.5590099 91.9346617,39.8446887 C91.5764956,40.1303678 91.2947715,40.6467796 91.0894812,41.3939399 C90.8841909,42.1411003 90.7815474,43.7057183 90.7815474,46.0878413 L90.7815474,50.4125594 Z M13.0773649,74.059333 L16.8380902,75.2591787 C16.26153,77.3688078 15.302795,78.9356234 13.9618561,79.9596725 C12.6209172,80.9837217 10.9196536,81.4957385 8.85801473,81.4957385 C6.30717329,81.4957385 4.2106227,80.6189372 2.56830014,78.8653078 C0.92597755,77.1116787 0.104828573,74.7142089 0.104828573,71.6728269 C0.104828573,68.4556426 0.930345371,65.957088 2.58140371,64.1770883 C4.23246205,62.3970887 6.40326544,61.5071024 9.09387902,61.5071024 C11.443798,61.5071024 13.3525326,62.2059065 14.8201399,63.6035358 C15.6937158,64.4298072 16.3488879,65.6164559 16.7856759,67.1635172 L12.9463292,68.0864754 C12.7191995,67.0844014 12.2452917,66.2933024 11.5245916,65.7131544 C10.8038915,65.1330064 9.92814496,64.8429368 8.89732545,64.8429368 C7.47339683,64.8429368 6.31811011,65.3571511 5.43143064,66.3855953 C4.54475116,67.4140395 4.10141806,69.0797426 4.10141806,71.3827543 C4.10141806,73.8264081 4.53819944,75.5668262 5.41177528,76.6040604 C6.28535112,77.6412947 7.42098267,78.1599042 8.81870402,78.1599042 C9.84952353,78.1599042 10.7361897,77.8302796 11.4787292,77.1710203 C12.2212687,76.5117613 12.7541418,75.4745426 13.0773649,74.059333 Z M19.2884581,73.9670371 C19.2884581,72.7364201 19.5898372,71.5453766 20.1926045,70.3938706 C20.7953718,69.2423647 21.6492795,68.3633659 22.7543529,67.7568475 C23.8594264,67.1503291 25.0933338,66.8470744 26.4561119,66.8470744 C28.5614298,66.8470744 30.2867163,67.5348912 31.6320229,68.9105451 C32.9773297,70.286199 33.6499732,72.0244196 33.6499732,74.1252585 C33.6499732,76.2436779 32.9707781,77.9994782 31.6123677,79.3927124 C30.2539573,80.7859467 28.5439581,81.4825534 26.4823191,81.4825534 C25.2068985,81.4825534 23.9904623,81.1924838 22.8329743,80.6123358 C21.6754865,80.0321878 20.7953718,79.1817563 20.1926045,78.0610158 C19.5898372,76.9402753 19.2884581,75.5756295 19.2884581,73.9670371 Z M23.0622869,74.164814 C23.0622869,75.5536532 23.389873,76.6172419 24.0450548,77.3556121 C24.7002366,78.0939822 25.5082821,78.4631619 26.4692155,78.4631619 C27.4301491,78.4631619 28.2360107,78.0939822 28.8868246,77.3556121 C29.5376387,76.6172419 29.8630408,75.5448632 29.8630408,74.1384438 C29.8630408,72.7671847 29.5376387,71.7123859 28.8868246,70.9740158 C28.2360107,70.2356456 27.4301491,69.866466 26.4692155,69.866466 C25.5082821,69.866466 24.7002366,70.2356456 24.0450548,70.9740158 C23.389873,71.7123859 23.0622869,72.7759747 23.0622869,74.164814 Z M36.2575839,67.1635172 L39.6514092,67.1635172 L39.6514092,69.0753591 C40.8656796,67.5898284 42.3114258,66.8470744 43.9886916,66.8470744 C44.8797387,66.8470744 45.6528419,67.0316643 46.3080237,67.4008492 C46.9632055,67.7700343 47.5004466,68.3281987 47.919763,69.0753591 C48.5312662,68.3281987 49.190806,67.7700343 49.8984026,67.4008492 C50.6059989,67.0316643 51.3616306,66.8470744 52.1653205,66.8470744 C53.1874042,66.8470744 54.0522313,67.0558367 54.7598276,67.4733674 C55.4674241,67.8908981 55.9959296,68.504 56.34536,69.312691 C56.5986969,69.9104194 56.7253636,70.8773182 56.7253636,72.2134168 L56.7253636,81.1661106 L53.0432597,81.1661106 L53.0432597,73.162745 C53.0432597,71.773906 52.9165933,70.8773271 52.6632562,70.4729814 C52.3225616,69.945574 51.7984239,69.6818745 51.0908276,69.6818745 C50.5754178,69.6818745 50.0905904,69.8400941 49.6363311,70.1565386 C49.1820717,70.472983 48.8544856,70.9366548 48.6535631,71.5475683 C48.4526407,72.1584817 48.3521809,73.1231832 48.3521809,74.4417013 L48.3521809,81.1661106 L44.6700773,81.1661106 L44.6700773,73.4923731 C44.6700773,72.1299043 44.6045601,71.2509053 44.4735237,70.8553497 C44.3424874,70.4597942 44.1393838,70.1653296 43.8642075,69.971947 C43.5890312,69.7785643 43.215583,69.6818745 42.7438521,69.6818745 C42.1760278,69.6818745 41.6649936,69.8356993 41.2107342,70.1433535 C40.7564747,70.4510078 40.4310726,70.8949022 40.234518,71.4750502 C40.0379636,72.0551982 39.9396877,73.017702 39.9396877,74.3625907 L39.9396877,81.1661106 L36.2575839,81.1661106 L36.2575839,67.1635172 Z M60.1191886,67.1635172 L63.5130139,67.1635172 L63.5130139,69.0753591 C64.7272843,67.5898284 66.1730305,66.8470744 67.8502963,66.8470744 C68.7413437,66.8470744 69.5144466,67.0316643 70.1696285,67.4008492 C70.8248103,67.7700343 71.3620515,68.3281987 71.7813678,69.0753591 C72.3928709,68.3281987 73.0524108,67.7700343 73.7600073,67.4008492 C74.4676036,67.0316643 75.2232355,66.8470744 76.0269252,66.8470744 C77.0490089,66.8470744 77.913836,67.0558367 78.6214326,67.4733674 C79.3290289,67.8908981 79.8575343,68.504 80.2069647,69.312691 C80.4603016,69.9104194 80.5869683,70.8773182 80.5869683,72.2134168 L80.5869683,81.1661106 L76.9048645,81.1661106 L76.9048645,73.162745 C76.9048645,71.773906 76.778198,70.8773271 76.5248609,70.4729814 C76.1841663,69.945574 75.6600288,69.6818745 74.9524323,69.6818745 C74.4370225,69.6818745 73.9521953,69.8400941 73.4979358,70.1565386 C73.0436764,70.472983 72.7160903,70.9366548 72.515168,71.5475683 C72.3142454,72.1584817 72.2137856,73.1231832 72.2137856,74.4417013 L72.2137856,81.1661106 L68.531682,81.1661106 L68.531682,73.4923731 C68.531682,72.1299043 68.4661648,71.2509053 68.3351284,70.8553497 C68.2040921,70.4597942 68.0009888,70.1653296 67.7258122,69.971947 C67.450636,69.7785643 67.0771879,69.6818745 66.6054568,69.6818745 C66.0376327,69.6818745 65.5265983,69.8356993 65.0723389,70.1433535 C64.6180794,70.4510078 64.2926773,70.8949022 64.0961229,71.4750502 C63.8995683,72.0551982 63.8012924,73.017702 63.8012924,74.3625907 L63.8012924,81.1661106 L60.1191886,81.1661106 L60.1191886,67.1635172 Z M93.4153653,81.1661106 L93.4153653,79.0696771 C92.9086914,79.8168374 92.2425998,80.4057669 91.4170705,80.8364827 C90.5915414,81.2671987 89.7201626,81.4825534 88.8029079,81.4825534 C87.8681819,81.4825534 87.0295617,81.2759888 86.2870221,80.8628531 C85.5444826,80.4497172 85.0072416,79.869578 84.6752828,79.1224177 C84.3433239,78.3752574 84.1773471,77.3424335 84.1773471,76.0239152 L84.1773471,67.1635172 L87.8594507,67.1635172 L87.8594507,73.5978539 C87.8594507,75.5668411 87.9271519,76.7732673 88.0625562,77.2171684 C88.1979605,77.6610695 88.4447418,78.0126691 88.8029079,78.2719776 C89.161074,78.5312862 89.6153267,78.6609386 90.1656795,78.6609386 C90.794654,78.6609386 91.358102,78.4873363 91.8560403,78.1401266 C92.3539786,77.7929166 92.694668,77.3622073 92.8781189,76.847985 C93.0615697,76.3337629 93.1532939,75.074597 93.1532939,73.0704493 L93.1532939,67.1635172 L96.8353977,67.1635172 L96.8353977,81.1661106 L93.4153653,81.1661106 Z M113.306588,81.1661106 L109.624484,81.1661106 L109.624484,74.0197777 C109.624484,72.5078767 109.545863,71.5299905 109.38862,71.0860894 C109.231376,70.642188 108.975859,70.297181 108.622061,70.0510576 C108.268263,69.8049343 107.842401,69.6818745 107.344463,69.6818745 C106.706752,69.6818745 106.134569,69.8576742 105.627894,70.209279 C105.121221,70.5608838 104.773979,71.0267534 104.586161,71.6069014 C104.398342,72.1870494 104.304434,73.2594281 104.304434,74.8240698 L104.304434,81.1661106 L100.62233,81.1661106 L100.62233,67.1635172 L104.042362,67.1635172 L104.042362,69.2203954 C105.256633,67.6381734 106.785367,66.8470744 108.628613,66.8470744 C109.441038,66.8470744 110.183566,66.9943067 110.85622,67.2887758 C111.528873,67.5832448 112.037723,67.9590168 112.382786,68.4161033 C112.727848,68.8731895 112.968078,69.391799 113.103482,69.971947 C113.238887,70.5520951 113.306588,71.3827489 113.306588,72.4639339 L113.306588,81.1661106 Z M117.041106,65.2648604 L117.041106,61.8367303 L120.72321,61.8367303 L120.72321,65.2648604 L117.041106,65.2648604 Z M117.041106,81.1661106 L117.041106,67.1635172 L120.72321,67.1635172 L120.72321,81.1661106 L117.041106,81.1661106 Z M130.878478,67.1635172 L130.878478,70.1169831 L128.362592,70.1169831 L128.362592,75.7602131 C128.362592,76.9029287 128.386615,77.5687706 128.434662,77.7577581 C128.482708,77.9467458 128.591904,78.1027679 128.762251,78.2258297 C128.932598,78.3488915 129.140069,78.4104213 129.384671,78.4104213 C129.725365,78.4104213 130.218928,78.2917565 130.865374,78.0544232 L131.17986,80.9287786 C130.323756,81.2979637 129.354101,81.4825534 128.270867,81.4825534 C127.606949,81.4825534 127.008559,81.3704811 126.475678,81.1463329 C125.942796,80.9221849 125.551877,80.6321152 125.302908,80.2761153 C125.053939,79.9201153 124.88141,79.4388635 124.785317,78.8323451 C124.706695,78.4016291 124.667385,77.5314201 124.667385,76.2216921 L124.667385,70.1169831 L122.977024,70.1169831 L122.977024,67.1635172 L124.667385,67.1635172 L124.667385,64.3814577 L128.362592,62.2190986 L128.362592,67.1635172 L130.878478,67.1635172 Z M131.690899,67.1635172 L135.608868,67.1635172 L138.937175,77.1050948 L142.186861,67.1635172 L146,67.1635172 L141.086161,80.638706 L140.208221,83.0779524 C139.884998,83.8954337 139.577067,84.519523 139.284419,84.950239 C138.991771,85.380955 138.65545,85.7303571 138.275444,85.9984558 C137.895439,86.2665544 137.428083,86.4753167 136.873362,86.6247489 C136.318642,86.7741809 135.69186,86.8488958 134.992999,86.8488958 C134.285403,86.8488958 133.590921,86.7741809 132.909532,86.6247489 L132.581942,83.7240231 C133.158502,83.8382948 133.678272,83.8954296 134.141267,83.8954296 C134.997372,83.8954296 135.630705,83.6427176 136.041285,83.1372856 C136.451866,82.6318536 136.766348,81.9879869 136.984743,81.2056661 L131.690899,67.1635172 Z M0.786214338,111.919662 L0.786214338,92.5902814 L15.0297971,92.5902814 L15.0297971,95.8601902 L4.66487166,95.8601902 L4.66487166,100.145353 L14.3091006,100.145353 L14.3091006,103.402077 L4.66487166,103.402077 L4.66487166,108.662938 L15.3966973,108.662938 L15.3966973,111.919662 L0.786214338,111.919662 Z M31.3175372,111.919662 L27.6354336,111.919662 L27.6354336,104.773329 C27.6354336,103.261428 27.5568128,102.283542 27.3995693,101.839641 C27.2423256,101.395739 26.9868084,101.050732 26.6330103,100.804609 C26.2792121,100.558485 25.8533502,100.435426 25.3554119,100.435426 C24.7177016,100.435426 24.145518,100.611225 23.638844,100.96283 C23.1321701,101.314435 22.7849288,101.780305 22.59711,102.360453 C22.4092912,102.940601 22.3153833,104.012979 22.3153833,105.577621 L22.3153833,111.919662 L18.6332795,111.919662 L18.6332795,97.9170683 L22.0533119,97.9170683 L22.0533119,99.9739465 C23.2675821,98.3917245 24.796317,97.6006255 26.6395619,97.6006255 C27.4519877,97.6006255 28.1945158,97.7478578 28.8671693,98.042327 C29.5398226,98.3367959 30.048673,98.712568 30.3937355,99.1696544 C30.7387978,99.6267407 30.9790277,100.14535 31.114432,100.725498 C31.2498362,101.305646 31.3175372,102.1363 31.3175372,103.217485 L31.3175372,111.919662 Z M43.1107521,107.463093 L46.7797523,108.082793 C46.3080214,109.436472 45.5633091,110.467098 44.5455933,111.174703 C43.5278774,111.882308 42.2546597,112.236105 40.725902,112.236105 C38.306097,112.236105 36.5152934,111.44061 35.3534375,109.849599 C34.4361829,108.575031 33.9775624,106.966463 33.9775624,105.023846 C33.9775624,102.703254 34.5803207,100.885924 35.7858553,99.5718004 C36.9913899,98.2576773 38.5157569,97.6006255 40.359002,97.6006255 C42.4293767,97.6006255 44.0629391,98.2884423 45.259738,99.6640963 C46.4565368,101.03975 47.0287204,103.14715 46.9763059,105.986359 L37.7513911,105.986359 C37.7775984,107.085125 38.0746098,107.939951 38.6424341,108.550865 C39.2102584,109.161778 39.9178442,109.46723 40.7652127,109.46723 C41.3417727,109.46723 41.8266001,109.30901 42.2197092,108.992566 C42.6128183,108.676122 42.9098297,108.166302 43.1107521,107.463093 Z M43.3204092,103.718519 C43.2942021,102.646125 43.0190299,101.830853 42.4948842,101.27268 C41.9707388,100.714508 41.3330379,100.435426 40.5817627,100.435426 C39.7780729,100.435426 39.1141653,100.72989 38.5900199,101.318828 C38.0658742,101.907767 37.8081733,102.707656 37.8169089,103.718519 L43.3204092,103.718519 Z M53.5018848,111.919662 L49.8197811,111.919662 L49.8197811,97.9170683 L53.2398133,97.9170683 L53.2398133,99.9080208 C53.8251091,98.9674779 54.3514308,98.3477837 54.8187938,98.0489195 C55.2861568,97.7500554 55.8168462,97.6006255 56.4108779,97.6006255 C57.2495105,97.6006255 58.0575561,97.8335603 58.8350386,98.2994366 L57.6950279,101.52979 C57.0747891,101.125445 56.4982375,100.923275 55.9653564,100.923275 C55.4499466,100.923275 55.0131651,101.066112 54.6549991,101.351791 C54.296833,101.63747 54.0151091,102.153882 53.8098188,102.901042 C53.6045285,103.648203 53.5018848,105.212821 53.5018848,107.594944 L53.5018848,111.919662 Z M60.0798779,112.84262 L64.2861246,113.356839 C64.3560106,113.849086 64.5176199,114.187501 64.7709567,114.372093 C65.1203872,114.635797 65.6707316,114.767647 66.4220068,114.767647 C67.3829404,114.767647 68.1036295,114.622612 68.5840963,114.332538 C68.9073194,114.139155 69.1519169,113.827111 69.3178963,113.396395 C69.4314612,113.088741 69.4882427,112.521786 69.4882427,111.695515 L69.4882427,109.651822 C68.3875371,111.163723 66.9985725,111.919662 65.3213068,111.919662 C63.4518545,111.919662 61.9711657,111.124168 60.8791958,109.533156 C60.0230916,108.276168 59.5950458,106.71155 59.5950458,104.839254 C59.5950458,102.492292 60.1563098,100.699134 61.2788548,99.459727 C62.4013998,98.2203198 63.7969164,97.6006255 65.465446,97.6006255 C67.1863904,97.6006255 68.6059299,98.3609597 69.724107,99.8816506 L69.724107,97.9170683 L73.1703466,97.9170683 L73.1703466,110.482484 C73.1703466,112.135027 73.0349442,113.370021 72.7641358,114.187502 C72.4933273,115.004983 72.1133273,115.646652 71.6241249,116.112529 C71.1349225,116.578405 70.4819343,116.94319 69.6651411,117.206893 C68.8483476,117.470597 67.8153595,117.602447 66.5661461,117.602447 C64.2074913,117.602447 62.5346187,117.19591 61.5474781,116.382824 C60.5603374,115.569737 60.0667743,114.539111 60.0667743,113.290914 C60.0667743,113.167852 60.0711423,113.018422 60.0798779,112.84262 Z M63.3688746,104.628293 C63.3688746,106.113823 63.6549664,107.201584 64.2271586,107.891609 C64.7993506,108.581633 65.5047527,108.92664 66.3433853,108.92664 C67.2431686,108.92664 68.0031682,108.572843 68.623407,107.865239 C69.2436458,107.157634 69.5537606,106.109427 69.5537606,104.720588 C69.5537606,103.270218 69.2567492,102.193445 68.6627177,101.490235 C68.0686861,100.787025 67.3174221,100.435426 66.4089032,100.435426 C65.5265917,100.435426 64.7993506,100.780433 64.2271586,101.470457 C63.6549664,102.160482 63.3688746,103.213083 63.3688746,104.628293 Z M75.0703644,97.9170683 L78.9883326,97.9170683 L82.3166397,107.858646 L85.5663257,97.9170683 L89.379465,97.9170683 L84.4656257,111.392257 L83.5876862,113.831504 C83.2644633,114.648985 82.9565323,115.273074 82.6638845,115.70379 C82.3712365,116.134506 82.034915,116.483908 81.6549095,116.752007 C81.274904,117.020106 80.8075478,117.228868 80.2528271,117.3783 C79.6981066,117.527732 79.0713254,117.602447 78.3724647,117.602447 C77.6648682,117.602447 76.9703858,117.527732 76.2889966,117.3783 L75.9614073,114.477574 C76.5379675,114.591846 77.0577372,114.648981 77.5207323,114.648981 C78.3768367,114.648981 79.0101696,114.396269 79.4207504,113.890837 C79.831331,113.385405 80.1458135,112.741538 80.3642076,111.959217 L75.0703644,97.9170683 Z M13.0773649,135.566435 L16.8380902,136.766281 C16.26153,138.87591 15.302795,140.442726 13.9618561,141.466775 C12.6209172,142.490824 10.9196536,143.002841 8.85801473,143.002841 C6.30717329,143.002841 4.2106227,142.12604 2.56830014,140.37241 C0.92597755,138.618781 0.104828573,136.221311 0.104828573,133.179929 C0.104828573,129.962745 0.930345371,127.46419 2.58140371,125.684191 C4.23246205,123.904191 6.40326544,123.014205 9.09387902,123.014205 C11.443798,123.014205 13.3525326,123.713009 14.8201399,125.110638 C15.6937158,125.93691 16.3488879,127.123558 16.7856759,128.67062 L12.9463292,129.593578 C12.7191995,128.591504 12.2452917,127.800405 11.5245916,127.220257 C10.8038915,126.640109 9.92814496,126.350039 8.89732545,126.350039 C7.47339683,126.350039 6.31811011,126.864253 5.43143064,127.892698 C4.54475116,128.921142 4.10141806,130.586845 4.10141806,132.889857 C4.10141806,135.33351 4.53819944,137.073929 5.41177528,138.111163 C6.28535112,139.148397 7.42098267,139.667007 8.81870402,139.667007 C9.84952353,139.667007 10.7361897,139.337382 11.4787292,138.678123 C12.2212687,138.018864 12.7541418,136.981645 13.0773649,135.566435 Z M19.2884581,135.474139 C19.2884581,134.243522 19.5898372,133.052479 20.1926045,131.900973 C20.7953718,130.749467 21.6492795,129.870468 22.7543529,129.26395 C23.8594264,128.657431 25.0933338,128.354177 26.4561119,128.354177 C28.5614298,128.354177 30.2867163,129.041994 31.6320229,130.417647 C32.9773297,131.793301 33.6499732,133.531522 33.6499732,135.632361 C33.6499732,137.75078 32.9707781,139.50658 31.6123677,140.899815 C30.2539573,142.293049 28.5439581,142.989656 26.4823191,142.989656 C25.2068985,142.989656 23.9904623,142.699586 22.8329743,142.119438 C21.6754865,141.53929 20.7953718,140.688859 20.1926045,139.568118 C19.5898372,138.447378 19.2884581,137.082732 19.2884581,135.474139 Z M23.0622869,135.671916 C23.0622869,137.060756 23.389873,138.124344 24.0450548,138.862714 C24.7002366,139.601085 25.5082821,139.970264 26.4692155,139.970264 C27.4301491,139.970264 28.2360107,139.601085 28.8868246,138.862714 C29.5376387,138.124344 29.8630408,137.051965 29.8630408,135.645546 C29.8630408,134.274287 29.5376387,133.219488 28.8868246,132.481118 C28.2360107,131.742748 27.4301491,131.373568 26.4692155,131.373568 C25.5082821,131.373568 24.7002366,131.742748 24.0450548,132.481118 C23.389873,133.219488 23.0622869,134.283077 23.0622869,135.671916 Z M36.1134446,137.517832 L36.1134446,133.812815 L43.3466163,133.812815 L43.3466163,137.517832 L36.1134446,137.517832 Z M44.617663,135.474139 C44.617663,134.243522 44.9190421,133.052479 45.5218094,131.900973 C46.1245767,130.749467 46.9784843,129.870468 48.0835578,129.26395 C49.1886311,128.657431 50.4225386,128.354177 51.7853169,128.354177 C53.8906347,128.354177 55.615921,129.041994 56.9612279,130.417647 C58.3065347,131.793301 58.9791779,133.531522 58.9791779,135.632361 C58.9791779,137.75078 58.2999828,139.50658 56.9415724,140.899815 C55.583162,142.293049 53.873163,142.989656 51.811524,142.989656 C50.5361032,142.989656 49.3196673,142.699586 48.1621792,142.119438 C47.0046912,141.53929 46.1245767,140.688859 45.5218094,139.568118 C44.9190421,138.447378 44.617663,137.082732 44.617663,135.474139 Z M48.3914916,135.671916 C48.3914916,137.060756 48.7190777,138.124344 49.3742595,138.862714 C50.0294415,139.601085 50.8374871,139.970264 51.7984204,139.970264 C52.7593538,139.970264 53.5652154,139.601085 54.2160295,138.862714 C54.8668434,138.124344 55.1922455,137.051965 55.1922455,135.645546 C55.1922455,134.274287 54.8668434,133.219488 54.2160295,132.481118 C53.5652154,131.742748 52.7593538,131.373568 51.7984204,131.373568 C50.8374871,131.373568 50.0294415,131.742748 49.3742595,132.481118 C48.7190777,133.219488 48.3914916,134.283077 48.3914916,135.671916 Z M61.7571353,128.67062 L65.190271,128.67062 L65.190271,130.727498 C65.6357948,130.024288 66.2385531,129.452939 66.9985641,129.013432 C67.7585749,128.573926 68.6015631,128.354177 69.5275534,128.354177 C71.1436688,128.354177 72.5151622,128.991451 73.6420751,130.266019 C74.7689879,131.540586 75.3324359,133.316164 75.3324359,135.592805 C75.3324359,137.930978 74.7646202,139.748308 73.6289716,141.044851 C72.493323,142.341394 71.1174617,142.989656 69.5013463,142.989656 C68.7325996,142.989656 68.0359333,142.835831 67.4113265,142.528177 C66.7867198,142.220523 66.1293639,141.693123 65.4392389,140.945963 L65.4392389,148 L61.7571353,148 L61.7571353,128.67062 Z M65.3999282,135.434584 C65.3999282,137.008016 65.710043,138.170492 66.3302818,138.922047 C66.9505208,139.673603 67.7061525,140.049375 68.5971999,140.049375 C69.4533042,140.049375 70.1652577,139.704368 70.733082,139.014343 C71.3009063,138.324319 71.5848142,137.192608 71.5848142,135.619176 C71.5848142,134.151225 71.2921707,133.061267 70.7068749,132.349267 C70.1215791,131.637267 69.396522,131.281272 68.531682,131.281272 C67.6318988,131.281272 66.8850027,131.630675 66.290971,132.329489 C65.6969396,133.028304 65.3999282,134.063325 65.3999282,135.434584 Z" id="Green-Quarter-Commun"></path>
            <rect id="Rectangle" x="1" y="21" width="76" height="3"></rect>
            <rect id="Rectangle-Copy" x="1" y="52" width="12" height="3"></rect>
            <rect id="Rectangle-Copy-8" x="21" y="52" width="75" height="3"></rect>
            <rect id="Rectangle-Copy-2" x="1" y="83" width="130" height="3"></rect>
            <rect id="Rectangle-Copy-3" x="1" y="113" width="58" height="3"></rect>
            <rect id="Rectangle-Copy-6" x="87" y="113" width="3" height="3"></rect>
            <rect id="Rectangle-Copy-7" x="143" y="83" width="3" height="3"></rect>
            <rect id="Rectangle-Copy-4" x="1" y="144" width="59" height="3"></rect>
            <rect id="Rectangle-Copy-5" x="68" y="144" width="7" height="3"></rect>
        </g>
    </g>
</svg>