<?xml version="1.0" encoding="UTF-8" standalone="no"?>
<svg width="883px" height="1194px" viewBox="0 0 883 1194" version="1.1" xmlns="http://www.w3.org/2000/svg" xmlns:xlink="http://www.w3.org/1999/xlink">
    <!-- Generator: Sketch 43.2 (39069) - http://www.bohemiancoding.com/sketch -->
    <title>Artboard</title>
    <desc>Created with Sketch.</desc>
    <defs></defs>
    <g id="Page-1" stroke="none" stroke-width="1" fill="none" fill-rule="evenodd">
        <g id="Artboard">
            <g id="Green-Quarter-Logo" transform="translate(127.000000, 0.000000)">
                <g id="Group-3" transform="translate(13.871560, 3.468293)">
                    <g id="Group-4" transform="translate(0.000000, 48.556098)" fill="#F8E81C">
                        <g id="Group-2">
                            <ellipse id="Oval" cx="306.908257" cy="306.943902" rx="306.908257" ry="306.943902"></ellipse>
                        </g>
                    </g>
                    <path d="M102.67528,60.7831841 L102.67528,45.7245617 L141.567123,45.7245617 L141.567123,81.3287538 C137.787646,84.986737 132.31155,88.2077462 125.138672,90.9918779 C117.965793,93.7760095 110.701585,95.1680545 103.345829,95.1680545 C93.9987348,95.1680545 85.8506296,93.2069985 78.9012686,89.2848276 C71.9519076,85.3626566 66.7298053,79.7538332 63.234805,72.4581888 C59.7398048,65.1625445 57.9923308,57.2268721 57.9923308,48.6509337 C57.9923308,39.3433986 59.9429994,31.0724161 63.8443951,23.8377382 C67.7457907,16.6030602 73.4555602,11.0552022 80.9738747,7.19399771 C86.7040496,4.22696687 93.8361815,2.7434737 102.370485,2.7434737 C113.465078,2.7434737 122.13133,5.07032258 128.369499,9.72409013 C134.607668,14.3778577 138.620762,20.809715 140.408902,29.0198552 L122.486955,32.3729897 C121.22713,27.9834098 118.859912,24.5185388 115.385232,21.9782727 C111.910551,19.4380065 107.572345,18.1678925 102.370485,18.1678925 C94.4864141,18.1678925 88.2178594,20.6674769 83.5646323,25.6667207 C78.9114052,30.6659644 76.5848265,38.0834302 76.5848265,47.9193407 C76.5848265,58.5274921 78.9418844,66.4834862 83.6560708,71.7875619 C88.3702572,77.0916376 94.5473744,79.7436357 102.187608,79.7436357 C105.967085,79.7436357 109.756665,79.0018891 113.556461,77.5183737 C117.356258,76.0348582 120.617532,74.2363768 123.340381,72.1228754 L123.340381,60.7831841 L102.67528,60.7831841 Z M174.484984,93.6439024 L157.355505,93.6439024 L157.355505,28.897923 L173.265804,28.897923 L173.265804,38.1038014 C175.988653,33.7548658 178.437149,30.8894886 180.611364,29.5075838 C182.785579,28.1256791 185.254394,27.434737 188.017883,27.434737 C191.919278,27.434737 195.678379,28.5117937 199.295298,30.6659394 L193.991865,45.6026296 C191.106458,43.7329937 188.424288,42.7981898 185.945277,42.7981898 C183.547544,42.7981898 181.515597,43.4586491 179.849376,44.7795875 C178.183155,46.1005259 176.87255,48.4883402 175.917521,51.9431021 C174.962492,55.3978641 174.484984,62.6324335 174.484984,73.6470274 L174.484984,93.6439024 Z M244.161124,73.0373666 L261.229644,75.9027725 C259.035109,82.1619882 255.570641,86.927456 250.836135,90.1993188 C246.101628,93.4711816 240.178505,95.1070884 233.066585,95.1070884 C221.809433,95.1070884 213.478453,91.4288382 208.073394,84.0722275 C203.806243,78.1788101 201.672699,70.7410224 201.672699,61.7586414 C201.672699,51.0285572 204.476785,42.6254829 210.085042,36.5491663 C215.693298,30.4728498 222.784791,27.434737 231.359733,27.434737 C240.991304,27.434737 248.590784,30.6151025 254.1584,36.9759289 C259.726017,43.3367553 262.387867,53.08107 262.14403,66.2091654 L219.228892,66.2091654 C219.350811,71.2896977 220.732534,75.2422925 223.374104,78.0670684 C226.015674,80.8918443 229.307427,82.3042111 233.249462,82.3042111 C235.931672,82.3042111 238.187132,81.5726255 240.015912,80.1094322 C241.844691,78.6462389 243.226414,76.2889073 244.161124,73.0373666 Z M245.136468,55.7229992 C245.014549,50.7643997 243.734423,46.9947014 241.296051,44.413791 C238.857678,41.8328806 235.891037,40.5424447 232.396036,40.5424447 C228.657199,40.5424447 225.56864,41.904007 223.130268,44.6271723 C220.691896,47.3503375 219.493047,51.0489096 219.533687,55.7229992 L245.136468,55.7229992 Z M313.593427,73.0373666 L330.661948,75.9027725 C328.467413,82.1619882 325.002944,86.927456 320.268438,90.1993188 C315.533932,93.4711816 309.610808,95.1070884 302.498889,95.1070884 C291.241737,95.1070884 282.910757,91.4288382 277.505698,84.0722275 C273.238547,78.1788101 271.105003,70.7410224 271.105003,61.7586414 C271.105003,51.0285572 273.909089,42.6254829 279.517345,36.5491663 C285.125601,30.4728498 292.217094,27.434737 300.792037,27.434737 C310.423608,27.434737 318.023087,30.6151025 323.590704,36.9759289 C329.158321,43.3367553 331.82017,53.08107 331.576333,66.2091654 L288.661196,66.2091654 C288.783114,71.2896977 290.164838,75.2422925 292.806408,78.0670684 C295.447978,80.8918443 298.739731,82.3042111 302.681766,82.3042111 C305.363976,82.3042111 307.619436,81.5726255 309.448215,80.1094322 C311.276995,78.6462389 312.658718,76.2889073 313.593427,73.0373666 Z M314.568772,55.7229992 C314.446853,50.7643997 313.166727,46.9947014 310.728354,44.413791 C308.289982,41.8328806 305.32334,40.5424447 301.82834,40.5424447 C298.089503,40.5424447 295.000944,41.904007 292.562572,44.6271723 C290.124199,47.3503375 288.925351,51.0489096 288.965991,55.7229992 L314.568772,55.7229992 Z M404.422341,93.6439024 L387.292861,93.6439024 L387.292861,60.6002858 C387.292861,53.6094734 386.927111,49.0878675 386.195599,47.0353325 C385.464088,44.9827975 384.275399,43.3875343 382.629498,42.249495 C380.983596,41.1114558 379.002449,40.5424447 376.685995,40.5424447 C373.719309,40.5424447 371.057459,41.3553177 368.700366,42.981088 C366.343272,44.6068584 364.727875,46.7609717 363.854125,49.4434928 C362.980375,52.1260138 362.543506,57.0845389 362.543506,64.3192168 L362.543506,93.6439024 L345.414027,93.6439024 L345.414027,28.897923 L361.324326,28.897923 L361.324326,38.4086319 C366.973222,31.0926654 374.085035,27.434737 382.659977,27.434737 C386.439454,27.434737 389.893763,28.1155182 393.023007,29.4771008 C396.152252,30.8386834 398.519469,32.5761994 400.124731,34.6897008 C401.729993,36.8032023 402.847564,39.2011775 403.477476,41.8836986 C404.107389,44.5662196 404.422341,48.4070444 404.422341,53.4062881 L404.422341,93.6439024 Z M133.032863,224.504211 C137.462572,227.674463 142.278285,230.194369 147.480146,232.064005 L140.835615,244.805917 C138.112766,243.993031 135.450916,242.875331 132.849986,241.452782 C132.281032,241.168272 128.278098,238.526435 120.841062,233.527191 C114.988969,236.08778 108.50706,237.368054 101.39514,237.368054 C87.6589766,237.368054 76.8998203,233.324011 69.1173488,225.235804 C61.3348772,217.147597 57.4436998,205.787697 57.4436998,191.155764 C57.4436998,176.564475 61.345037,165.214737 69.1478283,157.106207 C76.9506196,148.997678 87.5370604,144.943474 100.907468,144.943474 C114.155958,144.943474 124.661121,148.997678 132.423273,157.106207 C140.185424,165.214737 144.066442,176.564475 144.066442,191.155764 C144.066442,198.878173 142.98951,205.665662 140.835615,211.518436 C139.210033,215.989304 136.609142,220.317853 133.032863,224.504211 Z M118.52462,214.322875 C120.841074,211.59971 122.578388,208.307575 123.736615,204.44637 C124.894842,200.585166 125.473946,196.155008 125.473946,191.155764 C125.473946,180.832123 123.198166,173.11999 118.646538,168.019136 C114.09491,162.918281 108.141307,160.367893 100.78555,160.367893 C93.4297941,160.367893 87.4660313,162.928442 82.8940833,168.049619 C78.3221353,173.170795 76.0361955,180.872767 76.0361955,191.155764 C76.0361955,201.601338 78.3221353,209.41508 82.8940833,214.597223 C87.4660313,219.779366 93.2469189,222.370398 100.236919,222.370398 C102.83785,222.370398 105.296505,221.94364 107.612959,221.090111 C103.9554,218.692099 100.236938,216.822491 96.4574613,215.481231 L101.517058,205.177963 C107.450431,207.210176 113.119562,210.25845 118.52462,214.322875 Z M200.697355,235.843902 L200.697355,226.150295 C198.340262,229.605057 195.241544,232.328182 191.401107,234.31975 C187.560671,236.311319 183.506938,237.307088 179.239786,237.307088 C174.891356,237.307088 170.990019,236.351963 167.535658,234.441683 C164.081297,232.531402 161.582003,229.848922 160.037701,226.39416 C158.493398,222.939398 157.721259,218.163769 157.721259,212.06713 L157.721259,171.097923 L174.850738,171.097923 L174.850738,200.849371 C174.850738,209.953685 175.16569,215.532026 175.795603,217.584561 C176.425516,219.637096 177.573565,221.262842 179.239786,222.461847 C180.906007,223.660853 183.019232,224.260347 185.579523,224.260347 C188.505569,224.260347 191.12678,223.457635 193.443234,221.852187 C195.759688,220.246738 197.344606,218.2552 198.198036,215.87751 C199.051466,213.499821 199.478175,207.677619 199.478175,198.410728 L199.478175,171.097923 L216.607655,171.097923 L216.607655,235.843902 L200.697355,235.843902 Z M247.148115,190.850934 L231.603569,188.046494 C233.35107,181.787278 236.35835,177.153902 240.625502,174.146227 C244.892653,171.138552 251.232326,169.634737 259.64471,169.634737 C267.284944,169.634737 272.974394,170.539058 276.713231,172.347728 C280.452069,174.156397 283.083439,176.452763 284.607422,179.236895 C286.131405,182.021027 286.893384,187.131965 286.893384,194.569865 L286.710507,214.56674 C286.710507,220.256936 286.98482,224.453393 287.533454,227.156236 C288.082088,229.859079 289.108221,232.754939 290.611884,235.843902 L273.665281,235.843902 C273.218246,234.705863 272.669621,233.019152 272.019388,230.783718 C271.734911,229.767611 271.531716,229.096991 271.409798,228.771837 C268.483751,231.616935 265.354554,233.750727 262.022112,235.173276 C258.689669,236.595825 255.133763,237.307088 251.354286,237.307088 C244.689402,237.307088 239.43682,235.498446 235.596384,231.881107 C231.755948,228.263768 229.835758,223.691358 229.835758,218.163739 C229.835758,214.505755 230.709495,211.244103 232.456995,208.378682 C234.204496,205.513262 236.652991,203.318505 239.802555,201.794345 C242.952119,200.270186 247.49352,198.939106 253.426892,197.801067 C261.432881,196.29723 266.980095,194.895024 270.0687,193.594407 L270.0687,191.887357 C270.0687,188.595172 269.255921,186.248001 267.63034,184.845775 C266.004758,183.443548 262.936519,182.742445 258.42553,182.742445 C255.377565,182.742445 253.000188,183.341939 251.293327,184.540944 C249.586467,185.73995 248.204743,187.843259 247.148115,190.850934 Z M270.0687,204.7512 C267.874165,205.482797 264.399536,206.356636 259.64471,207.372742 C254.889884,208.388848 251.781006,209.384618 250.317983,210.36008 C248.082808,211.945206 246.965238,213.957067 246.965238,216.395722 C246.965238,218.793733 247.859294,220.866559 249.647434,222.614263 C251.435574,224.361966 253.711354,225.235804 256.474842,225.235804 C259.563447,225.235804 262.50977,224.219713 265.313898,222.1875 C267.386514,220.643018 268.747918,218.753089 269.398151,216.517654 C269.845186,215.054461 270.0687,212.270371 270.0687,208.165301 L270.0687,204.7512 Z M320.177,235.843902 L303.04752,235.843902 L303.04752,171.097923 L318.95782,171.097923 L318.95782,180.303801 C321.680669,175.954866 324.129164,173.089489 326.303379,171.707584 C328.477595,170.325679 330.94641,169.634737 333.709898,169.634737 C337.611294,169.634737 341.370395,170.711794 344.987314,172.865939 L339.68388,187.80263 C336.798473,185.932994 334.116304,184.99819 331.637292,184.99819 C329.239559,184.99819 327.207613,185.658649 325.541392,186.979587 C323.875171,188.300526 322.564565,190.68834 321.609536,194.143102 C320.654507,197.597864 320.177,204.832433 320.177,215.847027 L320.177,235.843902 Z M382.050387,171.097923 L382.050387,184.754325 L370.346259,184.754325 L370.346259,210.847809 C370.346259,216.131562 370.458016,219.210319 370.681533,220.08417 C370.905051,220.958022 371.413037,221.679446 372.205508,222.248466 C372.997979,222.817486 373.963154,223.101991 375.101061,223.101991 C376.686003,223.101991 378.982102,222.553302 381.989428,221.455907 L383.452444,234.746513 C379.469769,236.453572 374.958848,237.307088 369.919546,237.307088 C366.830941,237.307088 364.047174,236.788882 361.568162,235.752453 C359.08915,234.716025 357.270558,233.374784 356.112332,231.728692 C354.954105,230.082599 354.151486,227.85736 353.704451,225.052906 C353.338695,223.061337 353.15582,219.037616 353.15582,212.981622 L353.15582,184.754325 L345.292109,184.754325 L345.292109,171.097923 L353.15582,171.097923 L353.15582,158.23408 L370.346259,148.235642 L370.346259,171.097923 L382.050387,171.097923 Z M431.427179,215.237367 L448.4957,218.102772 C446.301164,224.361988 442.836696,229.127456 438.10219,232.399319 C433.367683,235.671182 427.44456,237.307088 420.33264,237.307088 C409.075488,237.307088 400.744508,233.628838 395.33945,226.272228 C391.072298,220.37881 388.938754,212.941022 388.938754,203.958641 C388.938754,193.228557 391.74284,184.825483 397.351097,178.749166 C402.959353,172.67285 410.050846,169.634737 418.625788,169.634737 C428.257359,169.634737 435.856839,172.815103 441.424455,179.175929 C446.992072,185.536755 449.653922,195.28107 449.410085,208.409165 L406.494947,208.409165 C406.616866,213.489698 407.998589,217.442292 410.640159,220.267068 C413.281729,223.091844 416.573482,224.504211 420.515517,224.504211 C423.197727,224.504211 425.453188,223.772625 427.281967,222.309432 C429.110746,220.846239 430.49247,218.488907 431.427179,215.237367 Z M432.402523,197.922999 C432.280604,192.9644 431.000478,189.194701 428.562106,186.613791 C426.123734,184.032881 423.157092,182.742445 419.662091,182.742445 C415.923254,182.742445 412.834695,184.104007 410.396323,186.827172 C407.957951,189.550338 406.759102,193.24891 406.799742,197.922999 L432.402523,197.922999 Z M479.767668,235.843902 L462.638188,235.843902 L462.638188,171.097923 L478.548488,171.097923 L478.548488,180.303801 C481.271337,175.954866 483.719832,173.089489 485.894047,171.707584 C488.068263,170.325679 490.537078,169.634737 493.300566,169.634737 C497.201962,169.634737 500.961063,170.711794 504.577982,172.865939 L499.274548,187.80263 C496.389141,185.932994 493.706972,184.99819 491.22796,184.99819 C488.830227,184.99819 486.798281,185.658649 485.13206,186.979587 C483.465839,188.300526 482.155233,190.68834 481.200204,194.143102 C480.245175,197.597864 479.767668,204.832433 479.767668,215.847027 L479.767668,235.843902 Z M118.280784,345.183184 L135.776018,350.731098 C133.093808,360.48572 128.633686,367.73045 122.395517,372.465506 C116.157348,377.200562 108.242916,379.568054 98.6519854,379.568054 C86.7852403,379.568054 77.0318974,375.513851 69.3916643,367.405321 C61.7514311,359.296792 57.9313718,348.211236 57.9313718,334.148323 C57.9313718,319.272525 61.7717506,307.719568 69.4526233,299.489105 C77.133496,291.258643 87.2322697,287.143474 99.7492474,287.143474 C110.681283,287.143474 119.560889,290.374644 126.388331,296.837081 C130.452285,300.657641 133.500205,306.144534 135.532182,313.297923 L117.671194,317.565549 C116.614566,312.932103 114.409904,309.274175 111.057142,306.591654 C107.70438,303.909133 103.630328,302.567893 98.8348624,302.567893 C92.2106177,302.567893 86.8361194,304.945546 82.7112063,309.700924 C78.5862932,314.456302 76.5238675,322.158274 76.5238675,332.807069 C76.5238675,344.106173 78.555814,352.153616 82.6197678,356.949638 C86.6837216,361.74566 91.9667823,364.143636 98.4691084,364.143636 C103.264574,364.143636 107.389425,362.619499 110.843786,359.571179 C114.298147,356.52286 116.777121,351.72691 118.280784,345.183184 Z M147.175351,344.756421 C147.175351,339.066225 148.577394,333.559011 151.381522,328.234613 C154.18565,322.910215 158.158106,318.845851 163.299007,316.041397 C168.439909,313.236943 174.180158,311.834737 180.519925,311.834737 C190.314054,311.834737 198.340243,315.015103 204.598731,321.375929 C210.85722,327.736755 213.986418,335.774037 213.986418,345.488014 C213.986418,355.283281 210.826741,363.401849 204.507293,369.843964 C198.187845,376.286079 190.232774,379.507088 180.641843,379.507088 C174.708471,379.507088 169.0495,378.165848 163.664761,375.483327 C158.280023,372.800806 154.18565,368.868533 151.381522,363.68639 C148.577394,358.504247 147.175351,352.194321 147.175351,344.756421 Z M164.731544,345.670913 C164.731544,352.092706 166.255504,357.010587 169.303469,360.424705 C172.351434,363.838822 176.110535,365.545856 180.580884,365.545856 C185.051234,365.545856 188.800175,363.838822 191.82782,360.424705 C194.855466,357.010587 196.369266,352.052062 196.369266,345.548981 C196.369266,339.208476 194.855466,334.331238 191.82782,330.917121 C188.800175,327.503003 185.051234,325.79597 180.580884,325.79597 C176.110535,325.79597 172.351434,327.503003 169.303469,330.917121 C166.255504,334.331238 164.731544,339.24912 164.731544,345.670913 Z M226.117259,313.297923 L241.905641,313.297923 L241.905641,322.138005 C247.554537,315.269125 254.280279,311.834737 262.083071,311.834737 C266.228303,311.834737 269.824849,312.688254 272.872814,314.395312 C275.920779,316.102371 278.420073,318.683243 280.370771,322.138005 C283.215539,318.683243 286.283778,316.102371 289.575581,314.395312 C292.867383,312.688254 296.38265,311.834737 300.121488,311.834737 C304.876314,311.834737 308.899568,312.800024 312.19137,314.730626 C315.483173,316.661228 317.941828,319.496123 319.56741,323.235394 C320.745956,325.999204 321.335221,330.470005 321.335221,336.647933 L321.335221,378.043902 L304.205741,378.043902 L304.205741,341.03749 C304.205741,334.615698 303.616477,330.470046 302.43793,328.60041 C300.852988,326.161754 298.414652,324.942445 295.12285,324.942445 C292.725117,324.942445 290.469656,325.67403 288.356401,327.137224 C286.243145,328.600417 284.719185,330.744369 283.784475,333.569145 C282.849766,336.393921 282.382418,340.854562 282.382418,346.9512 L282.382418,378.043902 L265.252939,378.043902 L265.252939,342.561643 C265.252939,336.261783 264.948147,332.197418 264.338554,330.368426 C263.728961,328.539434 262.784105,327.177872 261.50396,326.283699 C260.223815,325.389525 258.4865,324.942445 256.291965,324.942445 C253.650395,324.942445 251.273018,325.653709 249.159762,327.076258 C247.046506,328.498807 245.532706,330.551311 244.618316,333.233832 C243.703927,335.916353 243.246739,340.366832 243.246739,346.585404 L243.246739,378.043902 L226.117259,378.043902 L226.117259,313.297923 Z M337.123602,313.297923 L352.911984,313.297923 L352.911984,322.138005 C358.56088,315.269125 365.286622,311.834737 373.089414,311.834737 C377.234647,311.834737 380.831192,312.688254 383.879157,314.395312 C386.927122,316.102371 389.426417,318.683243 391.377114,322.138005 C394.221882,318.683243 397.290121,316.102371 400.581924,314.395312 C403.873726,312.688254 407.388994,311.834737 411.127831,311.834737 C415.882657,311.834737 419.905911,312.800024 423.197714,314.730626 C426.489516,316.661228 428.948171,319.496123 430.573753,323.235394 C431.752299,325.999204 432.341564,330.470005 432.341564,336.647933 L432.341564,378.043902 L415.212084,378.043902 L415.212084,341.03749 C415.212084,334.615698 414.62282,330.470046 413.444273,328.60041 C411.859331,326.161754 409.420996,324.942445 406.129193,324.942445 C403.73146,324.942445 401.476,325.67403 399.362744,327.137224 C397.249488,328.600417 395.725528,330.744369 394.790819,333.569145 C393.856109,336.393921 393.388761,340.854562 393.388761,346.9512 L393.388761,378.043902 L376.259282,378.043902 L376.259282,342.561643 C376.259282,336.261783 375.95449,332.197418 375.344897,330.368426 C374.735304,328.539434 373.790449,327.177872 372.510303,326.283699 C371.230158,325.389525 369.492844,324.942445 367.298308,324.942445 C364.656739,324.942445 362.279361,325.653709 360.166105,327.076258 C358.052849,328.498807 356.539049,330.551311 355.62466,333.233832 C354.71027,335.916353 354.253082,340.366832 354.253082,346.585404 L354.253082,378.043902 L337.123602,378.043902 L337.123602,313.297923 Z M492.020427,378.043902 L492.020427,368.350295 C489.663334,371.805057 486.564616,374.528182 482.724179,376.51975 C478.883743,378.511319 474.83001,379.507088 470.562858,379.507088 C466.214428,379.507088 462.313091,378.551963 458.85873,376.641683 C455.404369,374.731402 452.905075,372.048922 451.360773,368.59416 C449.81647,365.139398 449.044331,360.363769 449.044331,354.26713 L449.044331,313.297923 L466.17381,313.297923 L466.17381,343.049371 C466.17381,352.153685 466.488762,357.732026 467.118675,359.784561 C467.748588,361.837096 468.896637,363.462842 470.562858,364.661847 C472.229079,365.860853 474.342304,366.460347 476.902595,366.460347 C479.828641,366.460347 482.449852,365.657635 484.766306,364.052187 C487.08276,362.446738 488.667678,360.4552 489.521108,358.07751 C490.374538,355.699821 490.801247,349.877619 490.801247,340.610728 L490.801247,313.297923 L507.930727,313.297923 L507.930727,378.043902 L492.020427,378.043902 Z M584.556193,378.043902 L567.426713,378.043902 L567.426713,345.000286 C567.426713,338.009473 567.060963,333.487868 566.329451,331.435333 C565.597939,329.382797 564.409251,327.787534 562.763349,326.649495 C561.117448,325.511456 559.1363,324.942445 556.819847,324.942445 C553.85316,324.942445 551.191311,325.755318 548.834217,327.381088 C546.477124,329.006858 544.861727,331.160972 543.987977,333.843493 C543.114227,336.526014 542.677358,341.484539 542.677358,348.719217 L542.677358,378.043902 L525.547878,378.043902 L525.547878,313.297923 L541.458178,313.297923 L541.458178,322.808632 C547.107074,315.492665 554.218886,311.834737 562.793829,311.834737 C566.573306,311.834737 570.027615,312.515518 573.156859,313.877101 C576.286104,315.238683 578.653321,316.976199 580.258583,319.089701 C581.863845,321.203202 582.981415,323.601178 583.611328,326.283699 C584.241241,328.96622 584.556193,332.807044 584.556193,337.806288 L584.556193,378.043902 Z M601.929508,304.518807 L601.929508,288.667626 L619.058988,288.667626 L619.058988,304.518807 L601.929508,304.518807 Z M601.929508,378.043902 L601.929508,313.297923 L619.058988,313.297923 L619.058988,378.043902 L601.929508,378.043902 Z M666.302215,313.297923 L666.302215,326.954325 L654.598086,326.954325 L654.598086,353.047809 C654.598086,358.331562 654.709843,361.410319 654.933361,362.28417 C655.156878,363.158022 655.664865,363.879446 656.457336,364.448466 C657.249807,365.017486 658.214981,365.301991 659.352888,365.301991 C660.93783,365.301991 663.23393,364.753302 666.241256,363.655907 L667.704272,376.946513 C663.721597,378.653572 659.210676,379.507088 654.171373,379.507088 C651.082768,379.507088 648.299002,378.988882 645.81999,377.952453 C643.340978,376.916025 641.522386,375.574784 640.364159,373.928692 C639.205932,372.282599 638.403314,370.05736 637.956279,367.252906 C637.590523,365.261337 637.407648,361.237616 637.407648,355.181622 L637.407648,326.954325 L629.543936,326.954325 L629.543936,313.297923 L637.407648,313.297923 L637.407648,300.43408 L654.598086,290.435642 L654.598086,313.297923 L666.302215,313.297923 Z M670.081673,313.297923 L688.308415,313.297923 L703.792001,359.266349 L718.909834,313.297923 L736.648903,313.297923 L713.789278,375.605259 L709.705024,386.883984 C708.201361,390.6639 706.768839,393.549599 705.407415,395.541168 C704.04599,397.532737 702.481391,399.148322 700.713572,400.387972 C698.945752,401.627621 696.771569,402.592908 694.190958,403.283861 C691.610348,403.974813 688.694505,404.320284 685.443341,404.320284 C682.151539,404.320284 678.920744,403.974813 675.75086,403.283861 L674.226885,389.871322 C676.909095,390.399698 679.327111,390.663881 681.481006,390.663881 C685.463681,390.663881 688.410003,389.495377 690.320062,387.158332 C692.23012,384.821287 693.693121,381.84414 694.70911,378.226801 L670.081673,313.297923 Z M61.10124,520.243902 L61.10124,430.867626 L127.363675,430.867626 L127.363675,445.987214 L79.1451046,445.987214 L79.1451046,465.801191 L124.01093,465.801191 L124.01093,480.859813 L79.1451046,480.859813 L79.1451046,505.18528 L129.070528,505.18528 L129.070528,520.243902 L61.10124,520.243902 Z M203.135715,520.243902 L186.006236,520.243902 L186.006236,487.200286 C186.006236,480.209473 185.640485,475.687868 184.908974,473.635333 C184.177462,471.582797 182.988773,469.987534 181.342872,468.849495 C179.696971,467.711456 177.715823,467.142445 175.399369,467.142445 C172.432683,467.142445 169.770833,467.955318 167.41374,469.581088 C165.056647,471.206858 163.441249,473.360972 162.567499,476.043493 C161.693749,478.726014 161.256881,483.684539 161.256881,490.919217 L161.256881,520.243902 L144.127401,520.243902 L144.127401,455.497923 L160.037701,455.497923 L160.037701,465.008632 C165.686596,457.692665 172.798409,454.034737 181.373351,454.034737 C185.152829,454.034737 188.607137,454.715518 191.736382,456.077101 C194.865626,457.438683 197.232844,459.176199 198.838106,461.289701 C200.443367,463.403202 201.560938,465.801178 202.190851,468.483699 C202.820764,471.16622 203.135715,475.007044 203.135715,480.006288 L203.135715,520.243902 Z M257.998817,499.637367 L275.067338,502.502772 C272.872803,508.761988 269.408334,513.527456 264.673828,516.799319 C259.939322,520.071182 254.016198,521.707088 246.904279,521.707088 C235.647127,521.707088 227.316147,518.028838 221.911088,510.672228 C217.643937,504.77881 215.510393,497.341022 215.510393,488.358641 C215.510393,477.628557 218.314479,469.225483 223.922735,463.149166 C229.530991,457.07285 236.622484,454.034737 245.197427,454.034737 C254.828997,454.034737 262.428477,457.215103 267.996094,463.575929 C273.56371,469.936755 276.22556,479.68107 275.981723,492.809165 L233.066585,492.809165 C233.188504,497.889698 234.570228,501.842292 237.211798,504.667068 C239.853368,507.491844 243.145121,508.904211 247.087156,508.904211 C249.769365,508.904211 252.024826,508.172625 253.853605,506.709432 C255.682384,505.246239 257.064108,502.888907 257.998817,499.637367 Z M258.974161,482.322999 C258.852243,477.3644 257.572117,473.594701 255.133744,471.013791 C252.695372,468.432881 249.72873,467.142445 246.23373,467.142445 C242.494892,467.142445 239.406334,468.504007 236.967962,471.227172 C234.529589,473.950338 233.330741,477.64891 233.37138,482.322999 L258.974161,482.322999 Z M306.339306,520.243902 L289.209827,520.243902 L289.209827,455.497923 L305.120126,455.497923 L305.120126,464.703801 C307.842975,460.354866 310.291471,457.489489 312.465686,456.107584 C314.639901,454.725679 317.108716,454.034737 319.872205,454.034737 C323.7736,454.034737 327.532701,455.111794 331.14962,457.265939 L325.846187,472.20263 C322.96078,470.332994 320.27861,469.39819 317.799599,469.39819 C315.401866,469.39819 313.369919,470.058649 311.703698,471.379587 C310.037477,472.700526 308.726872,475.08834 307.771843,478.543102 C306.816814,481.997864 306.339306,489.232433 306.339306,500.247027 L306.339306,520.243902 Z M336.940725,524.511528 L356.508565,526.889205 C356.833681,529.165284 357.585502,530.730064 358.764048,531.583594 C360.38963,532.802921 362.949882,533.412576 366.444882,533.412576 C370.915232,533.412576 374.267943,532.741956 376.503118,531.400696 C378.006781,530.506522 379.144671,529.063672 379.916822,527.072104 C380.445136,525.649555 380.709289,523.028039 380.709289,519.207479 L380.709289,509.757736 C375.588707,516.748549 369.127118,520.243902 361.324326,520.243902 C352.627465,520.243902 345.739167,516.565652 340.659224,509.209042 C336.67655,503.396913 334.685242,496.162343 334.685242,487.505116 C334.685242,476.653099 337.296293,468.361795 342.518474,462.630955 C347.740655,456.900114 354.232724,454.034737 361.994875,454.034737 C370.000864,454.034737 376.60469,457.550413 381.806551,464.581869 L381.806551,455.497923 L397.838769,455.497923 L397.838769,513.598599 C397.838769,521.23972 397.208865,526.950153 395.94904,530.730069 C394.689214,534.509985 392.92142,537.476971 390.645606,539.631117 C388.369792,541.785262 385.332032,543.471974 381.532236,544.691301 C377.732439,545.910629 372.926885,546.520284 367.115431,546.520284 C356.142756,546.520284 348.360401,544.640515 343.768134,540.880921 C339.175866,537.121327 336.879766,532.35586 336.879766,526.584375 C336.879766,526.015355 336.900086,525.324413 336.940725,524.511528 Z M352.241435,486.529659 C352.241435,493.398539 353.57236,498.42819 356.23425,501.618764 C358.896139,504.809339 362.177733,506.404602 366.079128,506.404602 C370.265001,506.404602 373.800588,504.768695 376.685995,501.496832 C379.571402,498.224969 381.014084,493.378214 381.014084,486.956421 C381.014084,480.250119 379.63236,475.271272 376.868872,472.019731 C374.105383,468.768191 370.610435,467.142445 366.383923,467.142445 C362.27933,467.142445 358.896139,468.737708 356.23425,471.928282 C353.57236,475.118856 352.241435,479.985933 352.241435,486.529659 Z M406.677824,455.497923 L424.904566,455.497923 L440.388152,501.466349 L455.505985,455.497923 L473.245054,455.497923 L450.385429,517.805259 L446.301175,529.083984 C444.797513,532.8639 443.36499,535.749599 442.003566,537.741168 C440.642141,539.732737 439.077543,541.348322 437.309723,542.587972 C435.541903,543.827621 433.36772,544.792908 430.787109,545.483861 C428.206499,546.174813 425.290656,546.520284 422.039493,546.520284 C418.74769,546.520284 415.516895,546.174813 412.347011,545.483861 L410.823036,532.071322 C413.505246,532.599698 415.923262,532.863881 418.077157,532.863881 C422.059832,532.863881 425.006154,531.695377 426.916213,529.358332 C428.826271,527.021287 430.289272,524.04414 431.305261,520.426801 L406.677824,455.497923 Z M118.280784,629.583184 L135.776018,635.131098 C133.093808,644.88572 128.633686,652.13045 122.395517,656.865506 C116.157348,661.600562 108.242916,663.968054 98.6519854,663.968054 C86.7852403,663.968054 77.0318974,659.913851 69.3916643,651.805321 C61.7514311,643.696792 57.9313718,632.611236 57.9313718,618.548323 C57.9313718,603.672525 61.7717506,592.119568 69.4526233,583.889105 C77.133496,575.658643 87.2322697,571.543474 99.7492474,571.543474 C110.681283,571.543474 119.560889,574.774644 126.388331,581.237081 C130.452285,585.057641 133.500205,590.544534 135.532182,597.697923 L117.671194,601.965549 C116.614566,597.332103 114.409904,593.674175 111.057142,590.991654 C107.70438,588.309133 103.630328,586.967893 98.8348624,586.967893 C92.2106177,586.967893 86.8361194,589.345546 82.7112063,594.100924 C78.5862932,598.856302 76.5238675,606.558274 76.5238675,617.207069 C76.5238675,628.506173 78.555814,636.553616 82.6197678,641.349638 C86.6837216,646.14566 91.9667823,648.543636 98.4691084,648.543636 C103.264574,648.543636 107.389425,647.019499 110.843786,643.971179 C114.298147,640.92286 116.777121,636.12691 118.280784,629.583184 Z M147.175351,629.156421 C147.175351,623.466225 148.577394,617.959011 151.381522,612.634613 C154.18565,607.310215 158.158106,603.245851 163.299007,600.441397 C168.439909,597.636943 174.180158,596.234737 180.519925,596.234737 C190.314054,596.234737 198.340243,599.415103 204.598731,605.775929 C210.85722,612.136755 213.986418,620.174037 213.986418,629.888014 C213.986418,639.683281 210.826741,647.801849 204.507293,654.243964 C198.187845,660.686079 190.232774,663.907088 180.641843,663.907088 C174.708471,663.907088 169.0495,662.565848 163.664761,659.883327 C158.280023,657.200806 154.18565,653.268533 151.381522,648.08639 C148.577394,642.904247 147.175351,636.594321 147.175351,629.156421 Z M164.731544,630.070913 C164.731544,636.492706 166.255504,641.410587 169.303469,644.824705 C172.351434,648.238822 176.110535,649.945856 180.580884,649.945856 C185.051234,649.945856 188.800175,648.238822 191.82782,644.824705 C194.855466,641.410587 196.369266,636.452062 196.369266,629.948981 C196.369266,623.608476 194.855466,618.731238 191.82782,615.317121 C188.800175,611.903003 185.051234,610.19597 180.580884,610.19597 C176.110535,610.19597 172.351434,611.903003 169.303469,615.317121 C166.255504,618.731238 164.731544,623.64912 164.731544,630.070913 Z M225.44671,638.606164 L225.44671,621.474695 L259.096079,621.474695 L259.096079,638.606164 L225.44671,638.606164 Z M265.009103,629.156421 C265.009103,623.466225 266.411146,617.959011 269.215274,612.634613 C272.019402,607.310215 275.991857,603.245851 281.132759,600.441397 C286.27366,597.636943 292.013909,596.234737 298.353677,596.234737 C308.147806,596.234737 316.173994,599.415103 322.432483,605.775929 C328.690972,612.136755 331.820169,620.174037 331.820169,629.888014 C331.820169,639.683281 328.660492,647.801849 322.341044,654.243964 C316.021596,660.686079 308.066526,663.907088 298.475595,663.907088 C292.542222,663.907088 286.883252,662.565848 281.498513,659.883327 C276.113774,657.200806 272.019402,653.268533 269.215274,648.08639 C266.411146,642.904247 265.009103,636.594321 265.009103,629.156421 Z M282.565295,630.070913 C282.565295,636.492706 284.089255,641.410587 287.13722,644.824705 C290.185186,648.238822 293.944287,649.945856 298.414636,649.945856 C302.884985,649.945856 306.633926,648.238822 309.661572,644.824705 C312.689217,641.410587 314.203017,636.452062 314.203017,629.948981 C314.203017,623.608476 312.689217,618.731238 309.661572,615.317121 C306.633926,611.903003 302.884985,610.19597 298.414636,610.19597 C293.944287,610.19597 290.185186,611.903003 287.13722,615.317121 C284.089255,618.731238 282.565295,623.64912 282.565295,630.070913 Z M344.743478,597.697923 L360.714736,597.697923 L360.714736,607.208632 C362.787353,603.957091 365.591439,601.315254 369.127079,599.283041 C372.662718,597.250828 376.584375,596.234737 380.892166,596.234737 C388.410481,596.234737 394.790792,599.181402 400.033293,605.074819 C405.275793,610.968236 407.897004,619.178253 407.897004,629.705116 C407.897004,640.516489 405.255474,648.919563 399.972334,654.914591 C394.689194,660.909619 388.288563,663.907088 380.770248,663.907088 C377.193969,663.907088 373.953014,663.195825 371.047287,661.773276 C368.14156,660.350727 365.083481,657.912108 361.872957,654.457346 L361.872957,687.0742 L344.743478,687.0742 L344.743478,597.697923 Z M361.69008,628.973523 C361.69008,636.248845 363.132762,641.623968 366.018169,645.099052 C368.903577,648.574136 372.418844,650.311652 376.564077,650.311652 C380.546752,650.311652 383.858824,648.716389 386.500394,645.525815 C389.141964,642.33524 390.462729,637.102371 390.462729,629.827048 C390.462729,623.039457 389.101325,617.999645 386.378476,614.70746 C383.655627,611.415275 380.282596,609.769207 376.259282,609.769207 C372.073409,609.769207 368.598781,611.384792 365.835292,614.616011 C363.071804,617.847229 361.69008,622.633019 361.69008,628.973523 Z" id="Green-Quarter-Commun" fill="#4A4A4A"></path>
                    <rect id="Rectangle" fill="#4A4A4A" x="52.0183486" y="100.580488" width="360.66055" height="13.8731707"></rect>
                    <rect id="Rectangle-Copy" fill="#4A4A4A" x="52.0183486" y="242.780488" width="69.3577982" height="13.8731707"></rect>
                    <rect id="Rectangle-Copy-8" fill="#4A4A4A" x="156.055046" y="242.780488" width="346.788991" height="13.8731707"></rect>
                    <rect id="Rectangle-Copy-2" fill="#4A4A4A" x="52.0183486" y="384.980488" width="613.816514" height="13.8731707"></rect>
                    <rect id="Rectangle-Copy-3" fill="#4A4A4A" x="52.0183486" y="527.180488" width="277.431193" height="13.8731707"></rect>
                    <rect id="Rectangle-Copy-6" fill="#4A4A4A" x="461.229358" y="527.180488" width="13.8715596" height="13.8731707"></rect>
                    <rect id="Rectangle-Copy-7" fill="#4A4A4A" x="721.321101" y="384.980488" width="13.8715596" height="13.8731707"></rect>
                    <rect id="Rectangle-Copy-4" fill="#4A4A4A" x="52.0183486" y="669.380488" width="284.366972" height="13.8731707"></rect>
                    <rect id="Rectangle-Copy-5" fill="#4A4A4A" x="374.53211" y="669.380488" width="34.6788991" height="13.8731707"></rect>
                </g>
            </g>
            <g id="exp-2-copy-2" transform="translate(0.000000, 918.000000)">
                <g id="Group-4-Copy-6" transform="translate(0.000000, 136.000000)">
                    <path d="M210.879468,94.4797099 L210.879468,27.9219479 L193,27.9219479 L193,108.667933 L247.445864,108.667933 L247.445864,94.4797099 L210.879468,94.4797099 Z M274.553445,108.667933 L274.553445,49.492661 L257.366085,49.492661 L257.366085,108.667933 L274.553445,108.667933 Z M255.28976,33.8048696 C255.28976,39.4570886 259.903816,43.3790364 266.132792,43.3790364 C272.246417,43.3790364 277.091176,39.4570886 277.091176,33.8048696 C277.091176,28.0372993 272.246417,24 266.132792,24 C259.903816,24 255.28976,28.0372993 255.28976,33.8048696 Z M303.275945,78.9072699 C303.275945,88.3660853 309.043516,95.9792782 318.502331,95.9792782 C326.922984,95.9792782 333.95942,90.557762 333.95942,79.8300812 C333.95942,68.8716975 327.38439,62.1813158 318.040926,62.1813158 C308.58211,62.1813158 303.275945,69.7945087 303.275945,78.9072699 Z M350.685374,49.492661 L350.685374,104.515282 C350.685374,127.816267 335.458988,136.929028 318.617683,136.929028 C305.467622,136.929028 296.585564,133.583837 290.587291,128.739078 L297.393024,115.358315 C300.853566,118.357451 308.58211,122.048696 315.15714,122.048696 C324.039199,122.048696 333.498014,119.395614 333.498014,106.476256 L333.498014,100.016577 C329.230012,106.130202 323.577793,109.936798 314.926438,109.936798 C296.931618,109.936798 286.088586,96.0946296 286.088586,78.7919185 C286.088586,62.1813158 296.124158,48.2237955 314.580383,48.2237955 C322.53963,48.2237955 329.460715,52.1457434 333.498014,57.5672595 L333.498014,49.492661 L350.685374,49.492661 Z M365.681057,108.667933 L382.868417,108.667933 L382.868417,76.946296 C382.868417,68.7563461 386.213607,62.4120186 394.172854,62.4120186 C402.132102,62.4120186 405.131238,68.6409946 405.131238,76.8309446 L405.131238,108.667933 L422.318598,108.667933 L422.318598,76.4848903 C422.318598,61.4892074 417.819893,48.2237955 401.20929,48.2237955 C394.057503,48.2237955 387.828527,50.6461751 382.868417,57.5672595 L382.868417,25.2688655 L365.681057,25.2688655 L365.681057,108.667933 Z M456.92402,34.9583837 L443.658608,34.9583837 L441.005526,49.492661 L430.854602,49.492661 L430.854602,62.9887757 L439.73666,62.9887757 L439.73666,89.0581937 C439.73666,106.245553 449.887584,109.936798 460.269211,109.936798 C474.226731,109.936798 479.994302,101.05474 479.994302,92.2880332 C479.994302,90.2117078 479.648247,87.443274 478.610085,85.2515973 L464.998619,85.2515973 C465.344673,86.1744086 465.806078,88.5967881 465.806078,90.3270592 C465.806078,93.095493 464.652564,95.8639268 461.307374,95.8639268 C457.962183,95.8639268 456.92402,93.2108444 456.92402,90.6731135 L456.92402,62.9887757 L473.30392,62.9887757 L473.30392,49.492661 L456.92402,49.492661 L456.92402,34.9583837 Z M585.310136,108.667933 L585.310136,27.9219479 L567.430668,27.9219479 L567.430668,62.9887757 L536.747194,62.9887757 L536.747194,27.9219479 L518.867726,27.9219479 L518.867726,108.667933 L536.747194,108.667933 L536.747194,77.1769988 L567.430668,77.1769988 L567.430668,108.667933 L585.310136,108.667933 Z M597.537386,79.0226213 C597.537386,60.5663961 612.879123,48.2237955 630.066482,48.2237955 C647.369194,48.2237955 662.595579,60.6817475 662.595579,79.0226213 C662.595579,97.4788465 647.369194,109.936798 630.066482,109.936798 C612.879123,109.936798 597.537386,97.5941979 597.537386,79.0226213 Z M614.26334,79.0226213 C614.26334,88.3660853 621.64583,95.1718183 630.066482,95.1718183 C638.602487,95.1718183 645.869625,88.2507339 645.869625,79.0226213 C645.869625,69.9098601 638.602487,62.9887757 630.066482,62.9887757 C621.64583,62.9887757 614.26334,69.7945087 614.26334,79.0226213 Z M729.614747,49.492661 L712.427387,49.492661 L712.427387,81.214298 C712.427387,89.404248 709.082197,95.7485754 701.122949,95.7485754 C693.163702,95.7485754 690.164566,89.5195994 690.164566,81.3296495 L690.164566,49.492661 L672.977206,49.492661 L672.977206,81.6757037 C672.977206,96.6713866 677.475911,109.936798 694.086514,109.936798 C701.238301,109.936798 707.467277,107.514419 712.427387,100.593334 L712.427387,108.667933 L729.614747,108.667933 L729.614747,49.492661 Z M739.881022,94.8257641 C743.918322,107.168365 755.914868,109.936798 764.681575,109.936798 C777.716284,109.936798 788.90537,103.707822 788.90537,91.5959247 C788.90537,87.6739769 787.636505,78.5612157 773.678985,74.5239164 L764.796926,71.0633742 C761.79779,69.9098601 759.260059,68.5256432 759.260059,65.9879123 C759.260059,62.9887757 762.60525,61.1431532 765.835089,61.1431532 C768.488171,61.1431532 772.756173,62.0659644 774.255742,66.7953721 L787.521154,60.6817475 C781.984286,50.0694181 772.986876,48.2237955 766.181143,48.2237955 C753.492488,48.2237955 742.99551,54.4527715 742.99551,66.3339665 C742.99551,68.9870489 743.687619,78.3305129 757.76049,83.2906234 L768.142117,87.6739769 C771.371956,88.8274909 772.525471,90.2117078 772.525471,92.1726817 C772.525471,95.1718183 768.603523,96.6713866 764.796926,96.6713866 C760.067519,96.6713866 754.069245,94.5950613 752.338974,87.7893283 L739.881022,94.8257641 Z M828.701606,62.1813158 C823.164738,62.1813158 815.782248,64.7190468 813.705923,72.6782939 L843.351235,72.6782939 C842.197721,65.065101 834.469176,62.1813158 828.701606,62.1813158 Z M847.84994,88.8274909 L857.770161,98.2863063 C849.349508,107.514419 838.160421,109.936798 830.201174,109.936798 C808.284407,109.936798 796.28786,96.209981 796.28786,79.3686755 C796.28786,61.950613 809.899327,48.2237955 828.932309,48.2237955 C845.312209,48.2237955 861,59.5282335 861,83.0599206 L813.359869,83.0599206 C813.705923,90.4424106 820.511656,95.8639268 831.47004,95.8639268 C837.583664,95.8639268 843.697289,92.7494388 847.84994,88.8274909 Z" id="Light-House-Copy-3" fill="#352E40"></path>
                    <g id="Group-12">
                        <circle id="Oval-2-Copy" fill="#CD6A62" cx="40" cy="70" r="10"></circle>
                        <circle id="Oval-2-Copy-41" fill="#CD6A62" cx="10" cy="70" r="10"></circle>
                        <circle id="Oval-2-Copy-7" fill="#9F6A7C" cx="40" cy="100" r="10"></circle>
                        <circle id="Oval-2-Copy-2" fill="#CD6A62" cx="70" cy="70" r="10"></circle>
                        <circle id="Oval-2-Copy-8" fill="#9F6A7C" cx="70" cy="100" r="10"></circle>
                        <circle id="Oval-2-Copy-3" fill="#CD6A62" cx="100" cy="70" r="10"></circle>
                        <circle id="Oval-2-Copy-9" fill="#9F6A7C" cx="100" cy="100" r="10"></circle>
                        <circle id="Oval-2-Copy-4" fill="#CD6A62" cx="130" cy="70" r="10"></circle>
                        <circle id="Oval-2-Copy-15" fill="#766C8A" cx="70" cy="130" r="10"></circle>
                        <circle id="Oval-2-Copy-20" fill="#EA7C41" transform="translate(100.000000, 40.000000) rotate(-180.000000) translate(-100.000000, -40.000000) " cx="100" cy="40" r="10"></circle>
                        <circle id="Oval-2-Copy-22" fill="#EA7C41" transform="translate(70.000000, 40.000000) rotate(-180.000000) translate(-70.000000, -40.000000) " cx="70" cy="40" r="10"></circle>
                        <circle id="Oval-2-Copy-23" fill="#FB8E00" transform="translate(70.000000, 10.000000) rotate(-180.000000) translate(-70.000000, -10.000000) " cx="70" cy="10" r="10"></circle>
                        <circle id="Oval-2-Copy-24" fill="#EA7C41" transform="translate(40.000000, 40.000000) rotate(-180.000000) translate(-40.000000, -40.000000) " cx="40" cy="40" r="10"></circle>
                    </g>
                </g>
                <path d="M219.032,12.448 C216.775989,9.13598344 213.488022,7.48 209.168,7.48 C207.823993,7.48 206.504006,7.6599982 205.208,8.02 C203.911994,8.3800018 202.748005,8.93199628 201.716,9.676 C200.683995,10.4200037 199.856003,11.3799941 199.232,12.556 C198.607997,13.7320059 198.296,15.1119921 198.296,16.696 C198.296,19.0000115 198.943994,20.7879936 200.24,22.06 C201.536006,23.3320064 203.14399,24.3759959 205.064,25.192 C206.98401,26.0080041 209.083989,26.7399968 211.364,27.388 C213.644011,28.0360032 215.74399,28.8999946 217.664,29.98 C219.58401,31.0600054 221.191994,32.4879911 222.488,34.264 C223.784006,36.0400089 224.432,38.4639846 224.432,41.536 C224.432,43.8400115 223.940005,45.9159908 222.956,47.764 C221.971995,49.6120092 220.676008,51.1599938 219.068,52.408 C217.459992,53.6560062 215.66001,54.6159966 213.668,55.288 C211.67599,55.9600034 209.67201,56.296 207.656,56.296 C204.535984,56.296 201.572014,55.7080059 198.764,54.532 C195.955986,53.3559941 193.56801,51.4240134 191.6,48.736 L196.28,45.352 C197.384006,47.2240094 198.91999,48.7239944 200.888,49.852 C202.85601,50.9800056 205.183987,51.544 207.872,51.544 C209.168006,51.544 210.463994,51.340002 211.76,50.932 C213.056006,50.523998 214.219995,49.924004 215.252,49.132 C216.284005,48.339996 217.135997,47.3680058 217.808,46.216 C218.480003,45.0639942 218.816,43.7440074 218.816,42.256 C218.816,40.4799911 218.444004,39.0040059 217.7,37.828 C216.955996,36.6519941 215.972006,35.668004 214.748,34.876 C213.523994,34.083996 212.132008,33.4240026 210.572,32.896 C209.011992,32.3679974 207.404008,31.8400026 205.748,31.312 C204.091992,30.7839974 202.484008,30.1840034 200.924,29.512 C199.363992,28.8399966 197.972006,27.9880052 196.748,26.956 C195.523994,25.9239948 194.540004,24.6280078 193.796,23.068 C193.051996,21.5079922 192.68,19.5520118 192.68,17.2 C192.68,14.7519878 193.147995,12.6160091 194.084,10.792 C195.020005,8.96799088 196.267992,7.456006 197.828,6.256 C199.388008,5.055994 201.15199,4.16800288 203.12,3.592 C205.08801,3.01599712 207.10399,2.728 209.168,2.728 C212.048014,2.728 214.663988,3.18399544 217.016,4.096 C219.368012,5.00800456 221.55199,6.61598848 223.568,8.92 L219.032,12.448 Z M258.852,55 C258.755999,54.0879954 258.696,53.1880044 258.672,52.3 C258.648,51.4119956 258.636,50.5120046 258.636,49.6 L258.492,49.6 C257.963997,50.5120046 257.292004,51.3519962 256.476,52.12 C255.659996,52.8880038 254.748005,53.5479972 253.74,54.1 C252.731995,54.6520028 251.664006,55.0839984 250.536,55.396 C249.407994,55.7080016 248.292005,55.864 247.188,55.864 C242.867978,55.864 239.67601,54.7240114 237.612,52.444 C235.54799,50.1639886 234.516,46.9120211 234.516,42.688 L234.516,21.304 L239.268,21.304 L239.268,39.952 C239.268,41.8240094 239.411999,43.4799928 239.7,44.92 C239.988001,46.3600072 240.479996,47.5719951 241.176,48.556 C241.872003,49.5400049 242.807994,50.2839975 243.984,50.788 C245.160006,51.2920025 246.635991,51.544 248.412,51.544 C248.652001,51.544 249.323994,51.448001 250.428,51.256 C251.532005,51.063999 252.695994,50.5360043 253.92,49.672 C255.144006,48.8079957 256.235995,47.5120086 257.196,45.784 C258.156005,44.0559914 258.636,41.6560154 258.636,38.584 L258.636,21.304 L263.388,21.304 L263.388,47.584 C263.388,48.4960046 263.424,49.647993 263.496,51.04 C263.568,52.432007 263.651999,53.7519938 263.748,55 L258.852,55 Z M306.592,38.152 C306.592,36.2799906 306.292003,34.5280082 305.692,32.896 C305.091997,31.2639918 304.240005,29.848006 303.136,28.648 C302.031994,27.447994 300.700008,26.5000035 299.14,25.804 C297.579992,25.1079965 295.81601,24.76 293.848,24.76 C291.87999,24.76 290.080008,25.1079965 288.448,25.804 C286.815992,26.5000035 285.400006,27.447994 284.2,28.648 C282.999994,29.848006 282.064003,31.2639918 281.392,32.896 C280.719997,34.5280082 280.384,36.2799906 280.384,38.152 C280.384,40.0240094 280.719997,41.7759918 281.392,43.408 C282.064003,45.0400082 282.999994,46.455994 284.2,47.656 C285.400006,48.856006 286.815992,49.8039965 288.448,50.5 C290.080008,51.1960035 291.87999,51.544 293.848,51.544 C295.81601,51.544 297.579992,51.1960035 299.14,50.5 C300.700008,49.8039965 302.031994,48.856006 303.136,47.656 C304.240005,46.455994 305.091997,45.0400082 305.692,43.408 C306.292003,41.7759918 306.592,40.0240094 306.592,38.152 Z M275.848,21.304 L280.6,21.304 L280.6,26.92 L280.744,26.92 C281.512004,25.7679942 282.423995,24.7840041 283.48,23.968 C284.536005,23.1519959 285.639994,22.4800026 286.792,21.952 C287.944006,21.4239974 289.131994,21.0400012 290.356,20.8 C291.580006,20.5599988 292.743994,20.44 293.848,20.44 C296.488013,20.44 298.899989,20.8839956 301.084,21.772 C303.268011,22.6600044 305.151992,23.8959921 306.736,25.48 C308.320008,27.0640079 309.555995,28.9359892 310.444,31.096 C311.332004,33.2560108 311.776,35.6079873 311.776,38.152 C311.776,40.6960127 311.332004,43.0479892 310.444,45.208 C309.555995,47.3680108 308.320008,49.2399921 306.736,50.824 C305.151992,52.4080079 303.268011,53.6439956 301.084,54.532 C298.899989,55.4200044 296.488013,55.864 293.848,55.864 C292.743994,55.864 291.580006,55.7440012 290.356,55.504 C289.131994,55.2639988 287.944006,54.8800026 286.792,54.352 C285.639994,53.8239974 284.536005,53.1520041 283.48,52.336 C282.423995,51.5199959 281.512004,50.5360058 280.744,49.384 L280.6,49.384 L280.6,75.736 L275.848,75.736 L275.848,21.304 Z M351.884,38.152 C351.884,36.2799906 351.584003,34.5280082 350.984,32.896 C350.383997,31.2639918 349.532005,29.848006 348.428,28.648 C347.323994,27.447994 345.992008,26.5000035 344.432,25.804 C342.871992,25.1079965 341.10801,24.76 339.14,24.76 C337.17199,24.76 335.372008,25.1079965 333.74,25.804 C332.107992,26.5000035 330.692006,27.447994 329.492,28.648 C328.291994,29.848006 327.356003,31.2639918 326.684,32.896 C326.011996,34.5280082 325.676,36.2799906 325.676,38.152 C325.676,40.0240094 326.011996,41.7759918 326.684,43.408 C327.356003,45.0400082 328.291994,46.455994 329.492,47.656 C330.692006,48.856006 332.107992,49.8039965 333.74,50.5 C335.372008,51.1960035 337.17199,51.544 339.14,51.544 C341.10801,51.544 342.871992,51.1960035 344.432,50.5 C345.992008,49.8039965 347.323994,48.856006 348.428,47.656 C349.532005,46.455994 350.383997,45.0400082 350.984,43.408 C351.584003,41.7759918 351.884,40.0240094 351.884,38.152 Z M321.14,21.304 L325.892,21.304 L325.892,26.92 L326.036,26.92 C326.804004,25.7679942 327.715995,24.7840041 328.772,23.968 C329.828005,23.1519959 330.931994,22.4800026 332.084,21.952 C333.236006,21.4239974 334.423994,21.0400012 335.648,20.8 C336.872006,20.5599988 338.035994,20.44 339.14,20.44 C341.780013,20.44 344.191989,20.8839956 346.376,21.772 C348.560011,22.6600044 350.443992,23.8959921 352.028,25.48 C353.612008,27.0640079 354.847995,28.9359892 355.736,31.096 C356.624004,33.2560108 357.068,35.6079873 357.068,38.152 C357.068,40.6960127 356.624004,43.0479892 355.736,45.208 C354.847995,47.3680108 353.612008,49.2399921 352.028,50.824 C350.443992,52.4080079 348.560011,53.6439956 346.376,54.532 C344.191989,55.4200044 341.780013,55.864 339.14,55.864 C338.035994,55.864 336.872006,55.7440012 335.648,55.504 C334.423994,55.2639988 333.236006,54.8800026 332.084,54.352 C330.931994,53.8239974 329.828005,53.1520041 328.772,52.336 C327.715995,51.5199959 326.804004,50.5360058 326.036,49.384 L325.892,49.384 L325.892,75.736 L321.14,75.736 L321.14,21.304 Z M395.304,38.152 C395.304,36.2799906 395.004003,34.5280082 394.404,32.896 C393.803997,31.2639918 392.952005,29.848006 391.848,28.648 C390.743994,27.447994 389.412008,26.5000035 387.852,25.804 C386.291992,25.1079965 384.52801,24.76 382.56,24.76 C380.59199,24.76 378.828008,25.1079965 377.268,25.804 C375.707992,26.5000035 374.388005,27.447994 373.308,28.648 C372.227994,29.848006 371.388003,31.2639918 370.788,32.896 C370.187997,34.5280082 369.888,36.2799906 369.888,38.152 C369.888,40.0240094 370.187997,41.7759918 370.788,43.408 C371.388003,45.0400082 372.227994,46.455994 373.308,47.656 C374.388005,48.856006 375.707992,49.8039965 377.268,50.5 C378.828008,51.1960035 380.59199,51.544 382.56,51.544 C384.52801,51.544 386.291992,51.1960035 387.852,50.5 C389.412008,49.8039965 390.743994,48.856006 391.848,47.656 C392.952005,46.455994 393.803997,45.0400082 394.404,43.408 C395.004003,41.7759918 395.304,40.0240094 395.304,38.152 Z M400.488,38.152 C400.488,40.6960127 400.044004,43.0479892 399.156,45.208 C398.267995,47.3680108 397.032008,49.2399921 395.448,50.824 C393.863992,52.4080079 391.980011,53.6439956 389.796,54.532 C387.611989,55.4200044 385.200013,55.864 382.56,55.864 C379.967987,55.864 377.580011,55.4200044 375.396,54.532 C373.211989,53.6439956 371.328008,52.4080079 369.744,50.824 C368.159992,49.2399921 366.924004,47.3680108 366.036,45.208 C365.147995,43.0479892 364.704,40.6960127 364.704,38.152 C364.704,35.6079873 365.147995,33.2560108 366.036,31.096 C366.924004,28.9359892 368.159992,27.0640079 369.744,25.48 C371.328008,23.8959921 373.211989,22.6600044 375.396,21.772 C377.580011,20.8839956 379.967987,20.44 382.56,20.44 C385.200013,20.44 387.611989,20.8839956 389.796,21.772 C391.980011,22.6600044 393.863992,23.8959921 395.448,25.48 C397.032008,27.0640079 398.267995,28.9359892 399.156,31.096 C400.044004,33.2560108 400.488,35.6079873 400.488,38.152 Z M410.932,31.816 C410.932,30.3279926 410.896,28.8160077 410.824,27.28 C410.751999,25.7439923 410.692,23.7520122 410.644,21.304 L415.324,21.304 L415.324,27.568 L415.468,27.568 C415.804001,26.6559954 416.283997,25.7800042 416.908,24.94 C417.532003,24.0999958 418.287995,23.3440034 419.176,22.672 C420.064004,21.9999966 421.095994,21.460002 422.272,21.052 C423.448006,20.643998 424.779992,20.44 426.268,20.44 C427.612006,20.44 428.787995,20.5839986 429.796,20.872 L428.86,25.552 C428.235997,25.3119988 427.324006,25.192 426.124,25.192 C424.299991,25.192 422.740006,25.5399965 421.444,26.236 C420.147993,26.9320035 419.068004,27.8199946 418.204,28.9 C417.339995,29.9800054 416.704002,31.1439938 416.296,32.392 C415.887998,33.6400062 415.684,34.8399942 415.684,35.992 L415.684,55 L410.932,55 L410.932,31.816 Z M453.056,25.624 L443.336,25.624 L443.336,45.496 C443.336,46.7440062 443.455999,47.763996 443.696,48.556 C443.936001,49.348004 444.271998,49.9599978 444.704,50.392 C445.136002,50.8240022 445.651997,51.1239992 446.252,51.292 C446.852003,51.4600008 447.511996,51.544 448.232,51.544 C449.048004,51.544 449.887995,51.4240012 450.752,51.184 C451.616004,50.9439988 452.407996,50.6320019 453.128,50.248 L453.344,54.64 C451.567991,55.4560041 449.432012,55.864 446.936,55.864 C446.023995,55.864 445.076005,55.7440012 444.092,55.504 C443.107995,55.2639988 442.208004,54.8080034 441.392,54.136 C440.575996,53.4639966 439.904002,52.5520058 439.376,51.4 C438.847997,50.2479942 438.584,48.7360094 438.584,46.864 L438.584,25.624 L431.456,25.624 L431.456,21.304 L438.584,21.304 L438.584,11.8 L443.336,11.8 L443.336,21.304 L453.056,21.304 L453.056,25.624 Z M487.044,35.56 C487.044,32.3439839 486.084009,29.74001 484.164,27.748 C482.24399,25.75599 479.556017,24.76 476.1,24.76 C474.563992,24.76 473.076007,25.059997 471.636,25.66 C470.195992,26.260003 468.936005,27.063995 467.856,28.072 C466.775994,29.080005 465.912003,30.2319935 465.264,31.528 C464.615996,32.8240065 464.292,34.167993 464.292,35.56 L487.044,35.56 Z M464.148,39.448 C464.292,41.1280084 464.699996,42.7119926 465.372,44.2 C466.044003,45.6880074 466.931994,46.9719946 468.036,48.052 C469.140005,49.1320054 470.411992,49.9839969 471.852,50.608 C473.292007,51.2320031 474.851991,51.544 476.532,51.544 C479.076012,51.544 481.27199,50.9560059 483.12,49.78 C484.968009,48.6039941 486.371995,47.2480077 487.332,45.712 L491.004,48.736 C488.98799,51.2800127 486.768012,53.1039945 484.344,54.208 C481.919988,55.3120055 479.316014,55.864 476.532,55.864 C474.035987,55.864 471.72001,55.4200044 469.584,54.532 C467.447989,53.6439956 465.612007,52.4080079 464.076,50.824 C462.539992,49.2399921 461.328004,47.3680108 460.44,45.208 C459.551995,43.0479892 459.108,40.6960127 459.108,38.152 C459.108,35.6079873 459.539995,33.2560108 460.404,31.096 C461.268004,28.9359892 462.467992,27.0640079 464.004,25.48 C465.540007,23.8959921 467.339989,22.6600044 469.404,21.772 C471.46801,20.8839956 473.699988,20.44 476.1,20.44 C478.644012,20.44 480.92399,20.8959954 482.94,21.808 C484.95601,22.7200046 486.647993,23.9319924 488.016,25.444 C489.384007,26.9560076 490.427996,28.7319898 491.148,30.772 C491.868003,32.8120102 492.228,34.9839885 492.228,37.288 L492.228,39.448 L464.148,39.448 Z M505.048,38.152 C505.048,40.0240094 505.347997,41.7759918 505.948,43.408 C506.548003,45.0400082 507.399994,46.455994 508.504,47.656 C509.608005,48.856006 510.939992,49.8039965 512.5,50.5 C514.060007,51.1960035 515.82399,51.544 517.792,51.544 C519.712009,51.544 521.499991,51.1960035 523.156,50.5 C524.812008,49.8039965 526.239994,48.856006 527.44,47.656 C528.640006,46.455994 529.575996,45.0400082 530.248,43.408 C530.920003,41.7759918 531.256,40.0240094 531.256,38.152 C531.256,36.2799906 530.920003,34.5280082 530.248,32.896 C529.575996,31.2639918 528.640006,29.848006 527.44,28.648 C526.239994,27.447994 524.812008,26.5000035 523.156,25.804 C521.499991,25.1079965 519.712009,24.76 517.792,24.76 C515.82399,24.76 514.060007,25.1079965 512.5,25.804 C510.939992,26.5000035 509.608005,27.447994 508.504,28.648 C507.399994,29.848006 506.548003,31.2639918 505.948,32.896 C505.347997,34.5280082 505.048,36.2799906 505.048,38.152 Z M535.792,55 L531.04,55 L531.04,49.384 L530.896,49.384 C530.127996,50.5360058 529.216005,51.5199959 528.16,52.336 C527.103994,53.1520041 526.000005,53.8239974 524.848,54.352 C523.695994,54.8800026 522.508006,55.2639988 521.284,55.504 C520.059993,55.7440012 518.896005,55.864 517.792,55.864 C515.151986,55.864 512.740011,55.4200044 510.556,54.532 C508.371989,53.6439956 506.488008,52.4080079 504.904,50.824 C503.319992,49.2399921 502.084004,47.3680108 501.196,45.208 C500.307995,43.0479892 499.864,40.6960127 499.864,38.152 C499.864,35.6079873 500.307995,33.2560108 501.196,31.096 C502.084004,28.9359892 503.319992,27.0640079 504.904,25.48 C506.488008,23.8959921 508.371989,22.6600044 510.556,21.772 C512.740011,20.8839956 515.151986,20.44 517.792,20.44 C518.896005,20.44 520.059993,20.5599988 521.284,20.8 C522.508006,21.0400012 523.695994,21.4239974 524.848,21.952 C526.000005,22.4800026 527.103994,23.1519959 528.16,23.968 C529.216005,24.7840041 530.127996,25.7679942 530.896,26.92 L531.04,26.92 L531.04,0.568 L535.792,0.568 L535.792,55 Z M599.52,38.152 C599.52,36.2799906 599.220003,34.5280082 598.62,32.896 C598.019997,31.2639918 597.168005,29.848006 596.064,28.648 C594.959994,27.447994 593.628007,26.5000035 592.068,25.804 C590.507992,25.1079965 588.744009,24.76 586.776,24.76 C584.80799,24.76 583.008008,25.1079965 581.376,25.804 C579.743991,26.5000035 578.328006,27.447994 577.128,28.648 C575.927994,29.848006 574.992003,31.2639918 574.32,32.896 C573.647996,34.5280082 573.312,36.2799906 573.312,38.152 C573.312,40.0240094 573.647996,41.7759918 574.32,43.408 C574.992003,45.0400082 575.927994,46.455994 577.128,47.656 C578.328006,48.856006 579.743991,49.8039965 581.376,50.5 C583.008008,51.1960035 584.80799,51.544 586.776,51.544 C588.744009,51.544 590.507992,51.1960035 592.068,50.5 C593.628007,49.8039965 594.959994,48.856006 596.064,47.656 C597.168005,46.455994 598.019997,45.0400082 598.62,43.408 C599.220003,41.7759918 599.52,40.0240094 599.52,38.152 Z M568.776,0.568 L573.528,0.568 L573.528,26.92 L573.672,26.92 C574.440003,25.7679942 575.351994,24.7840041 576.408,23.968 C577.464005,23.1519959 578.567994,22.4800026 579.72,21.952 C580.872005,21.4239974 582.059993,21.0400012 583.284,20.8 C584.508006,20.5599988 585.671994,20.44 586.776,20.44 C589.416013,20.44 591.827989,20.8839956 594.012,21.772 C596.19601,22.6600044 598.079992,23.8959921 599.664,25.48 C601.248007,27.0640079 602.483995,28.9359892 603.372,31.096 C604.260004,33.2560108 604.704,35.6079873 604.704,38.152 C604.704,40.6960127 604.260004,43.0479892 603.372,45.208 C602.483995,47.3680108 601.248007,49.2399921 599.664,50.824 C598.079992,52.4080079 596.19601,53.6439956 594.012,54.532 C591.827989,55.4200044 589.416013,55.864 586.776,55.864 C585.671994,55.864 584.508006,55.7440012 583.284,55.504 C582.059993,55.2639988 580.872005,54.8800026 579.72,54.352 C578.567994,53.8239974 577.464005,53.1520041 576.408,52.336 C575.351994,51.5199959 574.440003,50.5360058 573.672,49.384 L573.528,49.384 L573.528,55 L568.776,55 L568.776,0.568 Z M626.595999,49.168 L636.891999,21.304 L642.651999,21.304 L625.803999,63.784 C624.795994,66.376013 623.512007,68.4399923 621.951999,69.976 C620.391992,71.5120077 618.148014,72.28 615.219999,72.28 C614.499996,72.28 613.768003,72.2560002 613.023999,72.208 C612.279996,72.1599998 611.548003,72.0160012 610.827999,71.776 L611.331999,67.168 C612.340005,67.6960026 613.539993,67.96 614.931999,67.96 C616.612008,67.96 617.931995,67.4320053 618.891999,66.376 C619.852004,65.3199947 620.691996,63.8320096 621.411999,61.912 L623.859999,55.432 L610.035999,21.304 L616.011999,21.304 L626.595999,49.168 Z" id="Supported-by" fill="#9B9B9B"></path>
            </g>
        </g>
    </g>
</svg>