<?xml version="1.0" encoding="UTF-8" standalone="no"?>
<svg width="2170px" height="780px" viewBox="0 0 2170 780" version="1.1" xmlns="http://www.w3.org/2000/svg" xmlns:xlink="http://www.w3.org/1999/xlink">
    <!-- Generator: Sketch 43.2 (39069) - http://www.bohemiancoding.com/sketch -->
    <title>Artboard 2</title>
    <desc>Created with Sketch.</desc>
    <defs></defs>
    <g id="Page-1" stroke="none" stroke-width="1" fill="none" fill-rule="evenodd">
        <g id="Artboard-2">
            <g id="exp-2-copy-6" transform="translate(-113.000000, -153.000000)" fill="#FFFFFF">
                <g id="Group-4-Copy-6">
                    <path d="M1222.87947,557.47971 L1222.87947,490.921948 L1205,490.921948 L1205,571.667933 L1259.44586,571.667933 L1259.44586,557.47971 L1222.87947,557.47971 Z M1286.55345,571.667933 L1286.55345,512.492661 L1269.36609,512.492661 L1269.36609,571.667933 L1286.55345,571.667933 Z M1267.28976,496.80487 C1267.28976,502.457089 1271.90382,506.379036 1278.13279,506.379036 C1284.24642,506.379036 1289.09118,502.457089 1289.09118,496.80487 C1289.09118,491.037299 1284.24642,487 1278.13279,487 C1271.90382,487 1267.28976,491.037299 1267.28976,496.80487 Z M1315.27595,541.90727 C1315.27595,551.366085 1321.04352,558.979278 1330.50233,558.979278 C1338.92298,558.979278 1345.95942,553.557762 1345.95942,542.830081 C1345.95942,531.871697 1339.38439,525.181316 1330.04093,525.181316 C1320.58211,525.181316 1315.27595,532.794509 1315.27595,541.90727 Z M1362.68537,512.492661 L1362.68537,567.515282 C1362.68537,590.816267 1347.45899,599.929028 1330.61768,599.929028 C1317.46762,599.929028 1308.58556,596.583837 1302.58729,591.739078 L1309.39302,578.358315 C1312.85357,581.357451 1320.58211,585.048696 1327.15714,585.048696 C1336.0392,585.048696 1345.49801,582.395614 1345.49801,569.476256 L1345.49801,563.016577 C1341.23001,569.130202 1335.57779,572.936798 1326.92644,572.936798 C1308.93162,572.936798 1298.08859,559.09463 1298.08859,541.791918 C1298.08859,525.181316 1308.12416,511.223796 1326.58038,511.223796 C1334.53963,511.223796 1341.46071,515.145743 1345.49801,520.56726 L1345.49801,512.492661 L1362.68537,512.492661 Z M1377.68106,571.667933 L1394.86842,571.667933 L1394.86842,539.946296 C1394.86842,531.756346 1398.21361,525.412019 1406.17285,525.412019 C1414.1321,525.412019 1417.13124,531.640995 1417.13124,539.830945 L1417.13124,571.667933 L1434.3186,571.667933 L1434.3186,539.48489 C1434.3186,524.489207 1429.81989,511.223796 1413.20929,511.223796 C1406.0575,511.223796 1399.82853,513.646175 1394.86842,520.56726 L1394.86842,488.268865 L1377.68106,488.268865 L1377.68106,571.667933 Z M1468.92402,497.958384 L1455.65861,497.958384 L1453.00553,512.492661 L1442.8546,512.492661 L1442.8546,525.988776 L1451.73666,525.988776 L1451.73666,552.058194 C1451.73666,569.245553 1461.88758,572.936798 1472.26921,572.936798 C1486.22673,572.936798 1491.9943,564.05474 1491.9943,555.288033 C1491.9943,553.211708 1491.64825,550.443274 1490.61008,548.251597 L1476.99862,548.251597 C1477.34467,549.174409 1477.80608,551.596788 1477.80608,553.327059 C1477.80608,556.095493 1476.65256,558.863927 1473.30737,558.863927 C1469.96218,558.863927 1468.92402,556.210844 1468.92402,553.673113 L1468.92402,525.988776 L1485.30392,525.988776 L1485.30392,512.492661 L1468.92402,512.492661 L1468.92402,497.958384 Z M1597.31014,571.667933 L1597.31014,490.921948 L1579.43067,490.921948 L1579.43067,525.988776 L1548.74719,525.988776 L1548.74719,490.921948 L1530.86773,490.921948 L1530.86773,571.667933 L1548.74719,571.667933 L1548.74719,540.176999 L1579.43067,540.176999 L1579.43067,571.667933 L1597.31014,571.667933 Z M1609.53739,542.022621 C1609.53739,523.566396 1624.87912,511.223796 1642.06648,511.223796 C1659.36919,511.223796 1674.59558,523.681748 1674.59558,542.022621 C1674.59558,560.478846 1659.36919,572.936798 1642.06648,572.936798 C1624.87912,572.936798 1609.53739,560.594198 1609.53739,542.022621 Z M1626.26334,542.022621 C1626.26334,551.366085 1633.64583,558.171818 1642.06648,558.171818 C1650.60249,558.171818 1657.86963,551.250734 1657.86963,542.022621 C1657.86963,532.90986 1650.60249,525.988776 1642.06648,525.988776 C1633.64583,525.988776 1626.26334,532.794509 1626.26334,542.022621 Z M1741.61475,512.492661 L1724.42739,512.492661 L1724.42739,544.214298 C1724.42739,552.404248 1721.0822,558.748575 1713.12295,558.748575 C1705.1637,558.748575 1702.16457,552.519599 1702.16457,544.329649 L1702.16457,512.492661 L1684.97721,512.492661 L1684.97721,544.675704 C1684.97721,559.671387 1689.47591,572.936798 1706.08651,572.936798 C1713.2383,572.936798 1719.46728,570.514419 1724.42739,563.593334 L1724.42739,571.667933 L1741.61475,571.667933 L1741.61475,512.492661 Z M1751.88102,557.825764 C1755.91832,570.168365 1767.91487,572.936798 1776.68157,572.936798 C1789.71628,572.936798 1800.90537,566.707822 1800.90537,554.595925 C1800.90537,550.673977 1799.6365,541.561216 1785.67898,537.523916 L1776.79693,534.063374 C1773.79779,532.90986 1771.26006,531.525643 1771.26006,528.987912 C1771.26006,525.988776 1774.60525,524.143153 1777.83509,524.143153 C1780.48817,524.143153 1784.75617,525.065964 1786.25574,529.795372 L1799.52115,523.681748 C1793.98429,513.069418 1784.98688,511.223796 1778.18114,511.223796 C1765.49249,511.223796 1754.99551,517.452772 1754.99551,529.333966 C1754.99551,531.987049 1755.68762,541.330513 1769.76049,546.290623 L1780.14212,550.673977 C1783.37196,551.827491 1784.52547,553.211708 1784.52547,555.172682 C1784.52547,558.171818 1780.60352,559.671387 1776.79693,559.671387 C1772.06752,559.671387 1766.06925,557.595061 1764.33897,550.789328 L1751.88102,557.825764 Z M1840.70161,525.181316 C1835.16474,525.181316 1827.78225,527.719047 1825.70592,535.678294 L1855.35123,535.678294 C1854.19772,528.065101 1846.46918,525.181316 1840.70161,525.181316 Z M1859.84994,551.827491 L1869.77016,561.286306 C1861.34951,570.514419 1850.16042,572.936798 1842.20117,572.936798 C1820.28441,572.936798 1808.28786,559.209981 1808.28786,542.368676 C1808.28786,524.950613 1821.89933,511.223796 1840.93231,511.223796 C1857.31221,511.223796 1873,522.528233 1873,546.059921 L1825.35987,546.059921 C1825.70592,553.442411 1832.51166,558.863927 1843.47004,558.863927 C1849.58366,558.863927 1855.69729,555.749439 1859.84994,551.827491 Z" id="Light-House-Copy-3"></path>
                    <g id="Group-12" transform="translate(1012.000000, 463.000000)">
                        <circle id="Oval-2-Copy" cx="40" cy="70" r="10"></circle>
                        <circle id="Oval-2-Copy-41" cx="10" cy="70" r="10"></circle>
                        <circle id="Oval-2-Copy-7" cx="40" cy="100" r="10"></circle>
                        <circle id="Oval-2-Copy-2" cx="70" cy="70" r="10"></circle>
                        <circle id="Oval-2-Copy-8" cx="70" cy="100" r="10"></circle>
                        <circle id="Oval-2-Copy-3" cx="100" cy="70" r="10"></circle>
                        <circle id="Oval-2-Copy-9" cx="100" cy="100" r="10"></circle>
                        <circle id="Oval-2-Copy-4" cx="130" cy="70" r="10"></circle>
                        <circle id="Oval-2-Copy-15" cx="70" cy="130" r="10"></circle>
                        <circle id="Oval-2-Copy-20" transform="translate(100.000000, 40.000000) rotate(-180.000000) translate(-100.000000, -40.000000) " cx="100" cy="40" r="10"></circle>
                        <circle id="Oval-2-Copy-22" transform="translate(70.000000, 40.000000) rotate(-180.000000) translate(-70.000000, -40.000000) " cx="70" cy="40" r="10"></circle>
                        <circle id="Oval-2-Copy-23" transform="translate(70.000000, 10.000000) rotate(-180.000000) translate(-70.000000, -10.000000) " cx="70" cy="10" r="10"></circle>
                        <circle id="Oval-2-Copy-24" transform="translate(40.000000, 40.000000) rotate(-180.000000) translate(-40.000000, -40.000000) " cx="40" cy="40" r="10"></circle>
                    </g>
                </g>
                <path d="M1231.032,339.448 C1228.77599,336.135983 1225.48802,334.48 1221.168,334.48 C1219.82399,334.48 1218.50401,334.659998 1217.208,335.02 C1215.91199,335.380002 1214.74801,335.931996 1213.716,336.676 C1212.68399,337.420004 1211.856,338.379994 1211.232,339.556 C1210.608,340.732006 1210.296,342.111992 1210.296,343.696 C1210.296,346.000012 1210.94399,347.787994 1212.24,349.06 C1213.53601,350.332006 1215.14399,351.375996 1217.064,352.192 C1218.98401,353.008004 1221.08399,353.739997 1223.364,354.388 C1225.64401,355.036003 1227.74399,355.899995 1229.664,356.98 C1231.58401,358.060005 1233.19199,359.487991 1234.488,361.264 C1235.78401,363.040009 1236.432,365.463985 1236.432,368.536 C1236.432,370.840012 1235.94,372.915991 1234.956,374.764 C1233.972,376.612009 1232.67601,378.159994 1231.068,379.408 C1229.45999,380.656006 1227.66001,381.615997 1225.668,382.288 C1223.67599,382.960003 1221.67201,383.296 1219.656,383.296 C1216.53598,383.296 1213.57201,382.708006 1210.764,381.532 C1207.95599,380.355994 1205.56801,378.424013 1203.6,375.736 L1208.28,372.352 C1209.38401,374.224009 1210.91999,375.723994 1212.888,376.852 C1214.85601,377.980006 1217.18399,378.544 1219.872,378.544 C1221.16801,378.544 1222.46399,378.340002 1223.76,377.932 C1225.05601,377.523998 1226.21999,376.924004 1227.252,376.132 C1228.28401,375.339996 1229.136,374.368006 1229.808,373.216 C1230.48,372.063994 1230.816,370.744007 1230.816,369.256 C1230.816,367.479991 1230.444,366.004006 1229.7,364.828 C1228.956,363.651994 1227.97201,362.668004 1226.748,361.876 C1225.52399,361.083996 1224.13201,360.424003 1222.572,359.896 C1221.01199,359.367997 1219.40401,358.840003 1217.748,358.312 C1216.09199,357.783997 1214.48401,357.184003 1212.924,356.512 C1211.36399,355.839997 1209.97201,354.988005 1208.748,353.956 C1207.52399,352.923995 1206.54,351.628008 1205.796,350.068 C1205.052,348.507992 1204.68,346.552012 1204.68,344.2 C1204.68,341.751988 1205.148,339.616009 1206.084,337.792 C1207.02,335.967991 1208.26799,334.456006 1209.828,333.256 C1211.38801,332.055994 1213.15199,331.168003 1215.12,330.592 C1217.08801,330.015997 1219.10399,329.728 1221.168,329.728 C1224.04801,329.728 1226.66399,330.183995 1229.016,331.096 C1231.36801,332.008005 1233.55199,333.615988 1235.568,335.92 L1231.032,339.448 Z M1270.852,382 C1270.756,381.087995 1270.696,380.188004 1270.672,379.3 C1270.648,378.411996 1270.636,377.512005 1270.636,376.6 L1270.492,376.6 C1269.964,377.512005 1269.292,378.351996 1268.476,379.12 C1267.66,379.888004 1266.748,380.547997 1265.74,381.1 C1264.73199,381.652003 1263.66401,382.083998 1262.536,382.396 C1261.40799,382.708002 1260.29201,382.864 1259.188,382.864 C1254.86798,382.864 1251.67601,381.724011 1249.612,379.444 C1247.54799,377.163989 1246.516,373.912021 1246.516,369.688 L1246.516,348.304 L1251.268,348.304 L1251.268,366.952 C1251.268,368.824009 1251.412,370.479993 1251.7,371.92 C1251.988,373.360007 1252.48,374.571995 1253.176,375.556 C1253.872,376.540005 1254.80799,377.283997 1255.984,377.788 C1257.16001,378.292003 1258.63599,378.544 1260.412,378.544 C1260.652,378.544 1261.32399,378.448001 1262.428,378.256 C1263.53201,378.063999 1264.69599,377.536004 1265.92,376.672 C1267.14401,375.807996 1268.236,374.512009 1269.196,372.784 C1270.156,371.055991 1270.636,368.656015 1270.636,365.584 L1270.636,348.304 L1275.388,348.304 L1275.388,374.584 C1275.388,375.496005 1275.424,376.647993 1275.496,378.04 C1275.568,379.432007 1275.652,380.751994 1275.748,382 L1270.852,382 Z M1318.592,365.152 C1318.592,363.279991 1318.292,361.528008 1317.692,359.896 C1317.092,358.263992 1316.24001,356.848006 1315.136,355.648 C1314.03199,354.447994 1312.70001,353.500003 1311.14,352.804 C1309.57999,352.107997 1307.81601,351.76 1305.848,351.76 C1303.87999,351.76 1302.08001,352.107997 1300.448,352.804 C1298.81599,353.500003 1297.40001,354.447994 1296.2,355.648 C1294.99999,356.848006 1294.064,358.263992 1293.392,359.896 C1292.72,361.528008 1292.384,363.279991 1292.384,365.152 C1292.384,367.024009 1292.72,368.775992 1293.392,370.408 C1294.064,372.040008 1294.99999,373.455994 1296.2,374.656 C1297.40001,375.856006 1298.81599,376.803997 1300.448,377.5 C1302.08001,378.196003 1303.87999,378.544 1305.848,378.544 C1307.81601,378.544 1309.57999,378.196003 1311.14,377.5 C1312.70001,376.803997 1314.03199,375.856006 1315.136,374.656 C1316.24001,373.455994 1317.092,372.040008 1317.692,370.408 C1318.292,368.775992 1318.592,367.024009 1318.592,365.152 Z M1287.848,348.304 L1292.6,348.304 L1292.6,353.92 L1292.744,353.92 C1293.512,352.767994 1294.42399,351.784004 1295.48,350.968 C1296.53601,350.151996 1297.63999,349.480003 1298.792,348.952 C1299.94401,348.423997 1301.13199,348.040001 1302.356,347.8 C1303.58001,347.559999 1304.74399,347.44 1305.848,347.44 C1308.48801,347.44 1310.89999,347.883996 1313.084,348.772 C1315.26801,349.660004 1317.15199,350.895992 1318.736,352.48 C1320.32001,354.064008 1321.556,355.935989 1322.444,358.096 C1323.332,360.256011 1323.776,362.607987 1323.776,365.152 C1323.776,367.696013 1323.332,370.047989 1322.444,372.208 C1321.556,374.368011 1320.32001,376.239992 1318.736,377.824 C1317.15199,379.408008 1315.26801,380.643996 1313.084,381.532 C1310.89999,382.420004 1308.48801,382.864 1305.848,382.864 C1304.74399,382.864 1303.58001,382.744001 1302.356,382.504 C1301.13199,382.263999 1299.94401,381.880003 1298.792,381.352 C1297.63999,380.823997 1296.53601,380.152004 1295.48,379.336 C1294.42399,378.519996 1293.512,377.536006 1292.744,376.384 L1292.6,376.384 L1292.6,402.736 L1287.848,402.736 L1287.848,348.304 Z M1363.884,365.152 C1363.884,363.279991 1363.584,361.528008 1362.984,359.896 C1362.384,358.263992 1361.53201,356.848006 1360.428,355.648 C1359.32399,354.447994 1357.99201,353.500003 1356.432,352.804 C1354.87199,352.107997 1353.10801,351.76 1351.14,351.76 C1349.17199,351.76 1347.37201,352.107997 1345.74,352.804 C1344.10799,353.500003 1342.69201,354.447994 1341.492,355.648 C1340.29199,356.848006 1339.356,358.263992 1338.684,359.896 C1338.012,361.528008 1337.676,363.279991 1337.676,365.152 C1337.676,367.024009 1338.012,368.775992 1338.684,370.408 C1339.356,372.040008 1340.29199,373.455994 1341.492,374.656 C1342.69201,375.856006 1344.10799,376.803997 1345.74,377.5 C1347.37201,378.196003 1349.17199,378.544 1351.14,378.544 C1353.10801,378.544 1354.87199,378.196003 1356.432,377.5 C1357.99201,376.803997 1359.32399,375.856006 1360.428,374.656 C1361.53201,373.455994 1362.384,372.040008 1362.984,370.408 C1363.584,368.775992 1363.884,367.024009 1363.884,365.152 Z M1333.14,348.304 L1337.892,348.304 L1337.892,353.92 L1338.036,353.92 C1338.804,352.767994 1339.71599,351.784004 1340.772,350.968 C1341.82801,350.151996 1342.93199,349.480003 1344.084,348.952 C1345.23601,348.423997 1346.42399,348.040001 1347.648,347.8 C1348.87201,347.559999 1350.03599,347.44 1351.14,347.44 C1353.78001,347.44 1356.19199,347.883996 1358.376,348.772 C1360.56001,349.660004 1362.44399,350.895992 1364.028,352.48 C1365.61201,354.064008 1366.848,355.935989 1367.736,358.096 C1368.624,360.256011 1369.068,362.607987 1369.068,365.152 C1369.068,367.696013 1368.624,370.047989 1367.736,372.208 C1366.848,374.368011 1365.61201,376.239992 1364.028,377.824 C1362.44399,379.408008 1360.56001,380.643996 1358.376,381.532 C1356.19199,382.420004 1353.78001,382.864 1351.14,382.864 C1350.03599,382.864 1348.87201,382.744001 1347.648,382.504 C1346.42399,382.263999 1345.23601,381.880003 1344.084,381.352 C1342.93199,380.823997 1341.82801,380.152004 1340.772,379.336 C1339.71599,378.519996 1338.804,377.536006 1338.036,376.384 L1337.892,376.384 L1337.892,402.736 L1333.14,402.736 L1333.14,348.304 Z M1407.304,365.152 C1407.304,363.279991 1407.004,361.528008 1406.404,359.896 C1405.804,358.263992 1404.95201,356.848006 1403.848,355.648 C1402.74399,354.447994 1401.41201,353.500003 1399.852,352.804 C1398.29199,352.107997 1396.52801,351.76 1394.56,351.76 C1392.59199,351.76 1390.82801,352.107997 1389.268,352.804 C1387.70799,353.500003 1386.38801,354.447994 1385.308,355.648 C1384.22799,356.848006 1383.388,358.263992 1382.788,359.896 C1382.188,361.528008 1381.888,363.279991 1381.888,365.152 C1381.888,367.024009 1382.188,368.775992 1382.788,370.408 C1383.388,372.040008 1384.22799,373.455994 1385.308,374.656 C1386.38801,375.856006 1387.70799,376.803997 1389.268,377.5 C1390.82801,378.196003 1392.59199,378.544 1394.56,378.544 C1396.52801,378.544 1398.29199,378.196003 1399.852,377.5 C1401.41201,376.803997 1402.74399,375.856006 1403.848,374.656 C1404.95201,373.455994 1405.804,372.040008 1406.404,370.408 C1407.004,368.775992 1407.304,367.024009 1407.304,365.152 Z M1412.488,365.152 C1412.488,367.696013 1412.044,370.047989 1411.156,372.208 C1410.268,374.368011 1409.03201,376.239992 1407.448,377.824 C1405.86399,379.408008 1403.98001,380.643996 1401.796,381.532 C1399.61199,382.420004 1397.20001,382.864 1394.56,382.864 C1391.96799,382.864 1389.58001,382.420004 1387.396,381.532 C1385.21199,380.643996 1383.32801,379.408008 1381.744,377.824 C1380.15999,376.239992 1378.924,374.368011 1378.036,372.208 C1377.148,370.047989 1376.704,367.696013 1376.704,365.152 C1376.704,362.607987 1377.148,360.256011 1378.036,358.096 C1378.924,355.935989 1380.15999,354.064008 1381.744,352.48 C1383.32801,350.895992 1385.21199,349.660004 1387.396,348.772 C1389.58001,347.883996 1391.96799,347.44 1394.56,347.44 C1397.20001,347.44 1399.61199,347.883996 1401.796,348.772 C1403.98001,349.660004 1405.86399,350.895992 1407.448,352.48 C1409.03201,354.064008 1410.268,355.935989 1411.156,358.096 C1412.044,360.256011 1412.488,362.607987 1412.488,365.152 Z M1422.932,358.816 C1422.932,357.327993 1422.896,355.816008 1422.824,354.28 C1422.752,352.743992 1422.692,350.752012 1422.644,348.304 L1427.324,348.304 L1427.324,354.568 L1427.468,354.568 C1427.804,353.655995 1428.284,352.780004 1428.908,351.94 C1429.532,351.099996 1430.288,350.344003 1431.176,349.672 C1432.064,348.999997 1433.09599,348.460002 1434.272,348.052 C1435.44801,347.643998 1436.77999,347.44 1438.268,347.44 C1439.61201,347.44 1440.78799,347.583999 1441.796,347.872 L1440.86,352.552 C1440.236,352.311999 1439.32401,352.192 1438.124,352.192 C1436.29999,352.192 1434.74001,352.539997 1433.444,353.236 C1432.14799,353.932003 1431.068,354.819995 1430.204,355.9 C1429.34,356.980005 1428.704,358.143994 1428.296,359.392 C1427.888,360.640006 1427.684,361.839994 1427.684,362.992 L1427.684,382 L1422.932,382 L1422.932,358.816 Z M1465.056,352.624 L1455.336,352.624 L1455.336,372.496 C1455.336,373.744006 1455.456,374.763996 1455.696,375.556 C1455.936,376.348004 1456.272,376.959998 1456.704,377.392 C1457.136,377.824002 1457.652,378.123999 1458.252,378.292 C1458.852,378.460001 1459.512,378.544 1460.232,378.544 C1461.048,378.544 1461.888,378.424001 1462.752,378.184 C1463.616,377.943999 1464.408,377.632002 1465.128,377.248 L1465.344,381.64 C1463.56799,382.456004 1461.43201,382.864 1458.936,382.864 C1458.024,382.864 1457.076,382.744001 1456.092,382.504 C1455.10799,382.263999 1454.208,381.808003 1453.392,381.136 C1452.576,380.463997 1451.904,379.552006 1451.376,378.4 C1450.848,377.247994 1450.584,375.736009 1450.584,373.864 L1450.584,352.624 L1443.456,352.624 L1443.456,348.304 L1450.584,348.304 L1450.584,338.8 L1455.336,338.8 L1455.336,348.304 L1465.056,348.304 L1465.056,352.624 Z M1499.044,362.56 C1499.044,359.343984 1498.08401,356.74001 1496.164,354.748 C1494.24399,352.75599 1491.55602,351.76 1488.1,351.76 C1486.56399,351.76 1485.07601,352.059997 1483.636,352.66 C1482.19599,353.260003 1480.93601,354.063995 1479.856,355.072 C1478.77599,356.080005 1477.912,357.231994 1477.264,358.528 C1476.616,359.824006 1476.292,361.167993 1476.292,362.56 L1499.044,362.56 Z M1476.148,366.448 C1476.292,368.128008 1476.7,369.711993 1477.372,371.2 C1478.044,372.688007 1478.93199,373.971995 1480.036,375.052 C1481.14001,376.132005 1482.41199,376.983997 1483.852,377.608 C1485.29201,378.232003 1486.85199,378.544 1488.532,378.544 C1491.07601,378.544 1493.27199,377.956006 1495.12,376.78 C1496.96801,375.603994 1498.37199,374.248008 1499.332,372.712 L1503.004,375.736 C1500.98799,378.280013 1498.76801,380.103994 1496.344,381.208 C1493.91999,382.312006 1491.31601,382.864 1488.532,382.864 C1486.03599,382.864 1483.72001,382.420004 1481.584,381.532 C1479.44799,380.643996 1477.61201,379.408008 1476.076,377.824 C1474.53999,376.239992 1473.328,374.368011 1472.44,372.208 C1471.552,370.047989 1471.108,367.696013 1471.108,365.152 C1471.108,362.607987 1471.54,360.256011 1472.404,358.096 C1473.268,355.935989 1474.46799,354.064008 1476.004,352.48 C1477.54001,350.895992 1479.33999,349.660004 1481.404,348.772 C1483.46801,347.883996 1485.69999,347.44 1488.1,347.44 C1490.64401,347.44 1492.92399,347.895995 1494.94,348.808 C1496.95601,349.720005 1498.64799,350.931992 1500.016,352.444 C1501.38401,353.956008 1502.428,355.73199 1503.148,357.772 C1503.868,359.81201 1504.228,361.983988 1504.228,364.288 L1504.228,366.448 L1476.148,366.448 Z M1517.048,365.152 C1517.048,367.024009 1517.348,368.775992 1517.948,370.408 C1518.548,372.040008 1519.39999,373.455994 1520.504,374.656 C1521.60801,375.856006 1522.93999,376.803997 1524.5,377.5 C1526.06001,378.196003 1527.82399,378.544 1529.792,378.544 C1531.71201,378.544 1533.49999,378.196003 1535.156,377.5 C1536.81201,376.803997 1538.23999,375.856006 1539.44,374.656 C1540.64001,373.455994 1541.576,372.040008 1542.248,370.408 C1542.92,368.775992 1543.256,367.024009 1543.256,365.152 C1543.256,363.279991 1542.92,361.528008 1542.248,359.896 C1541.576,358.263992 1540.64001,356.848006 1539.44,355.648 C1538.23999,354.447994 1536.81201,353.500003 1535.156,352.804 C1533.49999,352.107997 1531.71201,351.76 1529.792,351.76 C1527.82399,351.76 1526.06001,352.107997 1524.5,352.804 C1522.93999,353.500003 1521.60801,354.447994 1520.504,355.648 C1519.39999,356.848006 1518.548,358.263992 1517.948,359.896 C1517.348,361.528008 1517.048,363.279991 1517.048,365.152 Z M1547.792,382 L1543.04,382 L1543.04,376.384 L1542.896,376.384 C1542.128,377.536006 1541.216,378.519996 1540.16,379.336 C1539.10399,380.152004 1538.00001,380.823997 1536.848,381.352 C1535.69599,381.880003 1534.50801,382.263999 1533.284,382.504 C1532.05999,382.744001 1530.89601,382.864 1529.792,382.864 C1527.15199,382.864 1524.74001,382.420004 1522.556,381.532 C1520.37199,380.643996 1518.48801,379.408008 1516.904,377.824 C1515.31999,376.239992 1514.084,374.368011 1513.196,372.208 C1512.308,370.047989 1511.864,367.696013 1511.864,365.152 C1511.864,362.607987 1512.308,360.256011 1513.196,358.096 C1514.084,355.935989 1515.31999,354.064008 1516.904,352.48 C1518.48801,350.895992 1520.37199,349.660004 1522.556,348.772 C1524.74001,347.883996 1527.15199,347.44 1529.792,347.44 C1530.89601,347.44 1532.05999,347.559999 1533.284,347.8 C1534.50801,348.040001 1535.69599,348.423997 1536.848,348.952 C1538.00001,349.480003 1539.10399,350.151996 1540.16,350.968 C1541.216,351.784004 1542.128,352.767994 1542.896,353.92 L1543.04,353.92 L1543.04,327.568 L1547.792,327.568 L1547.792,382 Z M1611.52,365.152 C1611.52,363.279991 1611.22,361.528008 1610.62,359.896 C1610.02,358.263992 1609.16801,356.848006 1608.064,355.648 C1606.95999,354.447994 1605.62801,353.500003 1604.068,352.804 C1602.50799,352.107997 1600.74401,351.76 1598.776,351.76 C1596.80799,351.76 1595.00801,352.107997 1593.376,352.804 C1591.74399,353.500003 1590.32801,354.447994 1589.128,355.648 C1587.92799,356.848006 1586.992,358.263992 1586.32,359.896 C1585.648,361.528008 1585.312,363.279991 1585.312,365.152 C1585.312,367.024009 1585.648,368.775992 1586.32,370.408 C1586.992,372.040008 1587.92799,373.455994 1589.128,374.656 C1590.32801,375.856006 1591.74399,376.803997 1593.376,377.5 C1595.00801,378.196003 1596.80799,378.544 1598.776,378.544 C1600.74401,378.544 1602.50799,378.196003 1604.068,377.5 C1605.62801,376.803997 1606.95999,375.856006 1608.064,374.656 C1609.16801,373.455994 1610.02,372.040008 1610.62,370.408 C1611.22,368.775992 1611.52,367.024009 1611.52,365.152 Z M1580.776,327.568 L1585.528,327.568 L1585.528,353.92 L1585.672,353.92 C1586.44,352.767994 1587.35199,351.784004 1588.408,350.968 C1589.464,350.151996 1590.56799,349.480003 1591.72,348.952 C1592.87201,348.423997 1594.05999,348.040001 1595.284,347.8 C1596.50801,347.559999 1597.67199,347.44 1598.776,347.44 C1601.41601,347.44 1603.82799,347.883996 1606.012,348.772 C1608.19601,349.660004 1610.07999,350.895992 1611.664,352.48 C1613.24801,354.064008 1614.484,355.935989 1615.372,358.096 C1616.26,360.256011 1616.704,362.607987 1616.704,365.152 C1616.704,367.696013 1616.26,370.047989 1615.372,372.208 C1614.484,374.368011 1613.24801,376.239992 1611.664,377.824 C1610.07999,379.408008 1608.19601,380.643996 1606.012,381.532 C1603.82799,382.420004 1601.41601,382.864 1598.776,382.864 C1597.67199,382.864 1596.50801,382.744001 1595.284,382.504 C1594.05999,382.263999 1592.87201,381.880003 1591.72,381.352 C1590.56799,380.823997 1589.464,380.152004 1588.408,379.336 C1587.35199,378.519996 1586.44,377.536006 1585.672,376.384 L1585.528,376.384 L1585.528,382 L1580.776,382 L1580.776,327.568 Z M1638.596,376.168 L1648.892,348.304 L1654.652,348.304 L1637.804,390.784 C1636.79599,393.376013 1635.51201,395.439992 1633.952,396.976 C1632.39199,398.512008 1630.14801,399.28 1627.22,399.28 C1626.5,399.28 1625.768,399.256 1625.024,399.208 C1624.28,399.16 1623.548,399.016001 1622.828,398.776 L1623.332,394.168 C1624.34,394.696003 1625.53999,394.96 1626.932,394.96 C1628.61201,394.96 1629.93199,394.432005 1630.892,393.376 C1631.852,392.319995 1632.692,390.83201 1633.412,388.912 L1635.86,382.432 L1622.036,348.304 L1628.012,348.304 L1638.596,376.168 Z" id="Supported-by"></path>
            </g>
            <g id="Group-3" transform="translate(4.871560, 31.468293)">
                <ellipse id="Oval" stroke="#FFFFFF" stroke-width="10" cx="306.908257" cy="353.5" rx="306.908257" ry="306.943902"></ellipse>
                <path d="M102.67528,58.7831841 L102.67528,43.7245617 L141.567123,43.7245617 L141.567123,79.3287538 C137.787646,82.986737 132.31155,86.2077462 125.138672,88.9918779 C117.965793,91.7760095 110.701585,93.1680545 103.345829,93.1680545 C93.9987348,93.1680545 85.8506296,91.2069985 78.9012686,87.2848276 C71.9519076,83.3626566 66.7298053,77.7538332 63.234805,70.4581888 C59.7398048,63.1625445 57.9923308,55.2268721 57.9923308,46.6509337 C57.9923308,37.3433986 59.9429994,29.0724161 63.8443951,21.8377382 C67.7457907,14.6030602 73.4555602,9.05520223 80.9738747,5.19399771 C86.7040496,2.22696687 93.8361815,0.743473704 102.370485,0.743473704 C113.465078,0.743473704 122.13133,3.07032258 128.369499,7.72409013 C134.607668,12.3778577 138.620762,18.809715 140.408902,27.0198552 L122.486955,30.3729897 C121.22713,25.9834098 118.859912,22.5185388 115.385232,19.9782727 C111.910551,17.4380065 107.572345,16.1678925 102.370485,16.1678925 C94.4864141,16.1678925 88.2178594,18.6674769 83.5646323,23.6667207 C78.9114052,28.6659644 76.5848265,36.0834302 76.5848265,45.9193407 C76.5848265,56.5274921 78.9418844,64.4834862 83.6560708,69.7875619 C88.3702572,75.0916376 94.5473744,77.7436357 102.187608,77.7436357 C105.967085,77.7436357 109.756665,77.0018891 113.556461,75.5183737 C117.356258,74.0348582 120.617532,72.2363768 123.340381,70.1228754 L123.340381,58.7831841 L102.67528,58.7831841 Z M174.484984,91.6439024 L157.355505,91.6439024 L157.355505,26.897923 L173.265804,26.897923 L173.265804,36.1038014 C175.988653,31.7548658 178.437149,28.8894886 180.611364,27.5075838 C182.785579,26.1256791 185.254394,25.434737 188.017883,25.434737 C191.919278,25.434737 195.678379,26.5117937 199.295298,28.6659394 L193.991865,43.6026296 C191.106458,41.7329937 188.424288,40.7981898 185.945277,40.7981898 C183.547544,40.7981898 181.515597,41.4586491 179.849376,42.7795875 C178.183155,44.1005259 176.87255,46.4883402 175.917521,49.9431021 C174.962492,53.3978641 174.484984,60.6324335 174.484984,71.6470274 L174.484984,91.6439024 Z M244.161124,71.0373666 L261.229644,73.9027725 C259.035109,80.1619882 255.570641,84.927456 250.836135,88.1993188 C246.101628,91.4711816 240.178505,93.1070884 233.066585,93.1070884 C221.809433,93.1070884 213.478453,89.4288382 208.073394,82.0722275 C203.806243,76.1788101 201.672699,68.7410224 201.672699,59.7586414 C201.672699,49.0285572 204.476785,40.6254829 210.085042,34.5491663 C215.693298,28.4728498 222.784791,25.434737 231.359733,25.434737 C240.991304,25.434737 248.590784,28.6151025 254.1584,34.9759289 C259.726017,41.3367553 262.387867,51.08107 262.14403,64.2091654 L219.228892,64.2091654 C219.350811,69.2896977 220.732534,73.2422925 223.374104,76.0670684 C226.015674,78.8918443 229.307427,80.3042111 233.249462,80.3042111 C235.931672,80.3042111 238.187132,79.5726255 240.015912,78.1094322 C241.844691,76.6462389 243.226414,74.2889073 244.161124,71.0373666 Z M245.136468,53.7229992 C245.014549,48.7643997 243.734423,44.9947014 241.296051,42.413791 C238.857678,39.8328806 235.891037,38.5424447 232.396036,38.5424447 C228.657199,38.5424447 225.56864,39.904007 223.130268,42.6271723 C220.691896,45.3503375 219.493047,49.0489096 219.533687,53.7229992 L245.136468,53.7229992 Z M313.593427,71.0373666 L330.661948,73.9027725 C328.467413,80.1619882 325.002944,84.927456 320.268438,88.1993188 C315.533932,91.4711816 309.610808,93.1070884 302.498889,93.1070884 C291.241737,93.1070884 282.910757,89.4288382 277.505698,82.0722275 C273.238547,76.1788101 271.105003,68.7410224 271.105003,59.7586414 C271.105003,49.0285572 273.909089,40.6254829 279.517345,34.5491663 C285.125601,28.4728498 292.217094,25.434737 300.792037,25.434737 C310.423608,25.434737 318.023087,28.6151025 323.590704,34.9759289 C329.158321,41.3367553 331.82017,51.08107 331.576333,64.2091654 L288.661196,64.2091654 C288.783114,69.2896977 290.164838,73.2422925 292.806408,76.0670684 C295.447978,78.8918443 298.739731,80.3042111 302.681766,80.3042111 C305.363976,80.3042111 307.619436,79.5726255 309.448215,78.1094322 C311.276995,76.6462389 312.658718,74.2889073 313.593427,71.0373666 Z M314.568772,53.7229992 C314.446853,48.7643997 313.166727,44.9947014 310.728354,42.413791 C308.289982,39.8328806 305.32334,38.5424447 301.82834,38.5424447 C298.089503,38.5424447 295.000944,39.904007 292.562572,42.6271723 C290.124199,45.3503375 288.925351,49.0489096 288.965991,53.7229992 L314.568772,53.7229992 Z M404.422341,91.6439024 L387.292861,91.6439024 L387.292861,58.6002858 C387.292861,51.6094734 386.927111,47.0878675 386.195599,45.0353325 C385.464088,42.9827975 384.275399,41.3875343 382.629498,40.249495 C380.983596,39.1114558 379.002449,38.5424447 376.685995,38.5424447 C373.719309,38.5424447 371.057459,39.3553177 368.700366,40.981088 C366.343272,42.6068584 364.727875,44.7609717 363.854125,47.4434928 C362.980375,50.1260138 362.543506,55.0845389 362.543506,62.3192168 L362.543506,91.6439024 L345.414027,91.6439024 L345.414027,26.897923 L361.324326,26.897923 L361.324326,36.4086319 C366.973222,29.0926654 374.085035,25.434737 382.659977,25.434737 C386.439454,25.434737 389.893763,26.1155182 393.023007,27.4771008 C396.152252,28.8386834 398.519469,30.5761994 400.124731,32.6897008 C401.729993,34.8032023 402.847564,37.2011775 403.477476,39.8836986 C404.107389,42.5662196 404.422341,46.4070444 404.422341,51.4062881 L404.422341,91.6439024 Z M133.032863,222.504211 C137.462572,225.674463 142.278285,228.194369 147.480146,230.064005 L140.835615,242.805917 C138.112766,241.993031 135.450916,240.875331 132.849986,239.452782 C132.281032,239.168272 128.278098,236.526435 120.841062,231.527191 C114.988969,234.08778 108.50706,235.368054 101.39514,235.368054 C87.6589766,235.368054 76.8998203,231.324011 69.1173488,223.235804 C61.3348772,215.147597 57.4436998,203.787697 57.4436998,189.155764 C57.4436998,174.564475 61.345037,163.214737 69.1478283,155.106207 C76.9506196,146.997678 87.5370604,142.943474 100.907468,142.943474 C114.155958,142.943474 124.661121,146.997678 132.423273,155.106207 C140.185424,163.214737 144.066442,174.564475 144.066442,189.155764 C144.066442,196.878173 142.98951,203.665662 140.835615,209.518436 C139.210033,213.989304 136.609142,218.317853 133.032863,222.504211 Z M118.52462,212.322875 C120.841074,209.59971 122.578388,206.307575 123.736615,202.44637 C124.894842,198.585166 125.473946,194.155008 125.473946,189.155764 C125.473946,178.832123 123.198166,171.11999 118.646538,166.019136 C114.09491,160.918281 108.141307,158.367893 100.78555,158.367893 C93.4297941,158.367893 87.4660313,160.928442 82.8940833,166.049619 C78.3221353,171.170795 76.0361955,178.872767 76.0361955,189.155764 C76.0361955,199.601338 78.3221353,207.41508 82.8940833,212.597223 C87.4660313,217.779366 93.2469189,220.370398 100.236919,220.370398 C102.83785,220.370398 105.296505,219.94364 107.612959,219.090111 C103.9554,216.692099 100.236938,214.822491 96.4574613,213.481231 L101.517058,203.177963 C107.450431,205.210176 113.119562,208.25845 118.52462,212.322875 Z M200.697355,233.843902 L200.697355,224.150295 C198.340262,227.605057 195.241544,230.328182 191.401107,232.31975 C187.560671,234.311319 183.506938,235.307088 179.239786,235.307088 C174.891356,235.307088 170.990019,234.351963 167.535658,232.441683 C164.081297,230.531402 161.582003,227.848922 160.037701,224.39416 C158.493398,220.939398 157.721259,216.163769 157.721259,210.06713 L157.721259,169.097923 L174.850738,169.097923 L174.850738,198.849371 C174.850738,207.953685 175.16569,213.532026 175.795603,215.584561 C176.425516,217.637096 177.573565,219.262842 179.239786,220.461847 C180.906007,221.660853 183.019232,222.260347 185.579523,222.260347 C188.505569,222.260347 191.12678,221.457635 193.443234,219.852187 C195.759688,218.246738 197.344606,216.2552 198.198036,213.87751 C199.051466,211.499821 199.478175,205.677619 199.478175,196.410728 L199.478175,169.097923 L216.607655,169.097923 L216.607655,233.843902 L200.697355,233.843902 Z M247.148115,188.850934 L231.603569,186.046494 C233.35107,179.787278 236.35835,175.153902 240.625502,172.146227 C244.892653,169.138552 251.232326,167.634737 259.64471,167.634737 C267.284944,167.634737 272.974394,168.539058 276.713231,170.347728 C280.452069,172.156397 283.083439,174.452763 284.607422,177.236895 C286.131405,180.021027 286.893384,185.131965 286.893384,192.569865 L286.710507,212.56674 C286.710507,218.256936 286.98482,222.453393 287.533454,225.156236 C288.082088,227.859079 289.108221,230.754939 290.611884,233.843902 L273.665281,233.843902 C273.218246,232.705863 272.669621,231.019152 272.019388,228.783718 C271.734911,227.767611 271.531716,227.096991 271.409798,226.771837 C268.483751,229.616935 265.354554,231.750727 262.022112,233.173276 C258.689669,234.595825 255.133763,235.307088 251.354286,235.307088 C244.689402,235.307088 239.43682,233.498446 235.596384,229.881107 C231.755948,226.263768 229.835758,221.691358 229.835758,216.163739 C229.835758,212.505755 230.709495,209.244103 232.456995,206.378682 C234.204496,203.513262 236.652991,201.318505 239.802555,199.794345 C242.952119,198.270186 247.49352,196.939106 253.426892,195.801067 C261.432881,194.29723 266.980095,192.895024 270.0687,191.594407 L270.0687,189.887357 C270.0687,186.595172 269.255921,184.248001 267.63034,182.845775 C266.004758,181.443548 262.936519,180.742445 258.42553,180.742445 C255.377565,180.742445 253.000188,181.341939 251.293327,182.540944 C249.586467,183.73995 248.204743,185.843259 247.148115,188.850934 Z M270.0687,202.7512 C267.874165,203.482797 264.399536,204.356636 259.64471,205.372742 C254.889884,206.388848 251.781006,207.384618 250.317983,208.36008 C248.082808,209.945206 246.965238,211.957067 246.965238,214.395722 C246.965238,216.793733 247.859294,218.866559 249.647434,220.614263 C251.435574,222.361966 253.711354,223.235804 256.474842,223.235804 C259.563447,223.235804 262.50977,222.219713 265.313898,220.1875 C267.386514,218.643018 268.747918,216.753089 269.398151,214.517654 C269.845186,213.054461 270.0687,210.270371 270.0687,206.165301 L270.0687,202.7512 Z M320.177,233.843902 L303.04752,233.843902 L303.04752,169.097923 L318.95782,169.097923 L318.95782,178.303801 C321.680669,173.954866 324.129164,171.089489 326.303379,169.707584 C328.477595,168.325679 330.94641,167.634737 333.709898,167.634737 C337.611294,167.634737 341.370395,168.711794 344.987314,170.865939 L339.68388,185.80263 C336.798473,183.932994 334.116304,182.99819 331.637292,182.99819 C329.239559,182.99819 327.207613,183.658649 325.541392,184.979587 C323.875171,186.300526 322.564565,188.68834 321.609536,192.143102 C320.654507,195.597864 320.177,202.832433 320.177,213.847027 L320.177,233.843902 Z M382.050387,169.097923 L382.050387,182.754325 L370.346259,182.754325 L370.346259,208.847809 C370.346259,214.131562 370.458016,217.210319 370.681533,218.08417 C370.905051,218.958022 371.413037,219.679446 372.205508,220.248466 C372.997979,220.817486 373.963154,221.101991 375.101061,221.101991 C376.686003,221.101991 378.982102,220.553302 381.989428,219.455907 L383.452444,232.746513 C379.469769,234.453572 374.958848,235.307088 369.919546,235.307088 C366.830941,235.307088 364.047174,234.788882 361.568162,233.752453 C359.08915,232.716025 357.270558,231.374784 356.112332,229.728692 C354.954105,228.082599 354.151486,225.85736 353.704451,223.052906 C353.338695,221.061337 353.15582,217.037616 353.15582,210.981622 L353.15582,182.754325 L345.292109,182.754325 L345.292109,169.097923 L353.15582,169.097923 L353.15582,156.23408 L370.346259,146.235642 L370.346259,169.097923 L382.050387,169.097923 Z M431.427179,213.237367 L448.4957,216.102772 C446.301164,222.361988 442.836696,227.127456 438.10219,230.399319 C433.367683,233.671182 427.44456,235.307088 420.33264,235.307088 C409.075488,235.307088 400.744508,231.628838 395.33945,224.272228 C391.072298,218.37881 388.938754,210.941022 388.938754,201.958641 C388.938754,191.228557 391.74284,182.825483 397.351097,176.749166 C402.959353,170.67285 410.050846,167.634737 418.625788,167.634737 C428.257359,167.634737 435.856839,170.815103 441.424455,177.175929 C446.992072,183.536755 449.653922,193.28107 449.410085,206.409165 L406.494947,206.409165 C406.616866,211.489698 407.998589,215.442292 410.640159,218.267068 C413.281729,221.091844 416.573482,222.504211 420.515517,222.504211 C423.197727,222.504211 425.453188,221.772625 427.281967,220.309432 C429.110746,218.846239 430.49247,216.488907 431.427179,213.237367 Z M432.402523,195.922999 C432.280604,190.9644 431.000478,187.194701 428.562106,184.613791 C426.123734,182.032881 423.157092,180.742445 419.662091,180.742445 C415.923254,180.742445 412.834695,182.104007 410.396323,184.827172 C407.957951,187.550338 406.759102,191.24891 406.799742,195.922999 L432.402523,195.922999 Z M479.767668,233.843902 L462.638188,233.843902 L462.638188,169.097923 L478.548488,169.097923 L478.548488,178.303801 C481.271337,173.954866 483.719832,171.089489 485.894047,169.707584 C488.068263,168.325679 490.537078,167.634737 493.300566,167.634737 C497.201962,167.634737 500.961063,168.711794 504.577982,170.865939 L499.274548,185.80263 C496.389141,183.932994 493.706972,182.99819 491.22796,182.99819 C488.830227,182.99819 486.798281,183.658649 485.13206,184.979587 C483.465839,186.300526 482.155233,188.68834 481.200204,192.143102 C480.245175,195.597864 479.767668,202.832433 479.767668,213.847027 L479.767668,233.843902 Z M118.280784,343.183184 L135.776018,348.731098 C133.093808,358.48572 128.633686,365.73045 122.395517,370.465506 C116.157348,375.200562 108.242916,377.568054 98.6519854,377.568054 C86.7852403,377.568054 77.0318974,373.513851 69.3916643,365.405321 C61.7514311,357.296792 57.9313718,346.211236 57.9313718,332.148323 C57.9313718,317.272525 61.7717506,305.719568 69.4526233,297.489105 C77.133496,289.258643 87.2322697,285.143474 99.7492474,285.143474 C110.681283,285.143474 119.560889,288.374644 126.388331,294.837081 C130.452285,298.657641 133.500205,304.144534 135.532182,311.297923 L117.671194,315.565549 C116.614566,310.932103 114.409904,307.274175 111.057142,304.591654 C107.70438,301.909133 103.630328,300.567893 98.8348624,300.567893 C92.2106177,300.567893 86.8361194,302.945546 82.7112063,307.700924 C78.5862932,312.456302 76.5238675,320.158274 76.5238675,330.807069 C76.5238675,342.106173 78.555814,350.153616 82.6197678,354.949638 C86.6837216,359.74566 91.9667823,362.143636 98.4691084,362.143636 C103.264574,362.143636 107.389425,360.619499 110.843786,357.571179 C114.298147,354.52286 116.777121,349.72691 118.280784,343.183184 Z M147.175351,342.756421 C147.175351,337.066225 148.577394,331.559011 151.381522,326.234613 C154.18565,320.910215 158.158106,316.845851 163.299007,314.041397 C168.439909,311.236943 174.180158,309.834737 180.519925,309.834737 C190.314054,309.834737 198.340243,313.015103 204.598731,319.375929 C210.85722,325.736755 213.986418,333.774037 213.986418,343.488014 C213.986418,353.283281 210.826741,361.401849 204.507293,367.843964 C198.187845,374.286079 190.232774,377.507088 180.641843,377.507088 C174.708471,377.507088 169.0495,376.165848 163.664761,373.483327 C158.280023,370.800806 154.18565,366.868533 151.381522,361.68639 C148.577394,356.504247 147.175351,350.194321 147.175351,342.756421 Z M164.731544,343.670913 C164.731544,350.092706 166.255504,355.010587 169.303469,358.424705 C172.351434,361.838822 176.110535,363.545856 180.580884,363.545856 C185.051234,363.545856 188.800175,361.838822 191.82782,358.424705 C194.855466,355.010587 196.369266,350.052062 196.369266,343.548981 C196.369266,337.208476 194.855466,332.331238 191.82782,328.917121 C188.800175,325.503003 185.051234,323.79597 180.580884,323.79597 C176.110535,323.79597 172.351434,325.503003 169.303469,328.917121 C166.255504,332.331238 164.731544,337.24912 164.731544,343.670913 Z M226.117259,311.297923 L241.905641,311.297923 L241.905641,320.138005 C247.554537,313.269125 254.280279,309.834737 262.083071,309.834737 C266.228303,309.834737 269.824849,310.688254 272.872814,312.395312 C275.920779,314.102371 278.420073,316.683243 280.370771,320.138005 C283.215539,316.683243 286.283778,314.102371 289.575581,312.395312 C292.867383,310.688254 296.38265,309.834737 300.121488,309.834737 C304.876314,309.834737 308.899568,310.800024 312.19137,312.730626 C315.483173,314.661228 317.941828,317.496123 319.56741,321.235394 C320.745956,323.999204 321.335221,328.470005 321.335221,334.647933 L321.335221,376.043902 L304.205741,376.043902 L304.205741,339.03749 C304.205741,332.615698 303.616477,328.470046 302.43793,326.60041 C300.852988,324.161754 298.414652,322.942445 295.12285,322.942445 C292.725117,322.942445 290.469656,323.67403 288.356401,325.137224 C286.243145,326.600417 284.719185,328.744369 283.784475,331.569145 C282.849766,334.393921 282.382418,338.854562 282.382418,344.9512 L282.382418,376.043902 L265.252939,376.043902 L265.252939,340.561643 C265.252939,334.261783 264.948147,330.197418 264.338554,328.368426 C263.728961,326.539434 262.784105,325.177872 261.50396,324.283699 C260.223815,323.389525 258.4865,322.942445 256.291965,322.942445 C253.650395,322.942445 251.273018,323.653709 249.159762,325.076258 C247.046506,326.498807 245.532706,328.551311 244.618316,331.233832 C243.703927,333.916353 243.246739,338.366832 243.246739,344.585404 L243.246739,376.043902 L226.117259,376.043902 L226.117259,311.297923 Z M337.123602,311.297923 L352.911984,311.297923 L352.911984,320.138005 C358.56088,313.269125 365.286622,309.834737 373.089414,309.834737 C377.234647,309.834737 380.831192,310.688254 383.879157,312.395312 C386.927122,314.102371 389.426417,316.683243 391.377114,320.138005 C394.221882,316.683243 397.290121,314.102371 400.581924,312.395312 C403.873726,310.688254 407.388994,309.834737 411.127831,309.834737 C415.882657,309.834737 419.905911,310.800024 423.197714,312.730626 C426.489516,314.661228 428.948171,317.496123 430.573753,321.235394 C431.752299,323.999204 432.341564,328.470005 432.341564,334.647933 L432.341564,376.043902 L415.212084,376.043902 L415.212084,339.03749 C415.212084,332.615698 414.62282,328.470046 413.444273,326.60041 C411.859331,324.161754 409.420996,322.942445 406.129193,322.942445 C403.73146,322.942445 401.476,323.67403 399.362744,325.137224 C397.249488,326.600417 395.725528,328.744369 394.790819,331.569145 C393.856109,334.393921 393.388761,338.854562 393.388761,344.9512 L393.388761,376.043902 L376.259282,376.043902 L376.259282,340.561643 C376.259282,334.261783 375.95449,330.197418 375.344897,328.368426 C374.735304,326.539434 373.790449,325.177872 372.510303,324.283699 C371.230158,323.389525 369.492844,322.942445 367.298308,322.942445 C364.656739,322.942445 362.279361,323.653709 360.166105,325.076258 C358.052849,326.498807 356.539049,328.551311 355.62466,331.233832 C354.71027,333.916353 354.253082,338.366832 354.253082,344.585404 L354.253082,376.043902 L337.123602,376.043902 L337.123602,311.297923 Z M492.020427,376.043902 L492.020427,366.350295 C489.663334,369.805057 486.564616,372.528182 482.724179,374.51975 C478.883743,376.511319 474.83001,377.507088 470.562858,377.507088 C466.214428,377.507088 462.313091,376.551963 458.85873,374.641683 C455.404369,372.731402 452.905075,370.048922 451.360773,366.59416 C449.81647,363.139398 449.044331,358.363769 449.044331,352.26713 L449.044331,311.297923 L466.17381,311.297923 L466.17381,341.049371 C466.17381,350.153685 466.488762,355.732026 467.118675,357.784561 C467.748588,359.837096 468.896637,361.462842 470.562858,362.661847 C472.229079,363.860853 474.342304,364.460347 476.902595,364.460347 C479.828641,364.460347 482.449852,363.657635 484.766306,362.052187 C487.08276,360.446738 488.667678,358.4552 489.521108,356.07751 C490.374538,353.699821 490.801247,347.877619 490.801247,338.610728 L490.801247,311.297923 L507.930727,311.297923 L507.930727,376.043902 L492.020427,376.043902 Z M584.556193,376.043902 L567.426713,376.043902 L567.426713,343.000286 C567.426713,336.009473 567.060963,331.487868 566.329451,329.435333 C565.597939,327.382797 564.409251,325.787534 562.763349,324.649495 C561.117448,323.511456 559.1363,322.942445 556.819847,322.942445 C553.85316,322.942445 551.191311,323.755318 548.834217,325.381088 C546.477124,327.006858 544.861727,329.160972 543.987977,331.843493 C543.114227,334.526014 542.677358,339.484539 542.677358,346.719217 L542.677358,376.043902 L525.547878,376.043902 L525.547878,311.297923 L541.458178,311.297923 L541.458178,320.808632 C547.107074,313.492665 554.218886,309.834737 562.793829,309.834737 C566.573306,309.834737 570.027615,310.515518 573.156859,311.877101 C576.286104,313.238683 578.653321,314.976199 580.258583,317.089701 C581.863845,319.203202 582.981415,321.601178 583.611328,324.283699 C584.241241,326.96622 584.556193,330.807044 584.556193,335.806288 L584.556193,376.043902 Z M601.929508,302.518807 L601.929508,286.667626 L619.058988,286.667626 L619.058988,302.518807 L601.929508,302.518807 Z M601.929508,376.043902 L601.929508,311.297923 L619.058988,311.297923 L619.058988,376.043902 L601.929508,376.043902 Z M666.302215,311.297923 L666.302215,324.954325 L654.598086,324.954325 L654.598086,351.047809 C654.598086,356.331562 654.709843,359.410319 654.933361,360.28417 C655.156878,361.158022 655.664865,361.879446 656.457336,362.448466 C657.249807,363.017486 658.214981,363.301991 659.352888,363.301991 C660.93783,363.301991 663.23393,362.753302 666.241256,361.655907 L667.704272,374.946513 C663.721597,376.653572 659.210676,377.507088 654.171373,377.507088 C651.082768,377.507088 648.299002,376.988882 645.81999,375.952453 C643.340978,374.916025 641.522386,373.574784 640.364159,371.928692 C639.205932,370.282599 638.403314,368.05736 637.956279,365.252906 C637.590523,363.261337 637.407648,359.237616 637.407648,353.181622 L637.407648,324.954325 L629.543936,324.954325 L629.543936,311.297923 L637.407648,311.297923 L637.407648,298.43408 L654.598086,288.435642 L654.598086,311.297923 L666.302215,311.297923 Z M670.081673,311.297923 L688.308415,311.297923 L703.792001,357.266349 L718.909834,311.297923 L736.648903,311.297923 L713.789278,373.605259 L709.705024,384.883984 C708.201361,388.6639 706.768839,391.549599 705.407415,393.541168 C704.04599,395.532737 702.481391,397.148322 700.713572,398.387972 C698.945752,399.627621 696.771569,400.592908 694.190958,401.283861 C691.610348,401.974813 688.694505,402.320284 685.443341,402.320284 C682.151539,402.320284 678.920744,401.974813 675.75086,401.283861 L674.226885,387.871322 C676.909095,388.399698 679.327111,388.663881 681.481006,388.663881 C685.463681,388.663881 688.410003,387.495377 690.320062,385.158332 C692.23012,382.821287 693.693121,379.84414 694.70911,376.226801 L670.081673,311.297923 Z M61.10124,518.243902 L61.10124,428.867626 L127.363675,428.867626 L127.363675,443.987214 L79.1451046,443.987214 L79.1451046,463.801191 L124.01093,463.801191 L124.01093,478.859813 L79.1451046,478.859813 L79.1451046,503.18528 L129.070528,503.18528 L129.070528,518.243902 L61.10124,518.243902 Z M203.135715,518.243902 L186.006236,518.243902 L186.006236,485.200286 C186.006236,478.209473 185.640485,473.687868 184.908974,471.635333 C184.177462,469.582797 182.988773,467.987534 181.342872,466.849495 C179.696971,465.711456 177.715823,465.142445 175.399369,465.142445 C172.432683,465.142445 169.770833,465.955318 167.41374,467.581088 C165.056647,469.206858 163.441249,471.360972 162.567499,474.043493 C161.693749,476.726014 161.256881,481.684539 161.256881,488.919217 L161.256881,518.243902 L144.127401,518.243902 L144.127401,453.497923 L160.037701,453.497923 L160.037701,463.008632 C165.686596,455.692665 172.798409,452.034737 181.373351,452.034737 C185.152829,452.034737 188.607137,452.715518 191.736382,454.077101 C194.865626,455.438683 197.232844,457.176199 198.838106,459.289701 C200.443367,461.403202 201.560938,463.801178 202.190851,466.483699 C202.820764,469.16622 203.135715,473.007044 203.135715,478.006288 L203.135715,518.243902 Z M257.998817,497.637367 L275.067338,500.502772 C272.872803,506.761988 269.408334,511.527456 264.673828,514.799319 C259.939322,518.071182 254.016198,519.707088 246.904279,519.707088 C235.647127,519.707088 227.316147,516.028838 221.911088,508.672228 C217.643937,502.77881 215.510393,495.341022 215.510393,486.358641 C215.510393,475.628557 218.314479,467.225483 223.922735,461.149166 C229.530991,455.07285 236.622484,452.034737 245.197427,452.034737 C254.828997,452.034737 262.428477,455.215103 267.996094,461.575929 C273.56371,467.936755 276.22556,477.68107 275.981723,490.809165 L233.066585,490.809165 C233.188504,495.889698 234.570228,499.842292 237.211798,502.667068 C239.853368,505.491844 243.145121,506.904211 247.087156,506.904211 C249.769365,506.904211 252.024826,506.172625 253.853605,504.709432 C255.682384,503.246239 257.064108,500.888907 257.998817,497.637367 Z M258.974161,480.322999 C258.852243,475.3644 257.572117,471.594701 255.133744,469.013791 C252.695372,466.432881 249.72873,465.142445 246.23373,465.142445 C242.494892,465.142445 239.406334,466.504007 236.967962,469.227172 C234.529589,471.950338 233.330741,475.64891 233.37138,480.322999 L258.974161,480.322999 Z M306.339306,518.243902 L289.209827,518.243902 L289.209827,453.497923 L305.120126,453.497923 L305.120126,462.703801 C307.842975,458.354866 310.291471,455.489489 312.465686,454.107584 C314.639901,452.725679 317.108716,452.034737 319.872205,452.034737 C323.7736,452.034737 327.532701,453.111794 331.14962,455.265939 L325.846187,470.20263 C322.96078,468.332994 320.27861,467.39819 317.799599,467.39819 C315.401866,467.39819 313.369919,468.058649 311.703698,469.379587 C310.037477,470.700526 308.726872,473.08834 307.771843,476.543102 C306.816814,479.997864 306.339306,487.232433 306.339306,498.247027 L306.339306,518.243902 Z M336.940725,522.511528 L356.508565,524.889205 C356.833681,527.165284 357.585502,528.730064 358.764048,529.583594 C360.38963,530.802921 362.949882,531.412576 366.444882,531.412576 C370.915232,531.412576 374.267943,530.741956 376.503118,529.400696 C378.006781,528.506522 379.144671,527.063672 379.916822,525.072104 C380.445136,523.649555 380.709289,521.028039 380.709289,517.207479 L380.709289,507.757736 C375.588707,514.748549 369.127118,518.243902 361.324326,518.243902 C352.627465,518.243902 345.739167,514.565652 340.659224,507.209042 C336.67655,501.396913 334.685242,494.162343 334.685242,485.505116 C334.685242,474.653099 337.296293,466.361795 342.518474,460.630955 C347.740655,454.900114 354.232724,452.034737 361.994875,452.034737 C370.000864,452.034737 376.60469,455.550413 381.806551,462.581869 L381.806551,453.497923 L397.838769,453.497923 L397.838769,511.598599 C397.838769,519.23972 397.208865,524.950153 395.94904,528.730069 C394.689214,532.509985 392.92142,535.476971 390.645606,537.631117 C388.369792,539.785262 385.332032,541.471974 381.532236,542.691301 C377.732439,543.910629 372.926885,544.520284 367.115431,544.520284 C356.142756,544.520284 348.360401,542.640515 343.768134,538.880921 C339.175866,535.121327 336.879766,530.35586 336.879766,524.584375 C336.879766,524.015355 336.900086,523.324413 336.940725,522.511528 Z M352.241435,484.529659 C352.241435,491.398539 353.57236,496.42819 356.23425,499.618764 C358.896139,502.809339 362.177733,504.404602 366.079128,504.404602 C370.265001,504.404602 373.800588,502.768695 376.685995,499.496832 C379.571402,496.224969 381.014084,491.378214 381.014084,484.956421 C381.014084,478.250119 379.63236,473.271272 376.868872,470.019731 C374.105383,466.768191 370.610435,465.142445 366.383923,465.142445 C362.27933,465.142445 358.896139,466.737708 356.23425,469.928282 C353.57236,473.118856 352.241435,477.985933 352.241435,484.529659 Z M406.677824,453.497923 L424.904566,453.497923 L440.388152,499.466349 L455.505985,453.497923 L473.245054,453.497923 L450.385429,515.805259 L446.301175,527.083984 C444.797513,530.8639 443.36499,533.749599 442.003566,535.741168 C440.642141,537.732737 439.077543,539.348322 437.309723,540.587972 C435.541903,541.827621 433.36772,542.792908 430.787109,543.483861 C428.206499,544.174813 425.290656,544.520284 422.039493,544.520284 C418.74769,544.520284 415.516895,544.174813 412.347011,543.483861 L410.823036,530.071322 C413.505246,530.599698 415.923262,530.863881 418.077157,530.863881 C422.059832,530.863881 425.006154,529.695377 426.916213,527.358332 C428.826271,525.021287 430.289272,522.04414 431.305261,518.426801 L406.677824,453.497923 Z M118.280784,627.583184 L135.776018,633.131098 C133.093808,642.88572 128.633686,650.13045 122.395517,654.865506 C116.157348,659.600562 108.242916,661.968054 98.6519854,661.968054 C86.7852403,661.968054 77.0318974,657.913851 69.3916643,649.805321 C61.7514311,641.696792 57.9313718,630.611236 57.9313718,616.548323 C57.9313718,601.672525 61.7717506,590.119568 69.4526233,581.889105 C77.133496,573.658643 87.2322697,569.543474 99.7492474,569.543474 C110.681283,569.543474 119.560889,572.774644 126.388331,579.237081 C130.452285,583.057641 133.500205,588.544534 135.532182,595.697923 L117.671194,599.965549 C116.614566,595.332103 114.409904,591.674175 111.057142,588.991654 C107.70438,586.309133 103.630328,584.967893 98.8348624,584.967893 C92.2106177,584.967893 86.8361194,587.345546 82.7112063,592.100924 C78.5862932,596.856302 76.5238675,604.558274 76.5238675,615.207069 C76.5238675,626.506173 78.555814,634.553616 82.6197678,639.349638 C86.6837216,644.14566 91.9667823,646.543636 98.4691084,646.543636 C103.264574,646.543636 107.389425,645.019499 110.843786,641.971179 C114.298147,638.92286 116.777121,634.12691 118.280784,627.583184 Z M147.175351,627.156421 C147.175351,621.466225 148.577394,615.959011 151.381522,610.634613 C154.18565,605.310215 158.158106,601.245851 163.299007,598.441397 C168.439909,595.636943 174.180158,594.234737 180.519925,594.234737 C190.314054,594.234737 198.340243,597.415103 204.598731,603.775929 C210.85722,610.136755 213.986418,618.174037 213.986418,627.888014 C213.986418,637.683281 210.826741,645.801849 204.507293,652.243964 C198.187845,658.686079 190.232774,661.907088 180.641843,661.907088 C174.708471,661.907088 169.0495,660.565848 163.664761,657.883327 C158.280023,655.200806 154.18565,651.268533 151.381522,646.08639 C148.577394,640.904247 147.175351,634.594321 147.175351,627.156421 Z M164.731544,628.070913 C164.731544,634.492706 166.255504,639.410587 169.303469,642.824705 C172.351434,646.238822 176.110535,647.945856 180.580884,647.945856 C185.051234,647.945856 188.800175,646.238822 191.82782,642.824705 C194.855466,639.410587 196.369266,634.452062 196.369266,627.948981 C196.369266,621.608476 194.855466,616.731238 191.82782,613.317121 C188.800175,609.903003 185.051234,608.19597 180.580884,608.19597 C176.110535,608.19597 172.351434,609.903003 169.303469,613.317121 C166.255504,616.731238 164.731544,621.64912 164.731544,628.070913 Z M225.44671,636.606164 L225.44671,619.474695 L259.096079,619.474695 L259.096079,636.606164 L225.44671,636.606164 Z M265.009103,627.156421 C265.009103,621.466225 266.411146,615.959011 269.215274,610.634613 C272.019402,605.310215 275.991857,601.245851 281.132759,598.441397 C286.27366,595.636943 292.013909,594.234737 298.353677,594.234737 C308.147806,594.234737 316.173994,597.415103 322.432483,603.775929 C328.690972,610.136755 331.820169,618.174037 331.820169,627.888014 C331.820169,637.683281 328.660492,645.801849 322.341044,652.243964 C316.021596,658.686079 308.066526,661.907088 298.475595,661.907088 C292.542222,661.907088 286.883252,660.565848 281.498513,657.883327 C276.113774,655.200806 272.019402,651.268533 269.215274,646.08639 C266.411146,640.904247 265.009103,634.594321 265.009103,627.156421 Z M282.565295,628.070913 C282.565295,634.492706 284.089255,639.410587 287.13722,642.824705 C290.185186,646.238822 293.944287,647.945856 298.414636,647.945856 C302.884985,647.945856 306.633926,646.238822 309.661572,642.824705 C312.689217,639.410587 314.203017,634.452062 314.203017,627.948981 C314.203017,621.608476 312.689217,616.731238 309.661572,613.317121 C306.633926,609.903003 302.884985,608.19597 298.414636,608.19597 C293.944287,608.19597 290.185186,609.903003 287.13722,613.317121 C284.089255,616.731238 282.565295,621.64912 282.565295,628.070913 Z M344.743478,595.697923 L360.714736,595.697923 L360.714736,605.208632 C362.787353,601.957091 365.591439,599.315254 369.127079,597.283041 C372.662718,595.250828 376.584375,594.234737 380.892166,594.234737 C388.410481,594.234737 394.790792,597.181402 400.033293,603.074819 C405.275793,608.968236 407.897004,617.178253 407.897004,627.705116 C407.897004,638.516489 405.255474,646.919563 399.972334,652.914591 C394.689194,658.909619 388.288563,661.907088 380.770248,661.907088 C377.193969,661.907088 373.953014,661.195825 371.047287,659.773276 C368.14156,658.350727 365.083481,655.912108 361.872957,652.457346 L361.872957,685.0742 L344.743478,685.0742 L344.743478,595.697923 Z M361.69008,626.973523 C361.69008,620.633019 363.071804,615.847229 365.835292,612.616011 C368.598781,609.384792 372.073409,607.769207 376.259282,607.769207 C380.282596,607.769207 383.655627,609.415275 386.378476,612.70746 C389.101325,615.999645 390.462729,621.039457 390.462729,627.827048 C390.462729,635.102371 389.141964,640.33524 386.500394,643.525815 C383.858824,646.716389 380.546752,648.311652 376.564077,648.311652 C372.418844,648.311652 368.903577,646.574136 366.018169,643.099052 C363.132762,639.623968 361.69008,634.248845 361.69008,626.973523 Z M52.0183486,98.5804878 L412.678899,98.5804878 L412.678899,112.453659 L52.0183486,112.453659 L52.0183486,98.5804878 Z M52.0183486,240.780488 L121.376147,240.780488 L121.376147,254.653659 L52.0183486,254.653659 L52.0183486,240.780488 Z M156.055046,240.780488 L502.844037,240.780488 L502.844037,254.653659 L156.055046,254.653659 L156.055046,240.780488 Z M52.0183486,382.980488 L665.834862,382.980488 L665.834862,396.853659 L52.0183486,396.853659 L52.0183486,382.980488 Z M52.0183486,525.180488 L329.449541,525.180488 L329.449541,539.053659 L52.0183486,539.053659 L52.0183486,525.180488 Z M461.229358,525.180488 L475.100917,525.180488 L475.100917,539.053659 L461.229358,539.053659 L461.229358,525.180488 Z M721.321101,382.980488 L735.192661,382.980488 L735.192661,396.853659 L721.321101,396.853659 L721.321101,382.980488 Z M52.0183486,667.380488 L336.385321,667.380488 L336.385321,681.253659 L52.0183486,681.253659 L52.0183486,667.380488 Z M374.53211,667.380488 L409.211009,667.380488 L409.211009,681.253659 L374.53211,681.253659 L374.53211,667.380488 Z" id="Combined-Shape" fill="#FFFFFF"></path>
            </g>
        </g>
    </g>
</svg>