<?xml version="1.0" encoding="UTF-8" standalone="no"?>
<svg width="861px" height="140px" viewBox="0 0 861 140" version="1.1" xmlns="http://www.w3.org/2000/svg" xmlns:xlink="http://www.w3.org/1999/xlink">
    <!-- Generator: Sketch 43.2 (39069) - http://www.bohemiancoding.com/sketch -->
    <title>Artboard</title>
    <desc>Created with Sketch.</desc>
    <defs></defs>
    <g id="Page-1" stroke="none" stroke-width="1" fill="none" fill-rule="evenodd">
        <g id="Artboard">
            <g id="Light-House-logo-default">
                <g id="Group-4-Copy-6">
                    <path d="M210.879468,94.4797099 L210.879468,27.9219479 L193,27.9219479 L193,108.667933 L247.445864,108.667933 L247.445864,94.4797099 L210.879468,94.4797099 Z M274.553445,108.667933 L274.553445,49.492661 L257.366085,49.492661 L257.366085,108.667933 L274.553445,108.667933 Z M255.28976,33.8048696 C255.28976,39.4570886 259.903816,43.3790364 266.132792,43.3790364 C272.246417,43.3790364 277.091176,39.4570886 277.091176,33.8048696 C277.091176,28.0372993 272.246417,24 266.132792,24 C259.903816,24 255.28976,28.0372993 255.28976,33.8048696 Z M303.275945,78.9072699 C303.275945,88.3660853 309.043516,95.9792782 318.502331,95.9792782 C326.922984,95.9792782 333.95942,90.557762 333.95942,79.8300812 C333.95942,68.8716975 327.38439,62.1813158 318.040926,62.1813158 C308.58211,62.1813158 303.275945,69.7945087 303.275945,78.9072699 Z M350.685374,49.492661 L350.685374,104.515282 C350.685374,127.816267 335.458988,136.929028 318.617683,136.929028 C305.467622,136.929028 296.585564,133.583837 290.587291,128.739078 L297.393024,115.358315 C300.853566,118.357451 308.58211,122.048696 315.15714,122.048696 C324.039199,122.048696 333.498014,119.395614 333.498014,106.476256 L333.498014,100.016577 C329.230012,106.130202 323.577793,109.936798 314.926438,109.936798 C296.931618,109.936798 286.088586,96.0946296 286.088586,78.7919185 C286.088586,62.1813158 296.124158,48.2237955 314.580383,48.2237955 C322.53963,48.2237955 329.460715,52.1457434 333.498014,57.5672595 L333.498014,49.492661 L350.685374,49.492661 Z M365.681057,108.667933 L382.868417,108.667933 L382.868417,76.946296 C382.868417,68.7563461 386.213607,62.4120186 394.172854,62.4120186 C402.132102,62.4120186 405.131238,68.6409946 405.131238,76.8309446 L405.131238,108.667933 L422.318598,108.667933 L422.318598,76.4848903 C422.318598,61.4892074 417.819893,48.2237955 401.20929,48.2237955 C394.057503,48.2237955 387.828527,50.6461751 382.868417,57.5672595 L382.868417,25.2688655 L365.681057,25.2688655 L365.681057,108.667933 Z M456.92402,34.9583837 L443.658608,34.9583837 L441.005526,49.492661 L430.854602,49.492661 L430.854602,62.9887757 L439.73666,62.9887757 L439.73666,89.0581937 C439.73666,106.245553 449.887584,109.936798 460.269211,109.936798 C474.226731,109.936798 479.994302,101.05474 479.994302,92.2880332 C479.994302,90.2117078 479.648247,87.443274 478.610085,85.2515973 L464.998619,85.2515973 C465.344673,86.1744086 465.806078,88.5967881 465.806078,90.3270592 C465.806078,93.095493 464.652564,95.8639268 461.307374,95.8639268 C457.962183,95.8639268 456.92402,93.2108444 456.92402,90.6731135 L456.92402,62.9887757 L473.30392,62.9887757 L473.30392,49.492661 L456.92402,49.492661 L456.92402,34.9583837 Z M585.310136,108.667933 L585.310136,27.9219479 L567.430668,27.9219479 L567.430668,62.9887757 L536.747194,62.9887757 L536.747194,27.9219479 L518.867726,27.9219479 L518.867726,108.667933 L536.747194,108.667933 L536.747194,77.1769988 L567.430668,77.1769988 L567.430668,108.667933 L585.310136,108.667933 Z M597.537386,79.0226213 C597.537386,60.5663961 612.879123,48.2237955 630.066482,48.2237955 C647.369194,48.2237955 662.595579,60.6817475 662.595579,79.0226213 C662.595579,97.4788465 647.369194,109.936798 630.066482,109.936798 C612.879123,109.936798 597.537386,97.5941979 597.537386,79.0226213 Z M614.26334,79.0226213 C614.26334,88.3660853 621.64583,95.1718183 630.066482,95.1718183 C638.602487,95.1718183 645.869625,88.2507339 645.869625,79.0226213 C645.869625,69.9098601 638.602487,62.9887757 630.066482,62.9887757 C621.64583,62.9887757 614.26334,69.7945087 614.26334,79.0226213 Z M729.614747,49.492661 L712.427387,49.492661 L712.427387,81.214298 C712.427387,89.404248 709.082197,95.7485754 701.122949,95.7485754 C693.163702,95.7485754 690.164566,89.5195994 690.164566,81.3296495 L690.164566,49.492661 L672.977206,49.492661 L672.977206,81.6757037 C672.977206,96.6713866 677.475911,109.936798 694.086514,109.936798 C701.238301,109.936798 707.467277,107.514419 712.427387,100.593334 L712.427387,108.667933 L729.614747,108.667933 L729.614747,49.492661 Z M739.881022,94.8257641 C743.918322,107.168365 755.914868,109.936798 764.681575,109.936798 C777.716284,109.936798 788.90537,103.707822 788.90537,91.5959247 C788.90537,87.6739769 787.636505,78.5612157 773.678985,74.5239164 L764.796926,71.0633742 C761.79779,69.9098601 759.260059,68.5256432 759.260059,65.9879123 C759.260059,62.9887757 762.60525,61.1431532 765.835089,61.1431532 C768.488171,61.1431532 772.756173,62.0659644 774.255742,66.7953721 L787.521154,60.6817475 C781.984286,50.0694181 772.986876,48.2237955 766.181143,48.2237955 C753.492488,48.2237955 742.99551,54.4527715 742.99551,66.3339665 C742.99551,68.9870489 743.687619,78.3305129 757.76049,83.2906234 L768.142117,87.6739769 C771.371956,88.8274909 772.525471,90.2117078 772.525471,92.1726817 C772.525471,95.1718183 768.603523,96.6713866 764.796926,96.6713866 C760.067519,96.6713866 754.069245,94.5950613 752.338974,87.7893283 L739.881022,94.8257641 Z M828.701606,62.1813158 C823.164738,62.1813158 815.782248,64.7190468 813.705923,72.6782939 L843.351235,72.6782939 C842.197721,65.065101 834.469176,62.1813158 828.701606,62.1813158 Z M847.84994,88.8274909 L857.770161,98.2863063 C849.349508,107.514419 838.160421,109.936798 830.201174,109.936798 C808.284407,109.936798 796.28786,96.209981 796.28786,79.3686755 C796.28786,61.950613 809.899327,48.2237955 828.932309,48.2237955 C845.312209,48.2237955 861,59.5282335 861,83.0599206 L813.359869,83.0599206 C813.705923,90.4424106 820.511656,95.8639268 831.47004,95.8639268 C837.583664,95.8639268 843.697289,92.7494388 847.84994,88.8274909 Z" id="Light-House-Copy-3" fill="#352E40"></path>
                    <g id="Group-12">
                        <circle id="Oval-2-Copy" fill="#CD6A62" cx="40" cy="70" r="10"></circle>
                        <circle id="Oval-2-Copy-41" fill="#CD6A62" cx="10" cy="70" r="10"></circle>
                        <circle id="Oval-2-Copy-7" fill="#9F6A7C" cx="40" cy="100" r="10"></circle>
                        <circle id="Oval-2-Copy-2" fill="#CD6A62" cx="70" cy="70" r="10"></circle>
                        <circle id="Oval-2-Copy-8" fill="#9F6A7C" cx="70" cy="100" r="10"></circle>
                        <circle id="Oval-2-Copy-3" fill="#CD6A62" cx="100" cy="70" r="10"></circle>
                        <circle id="Oval-2-Copy-9" fill="#9F6A7C" cx="100" cy="100" r="10"></circle>
                        <circle id="Oval-2-Copy-4" fill="#CD6A62" cx="130" cy="70" r="10"></circle>
                        <circle id="Oval-2-Copy-15" fill="#766C8A" cx="70" cy="130" r="10"></circle>
                        <circle id="Oval-2-Copy-20" fill="#EA7C41" transform="translate(100.000000, 40.000000) rotate(-180.000000) translate(-100.000000, -40.000000) " cx="100" cy="40" r="10"></circle>
                        <circle id="Oval-2-Copy-22" fill="#EA7C41" transform="translate(70.000000, 40.000000) rotate(-180.000000) translate(-70.000000, -40.000000) " cx="70" cy="40" r="10"></circle>
                        <circle id="Oval-2-Copy-23" fill="#FB8E00" transform="translate(70.000000, 10.000000) rotate(-180.000000) translate(-70.000000, -10.000000) " cx="70" cy="10" r="10"></circle>
                        <circle id="Oval-2-Copy-24" fill="#EA7C41" transform="translate(40.000000, 40.000000) rotate(-180.000000) translate(-40.000000, -40.000000) " cx="40" cy="40" r="10"></circle>
                    </g>
                </g>
            </g>
        </g>
    </g>
</svg>