<?xml version="1.0" encoding="UTF-8"?>
<svg width="146px" height="107px" viewBox="0 0 146 107" version="1.1" xmlns="http://www.w3.org/2000/svg" xmlns:xlink="http://www.w3.org/1999/xlink">
    <!-- Generator: Sketch 43.2 (39069) - http://www.bohemiancoding.com/sketch -->
    <title>logo</title>
    <desc>Created with Sketch.</desc>
    <defs></defs>
    <g id="Page-1" stroke="none" stroke-width="1" fill="none" fill-rule="evenodd">
        <g id="logo">
            <g id="renewable-group-PP-light-house-lockup">
                <path d="M9.07,66.4 C9.2500009,66.5733342 9.34,66.7999986 9.34,67.08 C9.34,67.346668 9.2500009,67.5666658 9.07,67.74 C8.8899991,67.9133342 8.6600014,68 8.38,68 L1.62,68 C1.3399986,68 1.1100009,67.9066676 0.93,67.72 C0.7499991,67.5333324 0.66,67.306668 0.66,67.04 L0.66,54.96 C0.66,54.693332 0.7533324,54.4666676 0.94,54.28 C1.1266676,54.0933324 1.3666652,54 1.66,54 C1.926668,54 2.1566657,54.0933324 2.35,54.28 C2.5433343,54.4666676 2.64,54.693332 2.64,54.96 L2.64,66.14 L8.38,66.14 C8.6600014,66.14 8.8899991,66.2266658 9.07,66.4 Z M12.95,67.72 C12.7699991,67.9066676 12.5400014,68 12.26,68 C11.993332,68 11.7700009,67.9066676 11.59,67.72 C11.4099991,67.5333324 11.32,67.306668 11.32,67.04 L11.32,58.38 C11.32,58.113332 11.4099991,57.8866676 11.59,57.7 C11.7700009,57.5133324 11.993332,57.42 12.26,57.42 C12.5400014,57.42 12.7699991,57.5133324 12.95,57.7 C13.1300009,57.8866676 13.22,58.113332 13.22,58.38 L13.22,67.04 C13.22,67.306668 13.1300009,67.5333324 12.95,67.72 Z M11.43,55.89 C11.2633325,55.7499993 11.18,55.5266682 11.18,55.22 L11.18,54.9 C11.18,54.5799984 11.2699991,54.353334 11.45,54.22 C11.6300009,54.086666 11.9066648,54.02 12.28,54.02 C12.6533352,54.02 12.9233325,54.0899993 13.09,54.23 C13.2566675,54.3700007 13.34,54.5933318 13.34,54.9 L13.34,55.22 C13.34,55.5400016 13.2533342,55.766666 13.08,55.9 C12.9066658,56.033334 12.6333352,56.1 12.26,56.1 C11.8733314,56.1 11.5966675,56.0300007 11.43,55.89 Z M25.41,57.65 C25.5900009,57.8300009 25.68,58.0666652 25.68,58.36 L25.68,67.16 C25.68,68.2400054 25.4500023,69.1433297 24.99,69.87 C24.5299977,70.5966703 23.9066706,71.1333316 23.12,71.48 C22.3333294,71.8266684 21.4466716,72 20.46,72 C19.926664,72 19.3033369,71.9066676 18.59,71.72 C17.8766631,71.5333324 17.420001,71.340001 17.22,71.14 C16.8066646,70.9266656 16.6,70.6600016 16.6,70.34 C16.6,70.2599996 16.6266664,70.153334 16.68,70.02 C16.8266674,69.686665 17.0733316,69.52 17.42,69.52 C17.5933342,69.52 17.779999,69.5599996 17.98,69.64 C19.046672,70.0533354 19.879997,70.26 20.48,70.26 C21.546672,70.26 22.3633305,70.0033359 22.93,69.49 C23.4966695,68.9766641 23.78,68.2733378 23.78,67.38 L23.78,66.3 C23.4999986,66.8200026 23.0300033,67.2666648 22.37,67.64 C21.7099967,68.0133352 21.013337,68.2 20.28,68.2 C19.3599954,68.2 18.5200038,67.966669 17.76,67.5 C16.9999962,67.033331 16.4033355,66.3833375 15.97,65.55 C15.5366645,64.7166625 15.32,63.7800052 15.32,62.74 C15.32,61.6999948 15.5366645,60.7633375 15.97,59.93 C16.4033355,59.0966625 16.9966629,58.446669 17.75,57.98 C18.5033371,57.513331 19.3333288,57.28 20.24,57.28 C20.973337,57.28 21.6566635,57.446665 22.29,57.78 C22.9233365,58.113335 23.4199982,58.5199976 23.78,59 L23.78,58.36 C23.78,58.0799986 23.8666658,57.8466676 24.04,57.66 C24.2133342,57.4733324 24.4399986,57.38 24.72,57.38 C25.0000014,57.38 25.2299991,57.4699991 25.41,57.65 Z M22.24,65.97 C22.7466692,65.6566651 23.1433319,65.2166695 23.43,64.65 C23.7166681,64.0833305 23.86,63.4466702 23.86,62.74 C23.86,62.0333298 23.7166681,61.4000028 23.43,60.84 C23.1433319,60.2799972 22.7466692,59.8400016 22.24,59.52 C21.7333308,59.1999984 21.1533366,59.04 20.5,59.04 C19.8599968,59.04 19.2866692,59.1999984 18.78,59.52 C18.2733308,59.8400016 17.8766681,60.2833305 17.59,60.85 C17.3033319,61.4166695 17.16,62.0466632 17.16,62.74 C17.16,63.4333368 17.3033319,64.0633305 17.59,64.63 C17.8766681,65.1966695 18.2733308,65.6399984 18.78,65.96 C19.2866692,66.2800016 19.8599968,66.44 20.5,66.44 C21.1533366,66.44 21.7333308,66.2833349 22.24,65.97 Z M37.24,61.7 L37.24,67.04 C37.24,67.306668 37.1500009,67.5333324 36.97,67.72 C36.7899991,67.9066676 36.5600014,68 36.28,68 C36.013332,68 35.7900009,67.9066676 35.61,67.72 C35.4299991,67.5333324 35.34,67.306668 35.34,67.04 L35.34,61.7 C35.34,59.966658 34.606674,59.1 33.14,59.1 C32.3533294,59.1 31.7000026,59.3499975 31.18,59.85 C30.6599974,60.3500025 30.4,60.966663 30.4,61.7 L30.4,67.04 C30.4,67.306668 30.3100009,67.5333324 30.13,67.72 C29.9499991,67.9066676 29.7200014,68 29.44,68 C29.1599986,68 28.9333342,67.9100009 28.76,67.73 C28.5866658,67.5499991 28.5,67.3200014 28.5,67.04 L28.5,54.16 C28.5,53.893332 28.5899991,53.6666676 28.77,53.48 C28.9500009,53.2933324 29.173332,53.2 29.44,53.2 C29.7200014,53.2 29.9499991,53.2933324 30.13,53.48 C30.3100009,53.6666676 30.4,53.893332 30.4,54.16 L30.4,59.22 C30.733335,58.6999974 31.199997,58.2566685 31.8,57.89 C32.400003,57.5233315 33.0399966,57.34 33.72,57.34 C36.0666784,57.34 37.24,58.7933188 37.24,61.7 Z M42.92,59.38 L42.92,65.34 C42.92,66.00667 43.219997,66.34 43.82,66.34 C43.9133338,66.34 44.0399992,66.3166669 44.2,66.27 C44.3600008,66.2233331 44.4866662,66.2 44.58,66.2 C44.7533342,66.2 44.8999994,66.2733326 45.02,66.42 C45.1400006,66.5666674 45.2,66.7533322 45.2,66.98 C45.2,67.2600014 45.0400016,67.499999 44.72,67.7 C44.3999984,67.900001 44.040002,68 43.64,68 C43.1999978,68 42.7966685,67.9533338 42.43,67.86 C42.0633315,67.7666662 41.7366681,67.5300019 41.45,67.15 C41.1633319,66.7699981 41.02,66.1933372 41.02,65.42 L41.02,59.38 L39.86,59.38 C39.6066654,59.38 39.3966675,59.2966675 39.23,59.13 C39.0633325,58.9633325 38.98,58.7533346 38.98,58.5 C38.98,58.2466654 39.0633325,58.0400008 39.23,57.88 C39.3966675,57.7199992 39.6066654,57.64 39.86,57.64 L41.02,57.64 L41.02,55.96 C41.02,55.693332 41.1099991,55.4666676 41.29,55.28 C41.4700009,55.0933324 41.6999986,55 41.98,55 C42.246668,55 42.4699991,55.0933324 42.65,55.28 C42.8300009,55.4666676 42.92,55.693332 42.92,55.96 L42.92,57.64 L44.58,57.64 C44.8333346,57.64 45.0433325,57.7233325 45.21,57.89 C45.3766675,58.0566675 45.46,58.2666654 45.46,58.52 C45.46,58.7733346 45.3766675,58.9799992 45.21,59.14 C45.0433325,59.3000008 44.8333346,59.38 44.58,59.38 L42.92,59.38 Z M64.26,54.27 C64.4466676,54.4500009 64.54,54.6799986 64.54,54.96 L64.54,67.02 C64.5266666,67.3000014 64.4266676,67.5333324 64.24,67.72 C64.0533324,67.9066676 63.8133348,68 63.52,68 C63.253332,68 63.0233343,67.9066676 62.83,67.72 C62.6366657,67.5333324 62.54,67.3000014 62.54,67.02 L62.54,61.84 L55.44,61.84 L55.44,67.02 C55.44,67.3000014 55.340001,67.5333324 55.14,67.72 C54.939999,67.9066676 54.706668,68 54.44,68 C54.1466652,68 53.9100009,67.9066676 53.73,67.72 C53.5499991,67.5333324 53.46,67.3000014 53.46,67.02 L53.46,54.96 C53.46,54.693332 53.5533324,54.4666676 53.74,54.28 C53.9266676,54.0933324 54.1666652,54 54.46,54 C54.726668,54 54.9566657,54.0933324 55.15,54.28 C55.3433343,54.4666676 55.44,54.693332 55.44,54.96 L55.44,60 L62.54,60 L62.54,54.96 C62.54,54.693332 62.639999,54.4666676 62.84,54.28 C63.040001,54.0933324 63.273332,54 63.54,54 C63.8333348,54 64.0733324,54.0899991 64.26,54.27 Z M76.82,65.56 C76.353331,66.3866708 75.7166707,67.033331 74.91,67.5 C74.1033293,67.966669 73.2133382,68.2 72.24,68.2 C71.2666618,68.2 70.3766707,67.966669 69.57,67.5 C68.7633293,67.033331 68.126669,66.3866708 67.66,65.56 C67.193331,64.7333292 66.96,63.8000052 66.96,62.76 C66.96,61.7199948 67.193331,60.7800042 67.66,59.94 C68.126669,59.0999958 68.7633293,58.446669 69.57,57.98 C70.3766707,57.513331 71.2666618,57.28 72.24,57.28 C73.2133382,57.28 74.1033293,57.513331 74.91,57.98 C75.7166707,58.446669 76.353331,59.0999958 76.82,59.94 C77.286669,60.7800042 77.52,61.7199948 77.52,62.76 C77.52,63.8000052 77.286669,64.7333292 76.82,65.56 Z M75.17,60.83 C74.8699985,60.2633305 74.4633359,59.8233349 73.95,59.51 C73.4366641,59.1966651 72.8666698,59.04 72.24,59.04 C71.6133302,59.04 71.0433359,59.1966651 70.53,59.51 C70.0166641,59.8233349 69.6100015,60.2633305 69.31,60.83 C69.0099985,61.3966695 68.86,62.0399964 68.86,62.76 C68.86,63.4666702 69.0099985,64.0999972 69.31,64.66 C69.6100015,65.2200028 70.0166641,65.6566651 70.53,65.97 C71.0433359,66.2833349 71.6133302,66.44 72.24,66.44 C72.8666698,66.44 73.4366641,66.2833349 73.95,65.97 C74.4633359,65.6566651 74.8699985,65.2200028 75.17,64.66 C75.4700015,64.0999972 75.62,63.4666702 75.62,62.76 C75.62,62.0399964 75.4700015,61.3966695 75.17,60.83 Z M88.21,57.8 C88.3900009,57.9866676 88.48,58.213332 88.48,58.48 L88.48,63.8 C88.48,65.1866736 88.0966705,66.2633295 87.33,67.03 C86.5633295,67.7966705 85.480007,68.18 84.08,68.18 C82.6933264,68.18 81.6200038,67.7966705 80.86,67.03 C80.0999962,66.2633295 79.72,65.1866736 79.72,63.8 L79.72,58.48 C79.72,58.213332 79.8099991,57.9866676 79.99,57.8 C80.1700009,57.6133324 80.393332,57.52 80.66,57.52 C80.9400014,57.52 81.1699991,57.6133324 81.35,57.8 C81.5300009,57.9866676 81.62,58.213332 81.62,58.48 L81.62,63.8 C81.62,65.5466754 82.4399918,66.42 84.08,66.42 C84.8933374,66.42 85.5133312,66.2000022 85.94,65.76 C86.3666688,65.3199978 86.58,64.666671 86.58,63.8 L86.58,58.48 C86.58,58.213332 86.6699991,57.9866676 86.85,57.8 C87.0300009,57.6133324 87.253332,57.52 87.52,57.52 C87.8000014,57.52 88.0299991,57.6133324 88.21,57.8 Z M90.54,65.82 C90.54,65.553332 90.6799986,65.3266676 90.96,65.14 C91.093334,65.0466662 91.2466658,65 91.42,65 C91.6600012,65 91.879999,65.099999 92.08,65.3 C92.480002,65.7533356 92.9099977,66.0933322 93.37,66.32 C93.8300023,66.5466678 94.3799968,66.66 95.02,66.66 C95.5266692,66.6466666 95.9733314,66.5300011 96.36,66.31 C96.7466686,66.0899989 96.94,65.7333358 96.94,65.24 C96.94,64.7866644 96.7433353,64.4400012 96.35,64.2 C95.9566647,63.9599988 95.3800038,63.740001 94.62,63.54 C93.8733296,63.339999 93.2533358,63.1300011 92.76,62.91 C92.2666642,62.6899989 91.8500017,62.3700021 91.51,61.95 C91.1699983,61.5299979 91,60.9800034 91,60.3 C91,59.699997 91.1699983,59.1733356 91.51,58.72 C91.8500017,58.2666644 92.3033305,57.9133346 92.87,57.66 C93.4366695,57.4066654 94.05333,57.28 94.72,57.28 C95.3600032,57.28 95.9966635,57.3999988 96.63,57.64 C97.2633365,57.8800012 97.779998,58.2466642 98.18,58.74 C98.3400008,58.9266676 98.42,59.119999 98.42,59.32 C98.42,59.5333344 98.3133344,59.739999 98.1,59.94 C97.966666,60.0600006 97.800001,60.12 97.6,60.12 C97.3599988,60.12 97.1666674,60.0400008 97.02,59.88 C96.7399986,59.5599984 96.3966687,59.3133342 95.99,59.14 C95.5833313,58.9666658 95.1333358,58.88 94.64,58.88 C94.1333308,58.88 93.7033351,58.9833323 93.35,59.19 C92.9966649,59.3966677 92.82,59.7466642 92.82,60.24 C92.8333334,60.706669 93.0366647,61.0533322 93.43,61.28 C93.8233353,61.5066678 94.4266626,61.7266656 95.24,61.94 C95.9466702,62.1266676 96.533331,62.3266656 97,62.54 C97.466669,62.7533344 97.8599984,63.0699979 98.18,63.49 C98.5000016,63.9100021 98.66,64.4599966 98.66,65.14 C98.66,65.7666698 98.4800018,66.3099977 98.12,66.77 C97.7599982,67.2300023 97.2900029,67.5833321 96.71,67.83 C96.1299971,68.0766679 95.5133366,68.2 94.86,68.2 C94.0199958,68.2 93.2433369,68.0533348 92.53,67.76 C91.8166631,67.4666652 91.2133358,67.0000032 90.72,66.36 C90.5999994,66.1733324 90.54,65.9933342 90.54,65.82 Z M109.76,62.97 C109.573332,63.1366675 109.353335,63.22 109.1,63.22 L102.06,63.22 C102.153334,64.1933382 102.52333,64.9733304 103.17,65.56 C103.81667,66.1466696 104.606662,66.44 105.54,66.44 C106.180003,66.44 106.699998,66.3466676 107.1,66.16 C107.500002,65.9733324 107.853332,65.7333348 108.16,65.44 C108.360001,65.3199994 108.553332,65.26 108.74,65.26 C108.966668,65.26 109.156666,65.3399992 109.31,65.5 C109.463334,65.6600008 109.54,65.8466656 109.54,66.06 C109.54,66.3400014 109.406668,66.5933322 109.14,66.82 C108.753331,67.2066686 108.240003,67.533332 107.6,67.8 C106.959997,68.066668 106.30667,68.2 105.64,68.2 C104.559995,68.2 103.610004,67.9733356 102.79,67.52 C101.969996,67.0666644 101.336669,66.4333374 100.89,65.62 C100.443331,64.8066626 100.22,63.8866718 100.22,62.86 C100.22,61.7399944 100.449998,60.7566709 100.91,59.91 C101.370002,59.0633291 101.976663,58.4133356 102.73,57.96 C103.483337,57.5066644 104.293329,57.28 105.16,57.28 C106.013338,57.28 106.81333,57.4999978 107.56,57.94 C108.30667,58.3800022 108.906664,58.9866628 109.36,59.76 C109.813336,60.5333372 110.046667,61.3999952 110.06,62.36 C110.046667,62.6000012 109.946668,62.8033325 109.76,62.97 Z M103.22,59.67 C102.673331,60.0900021 102.313334,60.7399956 102.14,61.62 L108.04,61.62 L108.04,61.46 C107.973333,60.7533298 107.65667,60.1733356 107.09,59.72 C106.52333,59.2666644 105.880004,59.04 105.16,59.04 C104.41333,59.04 103.766669,59.2499979 103.22,59.67 Z" id="Light-House-Copy" fill="#736F66"></path>
                <g id="powerpack-logo" transform="translate(1.000000, 22.000000)">
                    <path d="M9.29888686,3.692 C10.0376622,4.18000244 10.6318857,4.83599588 11.081575,5.66 C11.5312644,6.48400412 11.7561057,7.38399512 11.7561057,8.36 C11.7561057,9.3200048 11.5312644,10.2159958 11.081575,11.048 C10.6318857,11.8800042 10.0376622,12.5399976 9.29888686,13.028 C8.5601115,13.5160024 7.78119698,13.76 6.96211995,13.76 L2.77039375,13.76 L2.77039375,18.296 C2.77039375,18.7280022 2.64191301,19.0799986 2.38494767,19.352 C2.12798232,19.6240014 1.79072037,19.76 1.37315169,19.76 C0.971643338,19.76 0.64241143,19.6200014 0.385446087,19.34 C0.128480744,19.0599986 0,18.7120021 0,18.296 L0,4.424 C0,4.00799792 0.140525814,3.6600014 0.421581658,3.38 C0.702637502,3.0999986 1.05194453,2.96 1.46951321,2.96 L6.96211995,2.96 C7.78119698,2.96 8.5601115,3.20399756 9.29888686,3.692 Z M7.86550922,10.64 C8.1626254,10.3839987 8.40352679,10.052002 8.58822063,9.644 C8.77291447,9.23599796 8.86526001,8.80800224 8.86526001,8.36 C8.86526001,7.91199776 8.77291447,7.48400204 8.58822063,7.076 C8.40352679,6.66799796 8.1626254,6.34000124 7.86550922,6.092 C7.56839304,5.84399876 7.2672663,5.72 6.96211995,5.72 L2.77039375,5.72 L2.77039375,11.024 L6.96211995,11.024 C7.2672663,11.024 7.56839304,10.8960013 7.86550922,10.64 Z M25.5598937,16.796 C24.9817216,17.8120051 24.1907621,18.5999972 23.1869912,19.16 C22.1832203,19.7200028 21.0790889,20 19.8745639,20 C18.6539785,20 17.5458321,19.7200028 16.5500914,19.16 C15.5543507,18.5999972 14.7674061,17.8120051 14.1892341,16.796 C13.6110621,15.7799949 13.3219804,14.6320064 13.3219804,13.352 C13.3219804,12.0719936 13.6110621,10.9240051 14.1892341,9.908 C14.7674061,8.89199492 15.5543507,8.10000284 16.5500914,7.532 C17.5458321,6.96399716 18.6539785,6.68 19.8745639,6.68 C21.0790889,6.68 22.1832203,6.96399716 23.1869912,7.532 C24.1907621,8.10000284 24.9817216,8.89199492 25.5598937,9.908 C26.1380657,10.9240051 26.4271474,12.0719936 26.4271474,13.352 C26.4271474,14.6320064 26.1380657,15.7799949 25.5598937,16.796 Z M23.0424489,11.252 C22.7132121,10.6359969 22.2715595,10.1600017 21.717478,9.824 C21.1633965,9.48799832 20.5490979,9.32 19.8745639,9.32 C19.2000299,9.32 18.5857313,9.48799832 18.0316498,9.824 C17.4775683,10.1600017 17.0359157,10.6359969 16.7066789,11.252 C16.377442,11.8680031 16.2128261,12.5679961 16.2128261,13.352 C16.2128261,14.1360039 16.377442,14.831997 16.7066789,15.44 C17.0359157,16.048003 17.4775683,16.5199983 18.0316498,16.856 C18.5857313,17.1920017 19.2000299,17.36 19.8745639,17.36 C20.5490979,17.36 21.1633965,17.1920017 21.717478,16.856 C22.2715595,16.5199983 22.7132121,16.048003 23.0424489,15.44 C23.3716858,14.831997 23.5363017,14.1360039 23.5363017,13.352 C23.5363017,12.5679961 23.3716858,11.8680031 23.0424489,11.252 Z M44.6515202,7.34 C44.9165157,7.6200014 45.0490115,7.97599784 45.0490115,8.408 C45.0490115,8.55200072 45.0168913,8.73599888 44.9526499,8.96 L41.2668217,18.848 C41.1704597,19.1360014 40.9978137,19.3639992 40.7488786,19.532 C40.4999434,19.7000008 40.2309368,19.784 39.9418508,19.784 L39.7491278,19.76 C39.2030764,19.7279998 38.793544,19.4240029 38.5205184,18.848 L36.472836,12.944 L34.5215152,18.848 C34.2484895,19.4240029 33.8389572,19.7279998 33.2929058,19.76 L33.1001828,19.784 C32.8110967,19.784 32.5420902,19.7000008 32.293155,19.532 C32.0442198,19.3639992 31.8715738,19.1360014 31.7752118,18.848 L28.0893836,8.96 C28.0251423,8.78399912 27.9930221,8.60000096 27.9930221,8.408 C27.9930221,8.007998 28.1255179,7.66000148 28.3905134,7.364 C28.6555089,7.06799852 29.0048159,6.92 29.4384449,6.92 C29.7596516,6.92 30.0366882,6.99599924 30.2695631,7.148 C30.5024379,7.30000076 30.6670538,7.52799848 30.7634158,7.832 L33.3651769,14.864 L35.268317,9.728 C35.5252823,9.13599704 35.9669349,8.84 36.5932879,8.84 C36.9305549,8.84 37.1915314,8.91199928 37.3762253,9.056 C37.5609191,9.20000072 37.717505,9.42399848 37.8459877,9.728 L39.700947,14.744 L42.2786177,7.832 C42.3749797,7.52799848 42.5436107,7.30000076 42.7845157,7.148 C43.0254207,6.99599924 43.3225324,6.92 43.6758598,6.92 C44.0613078,6.92 44.3865247,7.0599986 44.6515202,7.34 Z M58.443263,13.976 C58.154177,14.2160012 57.816915,14.336 57.431467,14.336 L49.4816415,14.336 C49.6743655,15.2800047 50.116018,16.0199973 50.8066124,16.556 C51.4972068,17.0920027 52.2761213,17.36 53.1433793,17.36 C53.801853,17.36 54.315776,17.3000006 54.6851636,17.18 C55.0545513,17.0599994 55.347648,16.9320007 55.5644625,16.796 C55.781277,16.6599993 55.9298329,16.5680002 56.0101346,16.52 C56.2992206,16.3759993 56.5722422,16.304 56.8292075,16.304 C57.1664745,16.304 57.4555562,16.4239988 57.6964612,16.664 C57.9373662,16.9040012 58.0578169,17.1839984 58.0578169,17.504 C58.0578169,17.9360022 57.8329756,18.3279982 57.3832863,18.68 C56.9335969,19.0480018 56.3313434,19.3599987 55.5765077,19.616 C54.821672,19.8720013 54.0588176,20 53.2879216,20 C51.9388535,20 50.7624517,19.7200028 49.7586808,19.16 C48.75491,18.5999972 47.9800105,17.8280049 47.4339591,16.844 C46.8879078,15.8599951 46.6148862,14.7520062 46.6148862,13.52 C46.6148862,12.1439931 46.9039679,10.9360052 47.4821399,9.896 C48.0603119,8.8559948 48.8231663,8.06000276 49.770726,7.508 C50.7182857,6.95599724 51.7300716,6.68 52.806114,6.68 C53.866096,6.68 54.8658368,6.96799712 55.8053663,7.544 C56.7448959,8.12000288 57.4957052,8.89599512 58.0578169,9.872 C58.6199286,10.8480049 58.9009802,11.9039943 58.9009802,13.04 C58.8849199,13.4240019 58.732349,13.7359988 58.443263,13.976 Z M49.5057318,11.936 L55.8174115,11.936 L55.8174115,11.768 C55.7531702,11.0959966 55.4239383,10.5200024 54.8297059,10.04 C54.2354736,9.5599976 53.5609497,9.32 52.806114,9.32 C50.9431152,9.32 49.8429989,10.1919913 49.5057318,11.936 Z M69.2237083,7.088 C69.5529451,7.36000136 69.7175611,7.67999816 69.7175611,8.048 C69.7175611,8.54400248 69.5890803,8.91599876 69.332115,9.164 C69.0751496,9.41200124 68.7700079,9.536 68.4166805,9.536 C68.1757755,9.536 67.9027539,9.48000056 67.5976076,9.368 C67.5494266,9.35199992 67.4410209,9.32000024 67.2723874,9.272 C67.1037539,9.22399976 66.9230779,9.2 66.7303539,9.2 C66.3127852,9.2 65.9112829,9.32799872 65.5258349,9.584 C65.1403868,9.84000128 64.8232,10.2279974 64.5742648,10.748 C64.3253297,11.2680026 64.2008639,11.8879964 64.2008639,12.608 L64.2008639,18.296 C64.2008639,18.7120021 64.0643531,19.0599986 63.7913275,19.34 C63.5183018,19.6200014 63.1730098,19.76 62.7554411,19.76 C62.3378724,19.76 61.9925804,19.6200014 61.7195547,19.34 C61.4465291,19.0599986 61.3100183,18.7120021 61.3100183,18.296 L61.3100183,8.384 C61.3100183,7.96799792 61.4465291,7.6200014 61.7195547,7.34 C61.9925804,7.0599986 62.3378724,6.92 62.7554411,6.92 C63.1730098,6.92 63.5183018,7.0599986 63.7913275,7.34 C64.0643531,7.6200014 64.2008639,7.96799792 64.2008639,8.384 L64.2008639,8.696 C64.5702516,8.03999672 65.1002347,7.54000172 65.790829,7.196 C66.4814234,6.85199828 67.2201877,6.68 68.007144,6.68 C68.4889541,6.68 68.8944714,6.81599864 69.2237083,7.088 Z M101.540954,3.692 C102.279729,4.18000244 102.873952,4.83599588 103.323642,5.66 C103.773331,6.48400412 103.998172,7.38399512 103.998172,8.36 C103.998172,9.3200048 103.773331,10.2159958 103.323642,11.048 C102.873952,11.8800042 102.279729,12.5399976 101.540954,13.028 C100.802178,13.5160024 100.023264,13.76 99.2041867,13.76 L95.0124605,13.76 L95.0124605,18.296 C95.0124605,18.7280022 94.8839798,19.0799986 94.6270145,19.352 C94.3700491,19.6240014 94.0327872,19.76 93.6152185,19.76 C93.2137101,19.76 92.8844782,19.6200014 92.6275129,19.34 C92.3705475,19.0599986 92.2420668,18.7120021 92.2420668,18.296 L92.2420668,4.424 C92.2420668,4.00799792 92.3825926,3.6600014 92.6636484,3.38 C92.9447043,3.0999986 93.2940113,2.96 93.71158,2.96 L99.2041867,2.96 C100.023264,2.96 100.802178,3.20399756 101.540954,3.692 Z M100.107576,10.64 C100.404692,10.3839987 100.645594,10.052002 100.830287,9.644 C101.014981,9.23599796 101.107327,8.80800224 101.107327,8.36 C101.107327,7.91199776 101.014981,7.48400204 100.830287,7.076 C100.645594,6.66799796 100.404692,6.34000124 100.107576,6.092 C99.8104598,5.84399876 99.5093331,5.72 99.2041867,5.72 L95.0124605,5.72 L95.0124605,11.024 L99.2041867,11.024 C99.5093331,11.024 99.8104598,10.8960013 100.107576,10.64 Z M117.874232,7.088 C118.147257,7.36000136 118.283768,7.71199784 118.283768,8.144 L118.283768,18.296 C118.283768,18.7120021 118.147257,19.0599986 117.874232,19.34 C117.601206,19.6200014 117.255914,19.76 116.838345,19.76 C116.420777,19.76 116.0795,19.6240014 115.814504,19.352 C115.549509,19.0799986 115.408983,18.7360021 115.392922,18.32 C114.991414,18.7840023 114.449386,19.1799984 113.766822,19.508 C113.084258,19.8360016 112.365568,20 111.610733,20 C110.50257,20 109.498814,19.7160028 108.599435,19.148 C107.700056,18.5799972 106.989397,17.792005 106.467436,16.784 C105.945476,15.775995 105.684499,14.6320064 105.684499,13.352 C105.684499,12.0719936 105.941461,10.9240051 106.455391,9.908 C106.969322,8.89199492 107.671951,8.10000284 108.5633,7.532 C109.454648,6.96399716 110.438329,6.68 111.514371,6.68 C112.285267,6.68 113.007971,6.8199986 113.682505,7.1 C114.357039,7.3800014 114.927173,7.73599784 115.392922,8.168 L115.392922,8.144 C115.392922,7.72799792 115.529433,7.3800014 115.802459,7.1 C116.075485,6.8199986 116.420777,6.68 116.838345,6.68 C117.255914,6.68 117.601206,6.81599864 117.874232,7.088 Z M114.525669,16.22 C115.184142,15.4599962 115.513374,14.5040058 115.513374,13.352 C115.513374,12.1999942 115.184142,11.2400038 114.525669,10.472 C113.867195,9.70399616 113.01601,9.32 111.972088,9.32 C110.944227,9.32 110.101072,9.70399616 109.442598,10.472 C108.784125,11.2400038 108.454893,12.1999942 108.454893,13.352 C108.454893,14.5040058 108.78011,15.4599962 109.430553,16.22 C110.080997,16.9800038 110.928167,17.36 111.972088,17.36 C113.01601,17.36 113.867195,16.9800038 114.525669,16.22 Z M130.328958,7.316 C131.164096,7.74000212 131.581658,8.30399648 131.581658,9.008 C131.581658,9.36000176 131.477267,9.66799868 131.268483,9.932 C131.059699,10.1960013 130.786677,10.328 130.44941,10.328 C130.192445,10.328 129.983664,10.2920004 129.82306,10.22 C129.662457,10.1479996 129.505871,10.0520006 129.353298,9.932 C129.200725,9.8119994 129.052169,9.7120004 128.907626,9.632 C128.747023,9.5519996 128.510136,9.48000032 128.19696,9.416 C127.883783,9.35199968 127.630837,9.32 127.438113,9.32 C126.233588,9.32 125.290057,9.69199628 124.607493,10.436 C123.924929,11.1800037 123.583652,12.151994 123.583652,13.352 C123.583652,14.5040058 123.928944,15.4599962 124.619538,16.22 C125.310132,16.9800038 126.193438,17.36 127.26948,17.36 C128.056436,17.36 128.64263,17.264001 129.028078,17.072 C129.12444,17.0239998 129.256936,16.9400006 129.425569,16.82 C129.594203,16.6999994 129.750788,16.6080003 129.895331,16.544 C130.039874,16.4799997 130.216535,16.448 130.42532,16.448 C130.826828,16.448 131.144015,16.5759987 131.37689,16.832 C131.609765,17.0880013 131.7262,17.415998 131.7262,17.816 C131.7262,18.2000019 131.501359,18.5599983 131.05167,18.896 C130.60198,19.2320017 130.007757,19.499999 129.268982,19.7 C128.530206,19.900001 127.743262,20 126.908124,20 C125.671479,20 124.583407,19.7120029 123.643878,19.136 C122.704348,18.5599971 121.977629,17.7640051 121.463698,16.748 C120.949768,15.7319949 120.692806,14.6000062 120.692806,13.352 C120.692806,12.0559935 120.961813,10.904005 121.499834,9.896 C122.037855,8.88799496 122.788664,8.10000284 123.752284,7.532 C124.715904,6.96399716 125.807991,6.68 127.028576,6.68 C128.393705,6.68 129.493821,6.89199788 130.328958,7.316 Z M145,18.32 C145,18.720002 144.843414,19.0559986 144.530238,19.328 C144.217061,19.6000014 143.883814,19.736 143.530487,19.736 C143.112918,19.736 142.759596,19.5760016 142.47051,19.256 L138.134242,14.696 L136.953813,15.776 L136.953813,18.296 C136.953813,18.7120021 136.817302,19.0599986 136.544276,19.34 C136.271251,19.6200014 135.925959,19.76 135.50839,19.76 C135.090821,19.76 134.745529,19.6200014 134.472504,19.34 C134.199478,19.0599986 134.062967,18.7120021 134.062967,18.296 L134.062967,3.464 C134.062967,3.04799792 134.199478,2.7000014 134.472504,2.42 C134.745529,2.1399986 135.090821,2 135.50839,2 C135.925959,2 136.271251,2.1399986 136.544276,2.42 C136.817302,2.7000014 136.953813,3.04799792 136.953813,3.464 L136.953813,12.344 L142.109154,7.376 C142.414301,7.07199848 142.767623,6.92 143.169131,6.92 C143.522458,6.92 143.839645,7.06799852 144.120701,7.364 C144.401757,7.66000148 144.542283,7.95999848 144.542283,8.264 C144.542283,8.64800192 144.349562,9.00799832 143.964114,9.344 L140.326466,12.68 L144.542283,17.24 C144.847429,17.5600016 145,17.919998 145,18.32 Z" id="Power-Pack" fill="#736F66"></path>
                    <path d="M72.5236639,23 C72.4228529,23 72.3212564,22.9711037 72.2324904,22.9120094 C72.0237986,22.773255 71.9434116,22.5064196 72.0416041,22.2765507 L76.0850409,12.7759096 L73.7616751,12.7759096 C73.550103,12.7759096 73.3594786,12.6496509 73.2783061,12.4554468 C73.1968718,12.261503 73.2411239,12.037882 73.3901147,11.8884542 L85.1043506,0.153945356 C85.281359,-0.0230771392 85.5599639,-0.0509321495 85.7683938,0.0886032291 C85.9768238,0.227878281 86.0564252,0.494713659 85.9582327,0.724322249 L81.916367,10.1726376 L84.2384236,10.1726376 C84.4497338,10.1726376 84.6400964,10.2988963 84.7217926,10.4925797 C84.8032269,10.6865235 84.7594985,10.9098842 84.6110314,11.059312 L72.8962718,22.845626 C72.7949371,22.9474139 72.6598242,23 72.5236639,23 Z" id="Shape-Copy" fill="#5DF35C" fill-rule="nonzero"></path>
                </g>
                <path d="M2.324,10.853 C1.80133072,10.6616657 1.30200238,10.3513355 0.826,9.922 C0.62999902,9.75399916 0.532,9.56266774 0.532,9.348 C0.532,9.17999916 0.59733268,9.02833401 0.728,8.893 C0.85866732,8.75766599 1.01266578,8.69 1.19,8.69 C1.34866746,8.69 1.48399944,8.74133282 1.596,8.844 C1.9693352,9.18933506 2.35433135,9.44366585 2.751,9.607 C3.14766865,9.77033415 3.59799748,9.852 4.102,9.852 C4.69000294,9.852 5.18699797,9.71666802 5.593,9.446 C5.99900203,9.17533198 6.202,8.83466872 6.202,8.424 C6.19266662,7.93866424 5.98966865,7.56300133 5.593,7.297 C5.19633135,7.03099867 4.59200406,6.80933422 3.78,6.632 C2.81866186,6.43599902 2.07900259,6.11400224 1.561,5.666 C1.04299741,5.21799776 0.784,4.5973373 0.784,3.804 C0.784,3.25333058 0.92866522,2.77033541 1.218,2.355 C1.50733478,1.93966459 1.9086641,1.62000112 2.422,1.396 C2.9353359,1.17199888 3.51399678,1.06 4.158,1.06 C4.73666956,1.06 5.2826641,1.1533324 5.796,1.34 C6.3093359,1.5266676 6.72466508,1.77399846 7.042,2.082 C7.25666774,2.2686676 7.364,2.46933226 7.364,2.684 C7.364,2.85200084 7.30100063,3.00133268 7.175,3.132 C7.04899937,3.26266732 6.89733422,3.328 6.72,3.328 C6.58933268,3.328 6.48200042,3.29066704 6.398,3.216 C6.15533212,2.97333212 5.81933548,2.76800084 5.39,2.6 C4.96066452,2.43199916 4.55000196,2.348 4.158,2.348 C3.53266354,2.348 3.03566851,2.47633205 2.667,2.733 C2.29833149,2.98966795 2.114,3.3279979 2.114,3.748 C2.114,4.20533562 2.29833149,4.55533212 2.667,4.798 C3.03566851,5.04066788 3.58399636,5.24599916 4.312,5.414 C5.04000364,5.57266746 5.63499769,5.75933226 6.097,5.974 C6.55900231,6.18866774 6.91599874,6.48733142 7.168,6.87 C7.42000126,7.25266858 7.546,7.75199692 7.546,8.368 C7.546,8.90933604 7.39433485,9.3899979 7.091,9.81 C6.78766515,10.2300021 6.37466928,10.5566655 5.852,10.79 C5.32933072,11.0233345 4.75533646,11.14 4.13,11.14 C3.44866326,11.14 2.84666928,11.0443343 2.324,10.853 Z M15.085,3.86 C15.2110006,3.99066732 15.274,4.1493324 15.274,4.336 L15.274,8.06 C15.274,9.03067152 15.0056694,9.78433065 14.469,10.321 C13.9323307,10.8576693 13.1740049,11.126 12.194,11.126 C11.2233285,11.126 10.4720027,10.8576693 9.94,10.321 C9.40799734,9.78433065 9.142,9.03067152 9.142,8.06 L9.142,4.336 C9.142,4.1493324 9.20499937,3.99066732 9.331,3.86 C9.45700063,3.72933268 9.6133324,3.664 9.8,3.664 C9.99600098,3.664 10.1569994,3.72933268 10.283,3.86 C10.4090006,3.99066732 10.472,4.1493324 10.472,4.336 L10.472,8.06 C10.472,9.28267278 11.0459943,9.894 12.194,9.894 C12.7633362,9.894 13.1973318,9.74000154 13.496,9.432 C13.7946682,9.12399846 13.944,8.6666697 13.944,8.06 L13.944,4.336 C13.944,4.1493324 14.0069994,3.99066732 14.133,3.86 C14.2590006,3.72933268 14.4153324,3.664 14.602,3.664 C14.798001,3.664 14.9589994,3.72933268 15.085,3.86 Z M22.666,4.021 C23.1793359,4.34300161 23.5829985,4.79333044 23.877,5.372 C24.1710015,5.95066956 24.318,6.60399636 24.318,7.332 C24.318,8.06000364 24.1710015,8.71099713 23.877,9.285 C23.5829985,9.85900287 23.1793359,10.3093317 22.666,10.636 C22.1526641,10.9626683 21.5880031,11.126 20.972,11.126 C20.4866642,11.126 20.0340021,11.0186677 19.614,10.804 C19.1939979,10.5893323 18.8533346,10.3280015 18.592,10.02 L18.592,13.128 C18.592,13.3146676 18.5290006,13.4733327 18.403,13.604 C18.2769994,13.7346673 18.116001,13.8 17.92,13.8 C17.7333324,13.8 17.5770006,13.7370006 17.451,13.611 C17.3249994,13.4849994 17.262,13.324001 17.262,13.128 L17.262,4.322 C17.262,4.12599902 17.3226661,3.96266732 17.444,3.832 C17.5653339,3.70133268 17.723999,3.636 17.92,3.636 C18.116001,3.636 18.2769994,3.70133268 18.403,3.832 C18.5290006,3.96266732 18.592,4.12599902 18.592,4.322 L18.592,4.728 C18.8160011,4.4013317 19.1426645,4.1213345 19.572,3.888 C20.0013355,3.6546655 20.4586642,3.538 20.944,3.538 C21.5786698,3.538 22.1526641,3.69899839 22.666,4.021 Z M21.952,9.558 C22.2973351,9.33399888 22.5656657,9.02833527 22.757,8.641 C22.9483343,8.25366473 23.044,7.81733576 23.044,7.332 C23.044,6.84666424 22.9483343,6.41033527 22.757,6.023 C22.5656657,5.63566473 22.2973351,5.33000112 21.952,5.106 C21.6066649,4.88199888 21.2193355,4.77 20.79,4.77 C20.3513311,4.77 19.9593351,4.87966557 19.614,5.099 C19.2686649,5.31833443 19.0003343,5.62399804 18.809,6.016 C18.6176657,6.40800196 18.522,6.84666424 18.522,7.332 C18.522,7.81733576 18.6176657,8.25599804 18.809,8.648 C19.0003343,9.04000196 19.2686649,9.34566557 19.614,9.565 C19.9593351,9.78433443 20.3513311,9.894 20.79,9.894 C21.2193355,9.894 21.6066649,9.78200112 21.952,9.558 Z M31.262,4.021 C31.7753359,4.34300161 32.1789985,4.79333044 32.473,5.372 C32.7670015,5.95066956 32.914,6.60399636 32.914,7.332 C32.914,8.06000364 32.7670015,8.71099713 32.473,9.285 C32.1789985,9.85900287 31.7753359,10.3093317 31.262,10.636 C30.7486641,10.9626683 30.1840031,11.126 29.568,11.126 C29.0826642,11.126 28.6300021,11.0186677 28.21,10.804 C27.7899979,10.5893323 27.4493346,10.3280015 27.188,10.02 L27.188,13.128 C27.188,13.3146676 27.1250006,13.4733327 26.999,13.604 C26.8729994,13.7346673 26.712001,13.8 26.516,13.8 C26.3293324,13.8 26.1730006,13.7370006 26.047,13.611 C25.9209994,13.4849994 25.858,13.324001 25.858,13.128 L25.858,4.322 C25.858,4.12599902 25.9186661,3.96266732 26.04,3.832 C26.1613339,3.70133268 26.319999,3.636 26.516,3.636 C26.712001,3.636 26.8729994,3.70133268 26.999,3.832 C27.1250006,3.96266732 27.188,4.12599902 27.188,4.322 L27.188,4.728 C27.4120011,4.4013317 27.7386645,4.1213345 28.168,3.888 C28.5973355,3.6546655 29.0546642,3.538 29.54,3.538 C30.1746698,3.538 30.7486641,3.69899839 31.262,4.021 Z M30.548,9.558 C30.8933351,9.33399888 31.1616657,9.02833527 31.353,8.641 C31.5443343,8.25366473 31.64,7.81733576 31.64,7.332 C31.64,6.84666424 31.5443343,6.41033527 31.353,6.023 C31.1616657,5.63566473 30.8933351,5.33000112 30.548,5.106 C30.2026649,4.88199888 29.8153355,4.77 29.386,4.77 C28.9473311,4.77 28.5553351,4.87966557 28.21,5.099 C27.8646649,5.31833443 27.5963343,5.62399804 27.405,6.016 C27.2136657,6.40800196 27.118,6.84666424 27.118,7.332 C27.118,7.81733576 27.2136657,8.25599804 27.405,8.648 C27.5963343,9.04000196 27.8646649,9.34566557 28.21,9.565 C28.5553351,9.78433443 28.9473311,9.894 29.386,9.894 C29.8153355,9.894 30.2026649,9.78200112 30.548,9.558 Z M40.908,9.292 C40.5813317,9.87066956 40.1356695,10.3233317 39.571,10.65 C39.0063305,10.9766683 38.3833367,11.14 37.702,11.14 C37.0206633,11.14 36.3976695,10.9766683 35.833,10.65 C35.2683305,10.3233317 34.8226683,9.87066956 34.496,9.292 C34.1693317,8.71333044 34.006,8.06000364 34.006,7.332 C34.006,6.60399636 34.1693317,5.94600294 34.496,5.358 C34.8226683,4.76999706 35.2683305,4.3126683 35.833,3.986 C36.3976695,3.6593317 37.0206633,3.496 37.702,3.496 C38.3833367,3.496 39.0063305,3.6593317 39.571,3.986 C40.1356695,4.3126683 40.5813317,4.76999706 40.908,5.358 C41.2346683,5.94600294 41.398,6.60399636 41.398,7.332 C41.398,8.06000364 41.2346683,8.71333044 40.908,9.292 Z M39.753,5.981 C39.542999,5.58433135 39.2583351,5.27633443 38.899,5.057 C38.5396649,4.83766557 38.1406689,4.728 37.702,4.728 C37.2633311,4.728 36.8643351,4.83766557 36.505,5.057 C36.1456649,5.27633443 35.8610011,5.58433135 35.651,5.981 C35.440999,6.37766865 35.336,6.82799748 35.336,7.332 C35.336,7.82666914 35.440999,8.26999804 35.651,8.662 C35.8610011,9.05400196 36.1456649,9.35966557 36.505,9.579 C36.8643351,9.79833443 37.2633311,9.908 37.702,9.908 C38.1406689,9.908 38.5396649,9.79833443 38.899,9.579 C39.2583351,9.35966557 39.542999,9.05400196 39.753,8.662 C39.9630011,8.26999804 40.068,7.82666914 40.068,7.332 C40.068,6.82799748 39.9630011,6.37766865 39.753,5.981 Z M47.222,3.685 C47.3993342,3.81100063 47.488,3.9673324 47.488,4.154 C47.488,4.37800112 47.4296673,4.54833275 47.313,4.665 C47.1963328,4.78166725 47.0540008,4.84 46.886,4.84 C46.8019996,4.84 46.6760008,4.81200028 46.508,4.756 C46.311999,4.69066634 46.1580006,4.658 46.046,4.658 C45.7566652,4.658 45.4743347,4.75833233 45.199,4.959 C44.9236653,5.15966767 44.6996675,5.43499825 44.527,5.785 C44.3543325,6.13500175 44.268,6.52466452 44.268,6.954 L44.268,10.328 C44.268,10.5146676 44.2050006,10.6733327 44.079,10.804 C43.9529994,10.9346673 43.792001,11 43.596,11 C43.399999,11 43.2413339,10.9370006 43.12,10.811 C42.9986661,10.6849994 42.938,10.524001 42.938,10.328 L42.938,4.336 C42.938,4.1493324 43.0009994,3.99066732 43.127,3.86 C43.2530006,3.72933268 43.4093324,3.664 43.596,3.664 C43.792001,3.664 43.9529994,3.72933268 44.079,3.86 C44.2050006,3.99066732 44.268,4.1493324 44.268,4.336 L44.268,5.05 C44.4733344,4.59266438 44.7813313,4.22166809 45.192,3.937 C45.6026687,3.65233191 46.0693307,3.50533338 46.592,3.496 C46.8346679,3.496 47.0446658,3.55899937 47.222,3.685 Z M50.708,4.966 L50.708,9.138 C50.708,9.604669 50.9179979,9.838 51.338,9.838 C51.4033337,9.838 51.4919994,9.82166683 51.604,9.789 C51.7160006,9.75633317 51.8046663,9.74 51.87,9.74 C51.9913339,9.74 52.0939996,9.79133282 52.178,9.894 C52.2620004,9.99666718 52.304,10.1273325 52.304,10.286 C52.304,10.482001 52.1920011,10.6499993 51.968,10.79 C51.7439989,10.9300007 51.4920014,11 51.212,11 C50.9039985,11 50.621668,10.9673337 50.365,10.902 C50.1083321,10.8366663 49.8796677,10.6710013 49.679,10.405 C49.4783323,10.1389987 49.378,9.73533604 49.378,9.194 L49.378,4.966 L48.566,4.966 C48.3886658,4.966 48.2416673,4.90766725 48.125,4.791 C48.0083328,4.67433275 47.95,4.52733422 47.95,4.35 C47.95,4.17266578 48.0083328,4.02800056 48.125,3.916 C48.2416673,3.80399944 48.3886658,3.748 48.566,3.748 L49.378,3.748 L49.378,2.572 C49.378,2.3853324 49.4409994,2.22666732 49.567,2.096 C49.6930006,1.96533268 49.853999,1.9 50.05,1.9 C50.2366676,1.9 50.3929994,1.96533268 50.519,2.096 C50.6450006,2.22666732 50.708,2.3853324 50.708,2.572 L50.708,3.748 L51.87,3.748 C52.0473342,3.748 52.1943328,3.80633275 52.311,3.923 C52.4276673,4.03966725 52.486,4.18666578 52.486,4.364 C52.486,4.54133422 52.4276673,4.68599944 52.311,4.798 C52.1943328,4.91000056 52.0473342,4.966 51.87,4.966 L50.708,4.966 Z M60.27,7.479 C60.1393327,7.59566725 59.9853342,7.654 59.808,7.654 L54.88,7.654 C54.9453337,8.33533674 55.2043311,8.88133128 55.657,9.292 C56.1096689,9.70266872 56.6626634,9.908 57.316,9.908 C57.7640022,9.908 58.1279986,9.84266732 58.408,9.712 C58.6880014,9.58133268 58.9353323,9.41333436 59.15,9.208 C59.2900007,9.12399958 59.4253327,9.082 59.556,9.082 C59.7146675,9.082 59.8476661,9.13799944 59.955,9.25 C60.0623339,9.36200056 60.116,9.49266592 60.116,9.642 C60.116,9.83800098 60.0226676,10.0153325 59.836,10.174 C59.565332,10.444668 59.2060022,10.6733324 58.758,10.86 C58.3099978,11.0466676 57.852669,11.14 57.386,11.14 C56.6299962,11.14 55.9650029,10.9813349 55.391,10.664 C54.8169971,10.3466651 54.3736682,9.90333618 54.061,9.334 C53.7483318,8.76466382 53.592,8.12067026 53.592,7.402 C53.592,6.61799608 53.7529984,5.92966963 54.075,5.337 C54.3970016,4.74433037 54.821664,4.28933492 55.349,3.972 C55.876336,3.65466508 56.4433303,3.496 57.05,3.496 C57.6473363,3.496 58.2073307,3.64999846 58.73,3.958 C59.2526693,4.26600154 59.6726651,4.69066396 59.99,5.232 C60.3073349,5.77333604 60.4706666,6.37999664 60.48,7.052 C60.4706666,7.22000084 60.4006673,7.36233275 60.27,7.479 Z M55.692,5.169 C55.3093314,5.46300147 55.0573339,5.91799692 54.936,6.534 L59.066,6.534 L59.066,6.422 C59.0193331,5.92733086 58.7976687,5.52133492 58.401,5.204 C58.0043314,4.88666508 57.5540025,4.728 57.05,4.728 C56.5273307,4.728 56.0746686,4.87499853 55.692,5.169 Z M68.453,0.829 C68.5790006,0.95500063 68.642,1.11599902 68.642,1.312 L68.642,10.328 C68.642,10.5146676 68.5790006,10.6733327 68.453,10.804 C68.3269994,10.9346673 68.166001,11 67.97,11 C67.773999,11 67.6153339,10.9370006 67.494,10.811 C67.3726661,10.6849994 67.312,10.524001 67.312,10.328 L67.312,9.936 C67.0786655,10.2720017 66.7496688,10.5566655 66.325,10.79 C65.9003312,11.0233345 65.4453358,11.14 64.96,11.14 C64.3253302,11.14 63.7513359,10.9766683 63.238,10.65 C62.7246641,10.3233317 62.3186682,9.86833625 62.02,9.285 C61.7213318,8.70166375 61.572,8.04600364 61.572,7.318 C61.572,6.58999636 61.7189985,5.93433625 62.013,5.351 C62.3070015,4.76766375 62.7106641,4.3126683 63.224,3.986 C63.7373359,3.6593317 64.3019969,3.496 64.918,3.496 C65.4126691,3.496 65.8699979,3.59866564 66.29,3.804 C66.7100021,4.00933436 67.0506654,4.2753317 67.312,4.602 L67.312,1.312 C67.312,1.11599902 67.3726661,0.95500063 67.494,0.829 C67.6153339,0.70299937 67.773999,0.64 67.97,0.64 C68.166001,0.64 68.3269994,0.70299937 68.453,0.829 Z M66.283,9.572 C66.6236684,9.34799888 66.8896657,9.04000196 67.081,8.648 C67.2723343,8.25599804 67.368,7.81266914 67.368,7.318 C67.368,6.83266424 67.2723343,6.39166865 67.081,5.995 C66.8896657,5.59833135 66.6236684,5.28800112 66.283,5.064 C65.9423316,4.83999888 65.5526689,4.728 65.114,4.728 C64.6753311,4.728 64.2856684,4.83999888 63.945,5.064 C63.6043316,5.28800112 63.3383343,5.59833135 63.147,5.995 C62.9556657,6.39166865 62.86,6.83266424 62.86,7.318 C62.86,7.81266914 62.9556657,8.25599804 63.147,8.648 C63.3383343,9.04000196 63.6043316,9.34799888 63.945,9.572 C64.2856684,9.79600112 64.6753311,9.908 65.114,9.908 C65.5526689,9.908 65.9423316,9.79600112 66.283,9.572 Z M79.898,3.986 C80.4113359,4.3126683 80.8149985,4.76533044 81.109,5.344 C81.4030015,5.92266956 81.55,6.57599636 81.55,7.304 C81.55,8.03200364 81.4030015,8.68999706 81.109,9.278 C80.8149985,9.86600294 80.4113359,10.3233317 79.898,10.65 C79.3846641,10.9766683 78.8200031,11.14 78.204,11.14 C77.7186642,11.14 77.2660021,11.0326677 76.846,10.818 C76.4259979,10.6033323 76.0853346,10.3373349 75.824,10.02 L75.824,10.426 C75.824,10.6126676 75.7610006,10.7713327 75.635,10.902 C75.5089994,11.0326673 75.348001,11.098 75.152,11.098 C74.9653324,11.098 74.8090006,11.0350006 74.683,10.909 C74.5569994,10.7829994 74.494,10.622001 74.494,10.426 L74.494,1.312 C74.494,1.11599902 74.5546661,0.95500063 74.676,0.829 C74.7973339,0.70299937 74.955999,0.64 75.152,0.64 C75.348001,0.64 75.5089994,0.70533268 75.635,0.836 C75.7610006,0.96666732 75.824,1.1253324 75.824,1.312 L75.824,4.728 C76.0480011,4.39199832 76.3746645,4.10266788 76.804,3.86 C77.2333355,3.61733212 77.6906642,3.496 78.176,3.496 C78.8106698,3.496 79.3846641,3.6593317 79.898,3.986 Z M79.184,9.565 C79.5293351,9.33633219 79.7976657,9.02366865 79.989,8.627 C80.1803343,8.23033135 80.276,7.78933576 80.276,7.304 C80.276,6.81866424 80.1803343,6.38000196 79.989,5.988 C79.7976657,5.59599804 79.5293351,5.28800112 79.184,5.064 C78.8386649,4.83999888 78.4513355,4.728 78.022,4.728 C77.5833311,4.728 77.1913351,4.83999888 76.846,5.064 C76.5006649,5.28800112 76.2323343,5.59366473 76.041,5.981 C75.8496657,6.36833527 75.754,6.80933086 75.754,7.304 C75.754,7.79866914 75.8496657,8.24199804 76.041,8.634 C76.2323343,9.02600196 76.5006649,9.33633219 76.846,9.565 C77.1913351,9.79366781 77.5833311,9.908 78.022,9.908 C78.4513355,9.908 78.8386649,9.79366781 79.184,9.565 Z M89.033,3.79 C89.1590006,3.92066732 89.222,4.0793324 89.222,4.266 L89.222,10.314 C89.222,11.4806725 88.9000032,12.3533304 88.256,12.932 C87.6119968,13.5106696 86.7626719,13.8 85.708,13.8 C85.3626649,13.8 85.0220017,13.7673337 84.686,13.702 C84.3499983,13.6366663 84.0746677,13.5480006 83.86,13.436 C83.5146649,13.2773325 83.342,13.062668 83.342,12.792 C83.342,12.7453331 83.3513332,12.684667 83.37,12.61 C83.4260003,12.4513325 83.5053328,12.3300004 83.608,12.246 C83.7106672,12.1619996 83.8273327,12.12 83.958,12.12 C84.032667,12.12 84.1026663,12.1339999 84.168,12.162 C84.4573348,12.2926673 84.7139989,12.395333 84.938,12.47 C85.1620011,12.544667 85.4233318,12.582 85.722,12.582 C87.1686739,12.582 87.892,11.8400074 87.892,10.356 L87.892,10.076 C87.6399987,10.4120017 87.3156687,10.6733324 86.919,10.86 C86.5223314,11.0466676 86.0673359,11.14 85.554,11.14 C84.7793295,11.14 84.1750022,10.8926691 83.741,10.398 C83.3069978,9.90333086 83.09,9.25467068 83.09,8.452 L83.09,4.266 C83.09,4.06999902 83.1506661,3.90900063 83.272,3.783 C83.3933339,3.65699937 83.551999,3.594 83.748,3.594 C83.944001,3.594 84.1049994,3.65933268 84.231,3.79 C84.3570006,3.92066732 84.42,4.0793324 84.42,4.266 L84.42,8.102 C84.42,8.71800308 84.555332,9.17299853 84.826,9.467 C85.096668,9.76100147 85.5073306,9.908 86.058,9.908 C86.5900027,9.908 87.0286649,9.74000168 87.374,9.404 C87.7193351,9.06799832 87.892,8.63400266 87.892,8.102 L87.892,4.266 C87.892,4.06999902 87.9526661,3.90900063 88.074,3.783 C88.1953339,3.65699937 88.353999,3.594 88.55,3.594 C88.746001,3.594 88.9069994,3.65933268 89.033,3.79 Z" id="Supported-by" fill="#9B9B9B"></path>
            </g>
            <g id="Group-4-Copy-3" transform="translate(0.000000, 86.000000)">
                <g id="logo-copy" fill-rule="nonzero" fill="#00B1E7">
                    <path d="M19.688057,6.83669609 C19.8975045,6.11727617 20,5.37137453 20,4.61223203 C20,3.85750315 19.8930481,3.10718789 19.688057,2.39218159 C19.416221,1.49180328 18.7522282,0.785624212 17.8698752,0.454602774 C17.0008913,0.154476671 16.0918004,0 15.1693405,0 C14.2468806,0 13.342246,0.154476671 12.473262,0.454602774 C11.5864528,0.790037831 10.9224599,1.4962169 10.6550802,2.39218159 C10.4456328,3.11601513 10.3386809,3.86633039 10.3386809,4.61664565 C10.3386809,5.36696091 10.4456328,6.11727617 10.6550802,6.84110971 C10.9224599,7.7370744 11.5864528,8.44325347 12.473262,8.77868852 C13.342246,9.07881463 14.2513369,9.2332913 15.1693405,9.2332913 C16.087344,9.2332913 16.9964349,9.07881463 17.8698752,8.77868852 C18.7566845,8.44325347 19.416221,7.7370744 19.688057,6.83669609 M17.0855615,4.61223203 C17.0855615,4.98297604 17.0276292,5.34489281 16.9206774,5.69356873 C16.7691622,6.16582598 16.3680927,6.52332913 15.8734403,6.61601513 C15.6461676,6.66015132 15.4099822,6.68221942 15.1737968,6.68221942 C14.9376114,6.68221942 14.701426,6.66015132 14.4741533,6.61601513 C13.9795009,6.51891551 13.5784314,6.16582598 13.4269162,5.69356873 C13.315508,5.34489281 13.2620321,4.98297604 13.2620321,4.61223203 C13.2620321,4.24148802 13.3199643,3.87515763 13.4269162,3.53089533 C13.5784314,3.05863808 13.9795009,2.70113493 14.4741533,2.60844893 C14.701426,2.56431274 14.9376114,2.54224464 15.1737968,2.54224464 C15.4144385,2.54224464 15.6461676,2.56431274 15.8734403,2.60844893 C16.3680927,2.70554855 16.7691622,3.05863808 16.9206774,3.53089533 C17.0276292,3.87957125 17.0855615,4.24590164 17.0855615,4.61223203 M9.34937611,16.7099622 C9.55882353,15.9905422 9.66131907,15.2446406 9.66131907,14.4854981 C9.66131907,13.7307692 9.5543672,12.980454 9.34937611,12.2654477 C9.07754011,11.3650694 8.41354724,10.6588903 7.5311943,10.3278689 C6.65775401,10.0277427 5.75311943,9.87326608 4.83065954,9.87326608 C3.90819964,9.87326608 3.00356506,10.0277427 2.13458111,10.3278689 C1.24777184,10.6588903 0.583778966,11.3650694 0.316399287,12.2654477 C0.106951872,12.9848676 0,13.7351828 0,14.4854981 C0,15.2358134 0.106951872,15.9861286 0.316399287,16.7099622 C0.583778966,17.6059269 1.24777184,18.3121059 2.13458111,18.647541 C3.00356506,18.9476671 3.91265597,19.1021438 4.83065954,19.1021438 C5.7486631,19.1021438 6.65775401,18.9476671 7.5311943,18.647541 C8.41354724,18.3121059 9.07754011,17.6059269 9.34937611,16.7099622 M6.74688057,14.4854981 C6.74688057,14.8562421 6.68894831,15.2181589 6.58199643,15.5668348 C6.43048128,16.0390921 6.02941176,16.3965952 5.53475936,16.4892812 C5.30748663,16.5334174 5.07130125,16.5554855 4.83511586,16.5554855 C4.59893048,16.5554855 4.3627451,16.5334174 4.13547237,16.4892812 C3.64081996,16.3921816 3.23975045,16.0390921 3.08823529,15.5668348 C2.97682709,15.2181589 2.92335116,14.8562421 2.92335116,14.4854981 C2.92335116,14.1147541 2.98128342,13.7484237 3.08823529,13.4041614 C3.23975045,12.9319042 3.64081996,12.574401 4.13547237,12.481715 C4.3627451,12.4375788 4.59893048,12.4155107 4.83511586,12.4155107 C5.07130125,12.4155107 5.30748663,12.4375788 5.53475936,12.481715 C6.02941176,12.5788146 6.43048128,12.9319042 6.58199643,13.4041614 C6.68894831,13.7528373 6.74688057,14.1147541 6.74688057,14.4854981 M6.74688057,4.59457755 L9.6657754,4.59457755 C9.6657754,3.8442623 9.55882353,3.10277427 9.35383244,2.38776797 C9.08199643,1.48738966 8.41800357,0.781210593 7.53565062,0.450189155 C6.65775401,0.154476671 5.75311943,0 4.83065954,0 C3.90819964,0 3.00356506,0.154476671 2.13458111,0.454602774 C1.24777184,0.785624212 0.583778966,1.49180328 0.316399287,2.39218159 C0.106951872,3.11601513 0,3.86191677 0,4.61223203 C0,5.36254729 0.106951872,6.11286255 0.316399287,6.83669609 C0.583778966,7.73266078 1.24777184,8.43883985 2.13458111,8.77427491 C3.00356506,9.07440101 3.91265597,9.22887768 4.83065954,9.22887768 C5.7486631,9.22887768 6.65775401,9.07440101 7.5311943,8.77427491 C8.41354724,8.44325347 9.07754011,7.7370744 9.34937611,6.83669609 C9.38502674,6.71311475 9.41622103,6.58953342 9.44741533,6.46153846 L6.69786096,5.19041614 C6.67112299,5.36254729 6.63101604,5.53026482 6.57754011,5.69356873 C6.42602496,6.16582598 6.02495544,6.52332913 5.53030303,6.61601513 C5.3030303,6.66015132 5.06684492,6.68221942 4.83065954,6.68221942 C4.59447415,6.68221942 4.35828877,6.66015132 4.13101604,6.61601513 C3.63636364,6.51891551 3.23529412,6.16582598 3.08377897,5.69356873 C2.97237077,5.34489281 2.91889483,4.98297604 2.91889483,4.61223203 C2.91889483,4.24148802 2.97682709,3.87515763 3.08377897,3.53089533 C3.23529412,3.05863808 3.63636364,2.70113493 4.13101604,2.60844893 C4.35828877,2.56431274 4.59447415,2.54224464 4.83065954,2.54224464 C5.06684492,2.54224464 5.3030303,2.56431274 5.53030303,2.60844893 C6.02495544,2.70554855 6.42602496,3.05863808 6.57754011,3.53089533 C6.68894831,3.87515763 6.74242424,4.23266078 6.74688057,4.59457755 M10.6550802,12.261034 C10.4456328,12.9848676 10.3386809,13.7351828 10.3386809,14.4854981 L10.3386809,21 L13.2575758,21 L13.2575758,14.4854981 C13.2575758,14.1147541 13.315508,13.7484237 13.4224599,13.4041614 C13.573975,12.9319042 13.9750446,12.574401 14.469697,12.481715 C14.6969697,12.4375788 14.9331551,12.4155107 15.1693405,12.4155107 C15.4099822,12.4155107 15.6417112,12.4375788 15.868984,12.481715 C16.3636364,12.5788146 16.7647059,12.9319042 16.916221,13.4041614 C17.0276292,13.7528373 17.0811052,14.1191677 17.0811052,14.4854981 C17.0811052,14.8562421 17.0231729,15.2181589 16.916221,15.5668348 C16.7647059,16.0390921 16.3636364,16.3965952 15.868984,16.4892812 C15.6417112,16.5334174 15.4055258,16.5554855 15.1693405,16.5554855 C14.9331551,16.5554855 14.6969697,16.5334174 14.469697,16.4892812 C14.3716578,16.4716267 14.2825312,16.4407314 14.1934046,16.4054224 L15.1827094,19.0977301 C16.0962567,19.0977301 17.0008913,18.9432535 17.8698752,18.6431274 C18.7522282,18.3121059 19.416221,17.6059269 19.688057,16.7055485 C19.8975045,15.9861286 20,15.240227 20,14.4810845 C20,13.7263556 19.8930481,12.9760404 19.688057,12.2566204 C19.416221,11.3562421 18.7522282,10.6500631 17.8698752,10.3190416 C16.9964349,10.0189155 16.0918004,9.86443884 15.1693405,9.86443884 C14.2468806,9.86443884 13.342246,10.0189155 12.473262,10.3190416 C11.5864528,10.6588903 10.9224599,11.3650694 10.6550802,12.261034" id="XMLID_8_"></path>
                </g>
                <path d="M34.264,9.702 C34.264,9.20733086 34.1146682,8.84100119 33.816,8.603 C33.5173318,8.36499881 33.1206691,8.246 32.626,8.246 C32.2526648,8.246 31.900335,8.31833261 31.569,8.463 C31.237665,8.60766739 30.9600011,8.79199888 30.736,9.016 L30.036,8.176 C30.3626683,7.86799846 30.7616643,7.62533422 31.233,7.448 C31.7043357,7.27066578 32.210664,7.182 32.752,7.182 C33.2280024,7.182 33.6409983,7.24966599 33.991,7.385 C34.3410018,7.52033401 34.6279989,7.7046655 34.852,7.938 C35.0760011,8.1713345 35.2439994,8.44666508 35.356,8.764 C35.4680006,9.08133492 35.524,9.42199818 35.524,9.786 L35.524,12.684 C35.524,12.9080011 35.5309999,13.1436654 35.545,13.391 C35.5590001,13.6383346 35.5846665,13.8413325 35.622,14 L34.432,14 C34.357333,13.6826651 34.32,13.3653349 34.32,13.048 L34.278,13.048 C34.0353321,13.4026684 33.7296685,13.677999 33.361,13.874 C32.9923315,14.070001 32.5560025,14.168 32.052,14.168 C31.7906654,14.168 31.5176681,14.1330003 31.233,14.063 C30.9483319,13.9929996 30.6893345,13.8786675 30.456,13.72 C30.2226655,13.5613325 30.0290008,13.3513346 29.875,13.09 C29.7209992,12.8286654 29.644,12.5066686 29.644,12.124 C29.644,11.6199975 29.779332,11.2210015 30.05,10.927 C30.320668,10.6329985 30.6753311,10.4090008 31.114,10.255 C31.5526689,10.1009992 32.0473306,10.0006669 32.598,9.954 C33.1486694,9.9073331 33.7039972,9.884 34.264,9.884 L34.264,9.702 Z M33.942,10.836 C33.6153317,10.836 33.2770017,10.8499999 32.927,10.878 C32.5769983,10.9060001 32.2596681,10.9619996 31.975,11.046 C31.6903319,11.1300004 31.4546676,11.2559992 31.268,11.424 C31.0813324,11.5920008 30.988,11.8159986 30.988,12.096 C30.988,12.292001 31.0276663,12.4553327 31.107,12.586 C31.1863337,12.7166673 31.2913327,12.8239996 31.422,12.908 C31.5526673,12.9920004 31.6973325,13.0503332 31.856,13.083 C32.0146675,13.1156668 32.1779992,13.132 32.346,13.132 C32.9620031,13.132 33.435665,12.9476685 33.767,12.579 C34.098335,12.2103315 34.264,11.7460028 34.264,11.186 L34.264,10.836 L33.942,10.836 Z M49.79,12.46 C49.397998,12.9920027 48.8893365,13.423665 48.264,13.755 C47.6386635,14.086335 46.8873377,14.252 46.01,14.252 C45.2539962,14.252 44.5563365,14.1236679 43.917,13.867 C43.2776635,13.6103321 42.7270023,13.2510023 42.265,12.789 C41.8029977,12.3269977 41.4413346,11.7763365 41.18,11.137 C40.9186654,10.4976635 40.788,9.79533716 40.788,9.03 C40.788,8.25532946 40.9209987,7.54833653 41.187,6.909 C41.4530013,6.26966347 41.8216643,5.72366893 42.293,5.271 C42.7643357,4.81833107 43.3219968,4.46600126 43.966,4.214 C44.6100032,3.96199874 45.3099962,3.836 46.066,3.836 C46.4020017,3.836 46.7426649,3.86866634 47.088,3.934 C47.4333351,3.99933366 47.7646651,4.09733268 48.082,4.228 C48.3993349,4.35866732 48.6886654,4.51966571 48.95,4.711 C49.2113346,4.90233429 49.4353324,5.12399874 49.622,5.376 L48.53,6.216 C48.2873321,5.87999832 47.9443355,5.60233443 47.501,5.383 C47.0576645,5.16366557 46.5793359,5.054 46.066,5.054 C45.4873304,5.054 44.9670023,5.15899895 44.505,5.369 C44.0429977,5.57900105 43.6486683,5.86599818 43.322,6.23 C42.9953317,6.59400182 42.7433342,7.01633093 42.566,7.497 C42.3886658,7.97766907 42.3,8.48866396 42.3,9.03 C42.3,9.5900028 42.3863325,10.1126642 42.559,10.598 C42.7316675,11.0833358 42.9789984,11.5056649 43.301,11.865 C43.6230016,12.2243351 44.0149977,12.5066656 44.477,12.712 C44.9390023,12.9173344 45.4546638,13.02 46.024,13.02 C46.5840028,13.02 47.0926644,12.9080011 47.55,12.684 C48.0073356,12.4599989 48.3853318,12.1333355 48.684,11.704 L49.79,12.46 Z M57.854,10.668 C57.854,11.1813359 57.7630009,11.6526645 57.581,12.082 C57.3989991,12.5113355 57.1470016,12.8823318 56.825,13.195 C56.5029984,13.5076682 56.1226689,13.7503325 55.684,13.923 C55.2453311,14.0956675 54.7740025,14.182 54.27,14.182 C53.7659975,14.182 53.2946689,14.0956675 52.856,13.923 C52.4173311,13.7503325 52.0393349,13.5076682 51.722,13.195 C51.4046651,12.8823318 51.1550009,12.5113355 50.973,12.082 C50.7909991,11.6526645 50.7,11.1813359 50.7,10.668 C50.7,10.1546641 50.7909991,9.68566879 50.973,9.261 C51.1550009,8.83633121 51.4046651,8.47000154 51.722,8.162 C52.0393349,7.85399846 52.4173311,7.61366753 52.856,7.441 C53.2946689,7.26833247 53.7659975,7.182 54.27,7.182 C54.7740025,7.182 55.2453311,7.26833247 55.684,7.441 C56.1226689,7.61366753 56.5029984,7.85399846 56.825,8.162 C57.1470016,8.47000154 57.3989991,8.83633121 57.581,9.261 C57.7630009,9.68566879 57.854,10.1546641 57.854,10.668 Z M56.482,10.668 C56.482,10.3506651 56.4330005,10.0473348 56.335,9.758 C56.2369995,9.46866522 56.0946676,9.21433443 55.908,8.995 C55.7213324,8.77566557 55.4903347,8.60066732 55.215,8.47 C54.9396653,8.33933268 54.6246684,8.274 54.27,8.274 C53.9153316,8.274 53.6003347,8.33933268 53.325,8.47 C53.0496653,8.60066732 52.8186676,8.77566557 52.632,8.995 C52.4453324,9.21433443 52.3030005,9.46866522 52.205,9.758 C52.1069995,10.0473348 52.058,10.3506651 52.058,10.668 C52.058,10.9853349 52.1069995,11.2886652 52.205,11.578 C52.3030005,11.8673348 52.4453324,12.1239989 52.632,12.348 C52.8186676,12.5720011 53.0496653,12.7493327 53.325,12.88 C53.6003347,13.0106673 53.9153316,13.076 54.27,13.076 C54.6246684,13.076 54.9396653,13.0106673 55.215,12.88 C55.4903347,12.7493327 55.7213324,12.5720011 55.908,12.348 C56.0946676,12.1239989 56.2369995,11.8673348 56.335,11.578 C56.4330005,11.2886652 56.482,10.9853349 56.482,10.668 Z M62.404,11.144 L59.156,11.144 L59.156,10.024 L62.404,10.024 L62.404,11.144 Z M70.874,10.668 C70.874,11.1813359 70.7830009,11.6526645 70.601,12.082 C70.4189991,12.5113355 70.1670016,12.8823318 69.845,13.195 C69.5229984,13.5076682 69.1426689,13.7503325 68.704,13.923 C68.2653311,14.0956675 67.7940025,14.182 67.29,14.182 C66.7859975,14.182 66.3146689,14.0956675 65.876,13.923 C65.4373311,13.7503325 65.0593349,13.5076682 64.742,13.195 C64.4246651,12.8823318 64.1750009,12.5113355 63.993,12.082 C63.8109991,11.6526645 63.72,11.1813359 63.72,10.668 C63.72,10.1546641 63.8109991,9.68566879 63.993,9.261 C64.1750009,8.83633121 64.4246651,8.47000154 64.742,8.162 C65.0593349,7.85399846 65.4373311,7.61366753 65.876,7.441 C66.3146689,7.26833247 66.7859975,7.182 67.29,7.182 C67.7940025,7.182 68.2653311,7.26833247 68.704,7.441 C69.1426689,7.61366753 69.5229984,7.85399846 69.845,8.162 C70.1670016,8.47000154 70.4189991,8.83633121 70.601,9.261 C70.7830009,9.68566879 70.874,10.1546641 70.874,10.668 Z M69.502,10.668 C69.502,10.3506651 69.4530005,10.0473348 69.355,9.758 C69.2569995,9.46866522 69.1146676,9.21433443 68.928,8.995 C68.7413324,8.77566557 68.5103347,8.60066732 68.235,8.47 C67.9596653,8.33933268 67.6446684,8.274 67.29,8.274 C66.9353316,8.274 66.6203347,8.33933268 66.345,8.47 C66.0696653,8.60066732 65.8386676,8.77566557 65.652,8.995 C65.4653324,9.21433443 65.3230005,9.46866522 65.225,9.758 C65.1269995,10.0473348 65.078,10.3506651 65.078,10.668 C65.078,10.9853349 65.1269995,11.2886652 65.225,11.578 C65.3230005,11.8673348 65.4653324,12.1239989 65.652,12.348 C65.8386676,12.5720011 66.0696653,12.7493327 66.345,12.88 C66.6203347,13.0106673 66.9353316,13.076 67.29,13.076 C67.6446684,13.076 67.9596653,13.0106673 68.235,12.88 C68.5103347,12.7493327 68.7413324,12.5720011 68.928,12.348 C69.1146676,12.1239989 69.2569995,11.8673348 69.355,11.578 C69.4530005,11.2886652 69.502,10.9853349 69.502,10.668 Z M74.01,17.36 L72.694,17.36 L72.694,7.364 L73.982,7.364 L73.982,8.4 L74.024,8.4 C74.2386677,8.04533156 74.5536646,7.75366781 74.969,7.525 C75.3843354,7.29633219 75.8673306,7.182 76.418,7.182 C76.9126691,7.182 77.362998,7.27066578 77.769,7.448 C78.175002,7.62533422 78.5249985,7.87266508 78.819,8.19 C79.1130015,8.50733492 79.3393325,8.87833121 79.498,9.303 C79.6566675,9.72766879 79.736,10.1826642 79.736,10.668 C79.736,11.1533358 79.6566675,11.6106645 79.498,12.04 C79.3393325,12.4693355 79.1153348,12.8426651 78.826,13.16 C78.5366652,13.4773349 78.1866687,13.7269991 77.776,13.909 C77.3653313,14.0910009 76.9033359,14.182 76.39,14.182 C75.9139976,14.182 75.4660021,14.0793344 75.046,13.874 C74.6259979,13.6686656 74.2946679,13.3793352 74.052,13.006 L74.01,13.006 L74.01,17.36 Z M78.378,10.668 C78.378,10.3599985 78.3313338,10.0613348 78.238,9.772 C78.1446662,9.48266522 78.0046676,9.22600112 77.818,9.002 C77.6313324,8.77799888 77.4003347,8.60066732 77.125,8.47 C76.8496653,8.33933268 76.5300018,8.274 76.166,8.274 C75.8299983,8.274 75.5243347,8.33933268 75.249,8.47 C74.9736653,8.60066732 74.738001,8.77799888 74.542,9.002 C74.345999,9.22600112 74.1943339,9.48266522 74.087,9.772 C73.9796661,10.0613348 73.926,10.3646651 73.926,10.682 C73.926,10.9993349 73.9796661,11.3026652 74.087,11.592 C74.1943339,11.8813348 74.345999,12.1356656 74.542,12.355 C74.738001,12.5743344 74.9736653,12.7493327 75.249,12.88 C75.5243347,13.0106673 75.8299983,13.076 76.166,13.076 C76.5300018,13.076 76.8496653,13.008334 77.125,12.873 C77.4003347,12.737666 77.6313324,12.5580011 77.818,12.334 C78.0046676,12.1099989 78.1446662,11.8533348 78.238,11.564 C78.3313338,11.2746652 78.378,10.9760015 78.378,10.668 Z M88.654,9.044 C88.5046659,8.80133212 88.294668,8.60300077 88.024,8.449 C87.753332,8.29499923 87.4500017,8.218 87.114,8.218 C86.9646659,8.218 86.8153341,8.23433317 86.666,8.267 C86.5166659,8.29966683 86.3836673,8.35099965 86.267,8.421 C86.1503327,8.49100035 86.0570003,8.57966613 85.987,8.687 C85.9169997,8.79433387 85.882,8.92733254 85.882,9.086 C85.882,9.3660014 86.0079987,9.57366599 86.26,9.709 C86.5120013,9.84433401 86.8899975,9.96799944 87.394,10.08 C87.7113349,10.154667 88.005332,10.2433328 88.276,10.346 C88.546668,10.4486672 88.7823323,10.5769992 88.983,10.731 C89.1836677,10.8850008 89.3399994,11.0693323 89.452,11.284 C89.5640006,11.4986677 89.62,11.7506652 89.62,12.04 C89.62,12.432002 89.5453341,12.763332 89.396,13.034 C89.2466659,13.304668 89.0483346,13.5263325 88.801,13.699 C88.5536654,13.8716675 88.2713349,13.995333 87.954,14.07 C87.6366651,14.144667 87.3100017,14.182 86.974,14.182 C86.4699975,14.182 85.9776691,14.084001 85.497,13.888 C85.0163309,13.691999 84.6173349,13.3933353 84.3,12.992 L85.238,12.194 C85.4153342,12.4553346 85.6603318,12.6746658 85.973,12.852 C86.2856682,13.0293342 86.6286648,13.118 87.002,13.118 C87.1700008,13.118 87.3309992,13.1016668 87.485,13.069 C87.6390008,13.0363332 87.7789994,12.982667 87.905,12.908 C88.0310006,12.833333 88.131333,12.7353339 88.206,12.614 C88.280667,12.4926661 88.318,12.3386676 88.318,12.152 C88.318,11.8439985 88.1710015,11.6153341 87.877,11.466 C87.5829985,11.3166659 87.1513362,11.1766673 86.582,11.046 C86.3579989,10.9899997 86.1316678,10.9223337 85.903,10.843 C85.6743322,10.7636663 85.4666676,10.6540007 85.28,10.514 C85.0933324,10.3739993 84.9416672,10.199001 84.825,9.989 C84.7083328,9.77899895 84.65,9.52000154 84.65,9.212 C84.65,8.85733156 84.7223326,8.55166795 84.867,8.295 C85.0116674,8.03833205 85.2006655,7.82833415 85.434,7.665 C85.6673345,7.50166585 85.9333318,7.38033373 86.232,7.301 C86.5306682,7.22166627 86.8386651,7.182 87.156,7.182 C87.6320024,7.182 88.0916644,7.2753324 88.535,7.462 C88.9783355,7.6486676 89.3213321,7.91933156 89.564,8.274 L88.654,9.044 Z M96.144,10.094 C96.1346666,9.83266536 96.0903337,9.58766781 96.011,9.359 C95.9316663,9.13033219 95.8150008,8.93200084 95.661,8.764 C95.5069992,8.59599916 95.3156678,8.46300049 95.087,8.365 C94.8583322,8.26699951 94.5900015,8.218 94.282,8.218 C94.0019986,8.218 93.7383346,8.26699951 93.491,8.365 C93.2436654,8.46300049 93.0290009,8.59599916 92.847,8.764 C92.6649991,8.93200084 92.5156673,9.13033219 92.399,9.359 C92.2823327,9.58766781 92.2146668,9.83266536 92.196,10.094 L96.144,10.094 Z M97.474,10.626 L97.474,10.85 C97.474,10.924667 97.4693334,10.999333 97.46,11.074 L92.196,11.074 C92.2053334,11.3540014 92.2683327,11.6176654 92.385,11.865 C92.5016672,12.1123346 92.657999,12.3269991 92.854,12.509 C93.050001,12.6910009 93.276332,12.8333328 93.533,12.936 C93.7896679,13.0386672 94.0626652,13.09 94.352,13.09 C94.8000022,13.09 95.1873317,12.992001 95.514,12.796 C95.8406683,12.599999 96.0973324,12.3620014 96.284,12.082 L97.208,12.824 C96.8533316,13.290669 96.4356691,13.6336656 95.955,13.853 C95.4743309,14.0723344 94.9400029,14.182 94.352,14.182 C93.8479975,14.182 93.3813355,14.0980008 92.952,13.93 C92.5226645,13.7619992 92.1540015,13.5263348 91.846,13.223 C91.5379985,12.9196651 91.2953342,12.5533355 91.118,12.124 C90.9406658,11.6946645 90.852,11.2186693 90.852,10.696 C90.852,10.1826641 90.9383325,9.70900217 91.111,9.275 C91.2836675,8.84099783 91.5239985,8.47000154 91.832,8.162 C92.1400015,7.85399846 92.5039979,7.61366753 92.924,7.441 C93.3440021,7.26833247 93.7966642,7.182 94.282,7.182 C94.7673358,7.182 95.2083314,7.26133254 95.605,7.42 C96.0016686,7.57866746 96.3376653,7.80733184 96.613,8.106 C96.8883347,8.40466816 97.1006659,8.76633121 97.25,9.191 C97.3993341,9.61566879 97.474,10.0939973 97.474,10.626 Z M99.308,8.792 C99.308,8.61466578 99.3033334,8.3860014 99.294,8.106 C99.2846666,7.8259986 99.2706668,7.57866774 99.252,7.364 L100.498,7.364 C100.516667,7.53200084 100.530667,7.72566557 100.54,7.945 C100.549333,8.16433443 100.554,8.3439993 100.554,8.484 L100.596,8.484 C100.782668,8.09199804 101.055665,7.77700119 101.415,7.539 C101.774335,7.30099881 102.177998,7.182 102.626,7.182 C102.831334,7.182 103.003999,7.20066648 103.144,7.238 L103.088,8.456 C102.901332,8.4093331 102.700668,8.386 102.486,8.386 C102.168665,8.386 101.893335,8.44433275 101.66,8.561 C101.426665,8.67766725 101.233001,8.83399902 101.079,9.03 C100.924999,9.22600098 100.810667,9.45233205 100.736,9.709 C100.661333,9.96566795 100.624,10.2339986 100.624,10.514 L100.624,14 L99.308,14 L99.308,8.792 Z M107.498,14 L106.07,14 L103.368,7.364 L104.824,7.364 L106.77,12.586 L106.798,12.586 L108.758,7.364 L110.158,7.364 L107.498,14 Z M112.762,14 L111.446,14 L111.446,7.364 L112.762,7.364 L112.762,14 Z M112.986,4.97 C112.986,5.21266788 112.899668,5.41333254 112.727,5.572 C112.554332,5.73066746 112.346668,5.81 112.104,5.81 C111.861332,5.81 111.656001,5.72833415 111.488,5.565 C111.319999,5.40166585 111.236,5.2033345 111.236,4.97 C111.236,4.72733212 111.319999,4.52433415 111.488,4.361 C111.656001,4.19766585 111.861332,4.116 112.104,4.116 C112.346668,4.116 112.554332,4.19766585 112.727,4.361 C112.899668,4.52433415 112.986,4.72733212 112.986,4.97 Z M119.706,9.044 C119.565999,8.82933226 119.356001,8.64966739 119.076,8.505 C118.795999,8.36033261 118.497335,8.288 118.18,8.288 C117.834665,8.288 117.529001,8.35333268 117.263,8.484 C116.996999,8.61466732 116.770668,8.78966557 116.584,9.009 C116.397332,9.22833443 116.255,9.48266522 116.157,9.772 C116.059,10.0613348 116.01,10.3646651 116.01,10.682 C116.01,10.9993349 116.059,11.3026652 116.157,11.592 C116.255,11.8813348 116.397332,12.1356656 116.584,12.355 C116.770668,12.5743344 116.999332,12.7493327 117.27,12.88 C117.540668,13.0106673 117.848665,13.076 118.194,13.076 C118.530002,13.076 118.835665,13.0106673 119.111,12.88 C119.386335,12.7493327 119.612666,12.5720011 119.79,12.348 L120.672,13.146 C120.391999,13.4726683 120.042002,13.7269991 119.622,13.909 C119.201998,14.0910009 118.726003,14.182 118.194,14.182 C117.680664,14.182 117.207002,14.0980008 116.773,13.93 C116.338998,13.7619992 115.963335,13.5263348 115.646,13.223 C115.328665,12.9196651 115.079001,12.5533355 114.897,12.124 C114.714999,11.6946645 114.624,11.2140027 114.624,10.682 C114.624,10.1593307 114.712666,9.68333548 114.89,9.254 C115.067334,8.82466452 115.314665,8.45600154 115.632,8.148 C115.949335,7.83999846 116.324998,7.60200084 116.759,7.434 C117.193002,7.26599916 117.661997,7.182 118.166,7.182 C118.632669,7.182 119.096998,7.2753324 119.559,7.462 C120.021002,7.6486676 120.387332,7.91933156 120.658,8.274 L119.706,9.044 Z M126.832,10.094 C126.822667,9.83266536 126.778334,9.58766781 126.699,9.359 C126.619666,9.13033219 126.503001,8.93200084 126.349,8.764 C126.194999,8.59599916 126.003668,8.46300049 125.775,8.365 C125.546332,8.26699951 125.278002,8.218 124.97,8.218 C124.689999,8.218 124.426335,8.26699951 124.179,8.365 C123.931665,8.46300049 123.717001,8.59599916 123.535,8.764 C123.352999,8.93200084 123.203667,9.13033219 123.087,9.359 C122.970333,9.58766781 122.902667,9.83266536 122.884,10.094 L126.832,10.094 Z M128.162,10.626 L128.162,10.85 C128.162,10.924667 128.157333,10.999333 128.148,11.074 L122.884,11.074 C122.893333,11.3540014 122.956333,11.6176654 123.073,11.865 C123.189667,12.1123346 123.345999,12.3269991 123.542,12.509 C123.738001,12.6910009 123.964332,12.8333328 124.221,12.936 C124.477668,13.0386672 124.750665,13.09 125.04,13.09 C125.488002,13.09 125.875332,12.992001 126.202,12.796 C126.528668,12.599999 126.785332,12.3620014 126.972,12.082 L127.896,12.824 C127.541332,13.290669 127.123669,13.6336656 126.643,13.853 C126.162331,14.0723344 125.628003,14.182 125.04,14.182 C124.535997,14.182 124.069335,14.0980008 123.64,13.93 C123.210665,13.7619992 122.842002,13.5263348 122.534,13.223 C122.225998,12.9196651 121.983334,12.5533355 121.806,12.124 C121.628666,11.6946645 121.54,11.2186693 121.54,10.696 C121.54,10.1826641 121.626332,9.70900217 121.799,9.275 C121.971668,8.84099783 122.211998,8.47000154 122.52,8.162 C122.828002,7.85399846 123.191998,7.61366753 123.612,7.441 C124.032002,7.26833247 124.484664,7.182 124.97,7.182 C125.455336,7.182 125.896331,7.26133254 126.293,7.42 C126.689669,7.57866746 127.025665,7.80733184 127.301,8.106 C127.576335,8.40466816 127.788666,8.76633121 127.938,9.191 C128.087334,9.61566879 128.162,10.0939973 128.162,10.626 Z" id="a-Co-op-service" fill="#6E6E6E"></path>
            </g>
        </g>
    </g>
</svg>